<svg width="18" height="16" viewBox="0 0 18 16" fill="none" xmlns="http://www.w3.org/2000/svg">
<g opacity="0.5">
<path d="M1.00733 14.9959C2.34975 16.334 4.53418 16.3354 5.87724 14.9959L13.6686 7.23023C14.0601 6.84409 14.2766 6.3259 14.278 5.77415C14.2813 4.67138 13.3135 3.70736 12.2072 3.71006C11.6538 3.71139 11.1345 3.92729 10.7445 4.32012L3.92886 11.1131C3.65985 11.382 3.65985 11.8156 3.92886 12.0838C4.19788 12.3519 4.63369 12.3519 4.90271 12.0838L11.7203 5.28813C11.8528 5.15538 12.0257 5.08364 12.2106 5.083C12.5792 5.083 12.9006 5.40345 12.9006 5.7708C12.8999 5.95516 12.828 6.12746 12.6969 6.25682L4.90271 14.0252C4.09768 14.8297 2.78689 14.8297 1.98118 14.0252C1.17546 13.2234 1.17546 11.9162 1.98118 11.1131L10.7465 2.376C12.0889 1.0379 14.274 1.0379 15.6164 2.376C16.9588 3.7141 16.9588 5.89213 15.6164 7.23023L8.79873 14.0252C8.52971 14.2934 8.52971 14.7278 8.79873 14.9959C9.06775 15.2641 9.50356 15.2641 9.77258 14.9959L16.5902 8.20094C18.4699 6.32723 18.4699 3.2784 16.5902 1.40529C14.7111 -0.468429 11.6523 -0.468429 9.77258 1.40529L1.00733 10.1424C-0.335777 11.4811 -0.335777 13.6578 1.00733 14.9959Z" fill="#0B172A"/>
<mask id="mask0" mask-type="alpha" maskUnits="userSpaceOnUse" x="0" y="0" width="18" height="16">
<path d="M1.00733 14.9959C2.34975 16.334 4.53418 16.3354 5.87724 14.9959L13.6686 7.23023C14.0601 6.84409 14.2766 6.3259 14.278 5.77415C14.2813 4.67138 13.3135 3.70736 12.2072 3.71006C11.6538 3.71139 11.1345 3.92729 10.7445 4.32012L3.92886 11.1131C3.65985 11.382 3.65985 11.8156 3.92886 12.0838C4.19788 12.3519 4.63369 12.3519 4.90271 12.0838L11.7203 5.28813C11.8528 5.15538 12.0257 5.08364 12.2106 5.083C12.5792 5.083 12.9006 5.40345 12.9006 5.7708C12.8999 5.95516 12.828 6.12746 12.6969 6.25682L4.90271 14.0252C4.09768 14.8297 2.78689 14.8297 1.98118 14.0252C1.17546 13.2234 1.17546 11.9162 1.98118 11.1131L10.7465 2.376C12.0889 1.0379 14.274 1.0379 15.6164 2.376C16.9588 3.7141 16.9588 5.89213 15.6164 7.23023L8.79873 14.0252C8.52971 14.2934 8.52971 14.7278 8.79873 14.9959C9.06775 15.2641 9.50356 15.2641 9.77258 14.9959L16.5902 8.20094C18.4699 6.32723 18.4699 3.2784 16.5902 1.40529C14.7111 -0.468429 11.6523 -0.468429 9.77258 1.40529L1.00733 10.1424C-0.335777 11.4811 -0.335777 13.6578 1.00733 14.9959Z" fill="white"/>
</mask>
<g mask="url(#mask0)">
</g>
</g>
</svg>
