<?xml version="1.0" encoding="UTF-8"?>
<svg width="15px" height="21px" viewBox="0 0 15 21" version="1.1" xmlns="http://www.w3.org/2000/svg" xmlns:xlink="http://www.w3.org/1999/xlink">
    <!-- Generator: Sketch 53.2 (72643) - https://sketchapp.com -->
    <title>Combined Shape</title>
    <desc>Created with Sketch.</desc>
    <g id="Page-1" stroke="none" stroke-width="1" fill="none" fill-rule="evenodd">
        <g id="Landing-page-v3" transform="translate(-1254.000000, -12.000000)" fill="#979797" fill-rule="nonzero">
            <path d="M1258.67441,20.2046819 C1258.559,20.5965125 1258.32663,20.7924278 1257.97733,20.7924278 C1257.62802,20.7924278 1257.40412,20.5965125 1257.30562,20.2046819 C1257.30562,18.7978706 1257.30562,17.3688336 1257.30562,15.9175709 C1257.30821,15.8958924 1257.30393,16.0031854 1257.30562,15.9817755 C1257.3447,15.4877832 1257.4221,15.0741818 1257.53783,14.7409713 C1257.8597,13.7260673 1259.18097,12 1261.1936,12 C1263.20623,12 1264.99331,13.2653347 1265.31832,15.7324181 L1265.31832,20.2046819 C1265.26377,20.5965125 1265.06139,20.7924278 1264.71118,20.7924278 C1264.18587,20.7924278 1263.9619,20.2317911 1263.9619,20.2046819 C1263.9619,19.3658125 1263.9619,17.958177 1263.9619,15.9817755 C1263.71841,14.362528 1262.5975,13.3231659 1261.21764,13.3937766 C1259.83778,13.4643873 1258.8814,14.5332788 1258.67441,15.9817755 L1258.67441,20.2046819 Z M1254,17.6963045 C1254,17.4201621 1254.34506,17.0959066 1254.62121,17.0959066 L1267.83027,17.0959066 C1268.10641,17.0959066 1268.44215,17.4201621 1268.44215,17.6963045 L1268.44215,30.043585 C1268.38967,31.3951067 1267.49296,32.3570082 1266.13289,32.4872327 L1256.45131,32.4872327 C1255.29577,32.4872327 1254.07743,31.6449901 1254,30.1166836 L1254,17.6963045 Z M1255.33801,29.9508687 C1255.37411,30.4192024 1255.64365,31.084781 1256.45131,31.084781 C1259.20029,31.084781 1258.74886,31.0831837 1265.87055,31.084781 C1266.80821,31.084781 1267.118,30.3826904 1267.08621,29.7694659 L1267.08621,18.4763995 L1255.33801,18.4763995 L1255.33801,29.9508687 Z" id="Combined-Shape"></path>
        </g>
    </g>
</svg>