<?xml version="1.0" encoding="UTF-8"?>
<svg width="65px" height="24px" viewBox="0 0 65 24" version="1.1" xmlns="http://www.w3.org/2000/svg" xmlns:xlink="http://www.w3.org/1999/xlink">
    <!-- Generator: Sketch 55.2 (78181) - https://sketchapp.com -->
    <title>COD</title>
    <desc>Created with Sketch.</desc>
    <g id="Page-1" stroke="none" stroke-width="1" fill="none" fill-rule="evenodd">
        <g id="My-Orders" transform="translate(-562.000000, -1643.000000)" fill="#6B6C6E" fill-rule="nonzero">
            <g id="Group-26" transform="translate(0.000000, 1618.000000)">
                <g id="COD" transform="translate(562.000000, 25.000000)">
                    <path d="M14.221946,5.82244318 L13.5010653,8.36612216 L11.3178267,8.36612216 C11.1049942,9.75296621 10.4733717,10.9097965 9.42294034,11.8366477 C8.37250895,12.763499 6.79002004,13.2921395 4.67542614,13.4225852 L11.4105114,21.6715199 L11.4105114,21.8465909 L7.65163352,21.8465909 L0.278053977,12.8973722 L0.257457386,10.8892045 L3.91335227,10.8892045 C6.22018199,10.8892045 7.59327432,10.0481855 8.03267045,8.36612216 L1.02318154e-12,8.36612216 L0.720880682,5.82244318 L7.95028409,5.82244318 C7.71685489,5.09469333 7.26716716,4.52486001 6.60120739,4.11292614 C5.93524762,3.70099226 5.03930487,3.49502841 3.91335227,3.49502841 L1.02318154e-12,3.49502841 L0.751775568,0.755681818 L14.2322443,0.755681818 L13.5010653,3.31995739 L10.2571023,3.2993608 C10.7857507,4.01337952 11.1324566,4.85439857 11.2972301,5.82244318 L14.221946,5.82244318 Z" id="₹"></path>
                    <path d="M24.5628551,3.17471591 L22.6963778,3.17471591 C22.6253548,2.69459987 22.4208113,2.31747296 22.0827415,2.04332386 C21.7446716,1.76917477 21.3228008,1.63210227 20.8171165,1.63210227 C20.1409767,1.63210227 19.5990787,1.87996911 19.1914063,2.37571023 C18.7837338,2.87145134 18.5799006,3.57385909 18.5799006,4.48295455 C18.5799006,5.41477739 18.7851542,6.1228669 19.1956676,6.60724432 C19.606181,7.09162174 20.1423973,7.33380682 20.8043324,7.33380682 C21.2958121,7.33380682 21.7120011,7.20525697 22.0529119,6.94815341 C22.3938227,6.69104985 22.6083092,6.32954778 22.6963778,5.86363636 L24.5628551,5.87215909 C24.4975139,6.40625267 24.3071749,6.90908855 23.9918324,7.38068182 C23.6764899,7.85227509 23.2482271,8.23437354 22.7070313,8.52698864 C22.1658354,8.81960374 21.5216657,8.96590909 20.7745028,8.96590909 C19.9960899,8.96590909 19.3007843,8.78977449 18.6885653,8.4375 C18.0763464,8.08522551 17.5933967,7.57528743 17.2397017,6.90767045 C16.8860068,6.24005348 16.7091619,5.43182293 16.7091619,4.48295455 C16.7091619,3.53124524 16.8881374,2.72159425 17.2460938,2.05397727 C17.6040501,1.3863603 18.0898407,0.877132436 18.7034801,0.526278409 C19.3171195,0.175424382 20.0074536,-2.27373675e-13 20.7745028,-2.27373675e-13 C21.4478017,-2.27373675e-13 22.0550399,0.12428853 22.5962358,0.372869318 C23.1374317,0.621450107 23.5806091,0.982241953 23.9257813,1.45525568 C24.2709534,1.92826941 24.4833093,2.50141709 24.5628551,3.17471591 Z M27.7205256,8.97017045 C27.0955224,8.97017045 26.5770617,8.80681982 26.1651278,8.48011364 C25.753194,8.15340746 25.5472301,7.66619642 25.5472301,7.01846591 C25.5472301,6.5298271 25.6622858,6.14630821 25.8924006,5.86789773 C26.1225154,5.58948724 26.4243589,5.38565406 26.7979403,5.25639205 C27.1715218,5.12713004 27.5742166,5.04261384 28.0060369,5.00284091 C28.5742216,4.94602244 28.9804675,4.88636395 29.2247869,4.82386364 C29.4691063,4.76136332 29.5912642,4.62500105 29.5912642,4.41477273 L29.5912642,4.38920455 C29.5912642,4.11931683 29.506748,3.9105121 29.3377131,3.76278409 C29.1686781,3.61505608 28.9293339,3.54119318 28.6196733,3.54119318 C28.2929671,3.54119318 28.0330265,3.6122152 27.8398438,3.75426136 C27.646661,3.89630753 27.5188213,4.07670345 27.456321,4.29545455 L25.7773438,4.15909091 C25.9023444,3.56249702 26.2127106,3.08949038 26.7084517,2.74005682 C27.2041928,2.39062325 27.8441012,2.21590909 28.628196,2.21590909 C29.1139939,2.21590909 29.5685348,2.29261287 29.9918324,2.44602273 C30.41513,2.59943259 30.7567459,2.83877678 31.0166903,3.1640625 C31.2766348,3.48934822 31.4066051,3.91192922 31.4066051,4.43181818 L31.4066051,8.84659091 L29.6850142,8.84659091 L29.6850142,7.93892045 L29.6338778,7.93892045 C29.4747861,8.24289925 29.2368624,8.49076609 28.9200994,8.68252841 C28.6033365,8.87429073 28.2034825,8.97017045 27.7205256,8.97017045 Z M28.2404119,7.71732955 C28.6381412,7.71732955 28.9648425,7.60156366 29.2205256,7.37002841 C29.4762087,7.13849316 29.6040483,6.85085399 29.6040483,6.50710227 L29.6040483,5.8125 C29.5330252,5.8607957 29.4229411,5.90340891 29.2737926,5.94034091 C29.1246441,5.97727291 28.9655548,6.00923282 28.7965199,6.03622159 C28.627485,6.06321036 28.4762081,6.08664763 28.3426847,6.10653409 C28.0245013,6.15198886 27.7681118,6.24147661 27.5735085,6.375 C27.3789053,6.50852339 27.2816051,6.70312372 27.2816051,6.95880682 C27.2816051,7.20880807 27.3718031,7.39772663 27.5522017,7.52556818 C27.7326003,7.65340973 27.9620014,7.71732955 28.2404119,7.71732955 Z M38.2631392,4.16761364 L36.6012074,4.26988636 C36.5557526,4.05965804 36.4406969,3.87926212 36.2560369,3.72869318 C36.0713769,3.57812425 35.8213794,3.50284091 35.5060369,3.50284091 C35.2247855,3.50284091 34.9868618,3.56178918 34.7922585,3.6796875 C34.5976553,3.79758582 34.5017756,3.95454447 34.5046165,4.15056818 C34.5017756,4.30681896 34.5635647,4.43891991 34.6899858,4.546875 C34.8164069,4.65483009 35.0316036,4.74147695 35.3355824,4.80681818 L36.5202415,5.04545455 C37.7787705,5.30397857 38.409446,5.89488175 38.4122869,6.81818182 C38.4122869,7.24716124 38.286578,7.62357793 38.0351563,7.94744318 C37.7837345,8.27130844 37.4392778,8.5234366 37.0017756,8.70383523 C36.5642734,8.88423386 36.0628579,8.97443182 35.4975142,8.97443182 C34.6310326,8.97443182 33.9406986,8.79332567 33.4264915,8.43110795 C32.9122844,8.06889023 32.6125714,7.57528722 32.5273438,6.95028409 L34.3128551,6.85653409 C34.3696736,7.12358088 34.5010643,7.32528341 34.7070313,7.46164773 C34.9129982,7.59801205 35.1779103,7.66619318 35.5017756,7.66619318 C35.819959,7.66619318 36.0763485,7.60369381 36.2709517,7.47869318 C36.465555,7.35369256 36.5642756,7.19460324 36.5671165,7.00142045 C36.5585937,6.6775552 36.278767,6.46022783 35.7276278,6.34943182 L34.5941051,6.12357955 C33.3270533,5.87073737 32.6963778,5.24716406 32.7020597,4.25284091 C32.6992187,3.62215594 32.9513469,3.12500182 33.4584517,2.76136364 C33.9655565,2.39772545 34.638135,2.21590909 35.4762074,2.21590909 C36.3029161,2.21590909 36.954188,2.39062325 37.4300426,2.74005682 C37.9058973,3.08949038 38.1835934,3.5653379 38.2631392,4.16761364 Z M41.3739347,5.0625 L41.3739347,8.84659091 L39.5585938,8.84659091 L39.5585938,0.119318182 L41.3227983,0.119318182 L41.3227983,3.45596591 L41.3995028,3.45596591 C41.5500718,3.06960034 41.789416,2.76633633 42.1175426,2.54616477 C42.4456693,2.32599322 42.8583072,2.21590909 43.3554688,2.21590909 C44.0372903,2.21590909 44.5855803,2.4346569 45.0003551,2.87215909 C45.4151299,3.30966128 45.6210938,3.91192798 45.6183102,4.67897727 L45.6183102,8.84659091 L43.8029119,8.84659091 L43.8029119,5.00284091 C43.8057529,4.5994298 43.7041914,4.28551249 43.4982244,4.06107955 C43.2922575,3.83664661 43.0046183,3.72443182 42.6352983,3.72443182 C42.2659783,3.72443182 41.9641347,3.84161815 41.7297585,4.07599432 C41.4953824,4.31037049 41.3767756,4.63920243 41.3739347,5.0625 Z M52.7901278,8.97443182 C52.1281927,8.97443182 51.5564655,8.833098 51.074929,8.55042614 C50.5933925,8.26775427 50.2219473,7.87287185 49.9605824,7.36576705 C49.6992174,6.85866224 49.5685369,6.26988972 49.5685369,5.59943182 C49.5685369,4.92329207 49.6992174,4.33167867 49.9605824,3.82457386 C50.2219473,3.31746906 50.5933925,2.92258664 51.074929,2.63991477 C51.5564655,2.3572429 52.1281927,2.21590909 52.7901278,2.21590909 C53.452063,2.21590909 54.0237902,2.3572429 54.5053267,2.63991477 C54.9868632,2.92258664 55.3583084,3.31746906 55.6196733,3.82457386 C55.8810382,4.33167867 56.0117188,4.92329207 56.0117188,5.59943182 C56.0117188,6.26988972 55.8810382,6.85866224 55.6196733,7.36576705 C55.3583084,7.87287185 54.9868632,8.26775427 54.5053267,8.55042614 C54.0237902,8.833098 53.452063,8.97443182 52.7901278,8.97443182 Z M52.7986506,7.56818182 C53.2475164,7.56818182 53.5877119,7.38068369 53.8192472,7.00568182 C54.0507824,6.63067994 54.1665483,6.15767331 54.1665483,5.58664773 C54.1665483,5.01562214 54.0507824,4.54190529 53.8192472,4.16548295 C53.5877119,3.78906062 53.2475164,3.60085227 52.7986506,3.60085227 C52.3412619,3.60085227 51.9960949,3.78906062 51.7631392,4.16548295 C51.5301835,4.54190529 51.4137074,5.01562214 51.4137074,5.58664773 C51.4137074,6.15767331 51.5301835,6.63067994 51.7631392,7.00568182 C51.9960949,7.38068369 52.3412619,7.56818182 52.7986506,7.56818182 Z M59.0117188,5.0625 L59.0117188,8.84659091 L57.1963778,8.84659091 L57.1963778,2.30113636 L58.9264915,2.30113636 L58.9264915,3.45596591 L59.003196,3.45596591 C59.150924,3.07528219 59.3945296,2.77343862 59.7340199,2.55042614 C60.0735102,2.32741366 60.4861481,2.21590909 60.971946,2.21590909 C61.6537676,2.21590909 62.2006371,2.43536712 62.612571,2.87428977 C63.0245049,3.31321242 63.2304688,3.91476891 63.2304688,4.67897727 L63.2304688,8.84659091 L61.4151278,8.84659091 L61.4151278,5.00284091 C61.4179688,4.60227072 61.3156971,4.28906363 61.1083097,4.06321023 C60.9009223,3.83735683 60.6154138,3.72443182 60.2517756,3.72443182 C59.8852965,3.72443182 59.5877142,3.84161815 59.3590199,4.07599432 C59.1303256,4.31037049 59.0145597,4.63920243 59.0117188,5.0625 Z M19.956321,20.8465909 L16.862571,20.8465909 L16.862571,12.1193182 L19.9818892,12.1193182 C20.8597345,12.1193182 21.616119,12.2933221 22.2510653,12.6413352 C22.8860117,12.9893483 23.373933,13.4886331 23.7148438,14.1392045 C24.0557545,14.789776 24.2262074,15.5681773 24.2262074,16.4744318 C24.2262074,17.3835273 24.0550443,18.1647695 23.7127131,18.8181818 C23.3703818,19.4715942 22.8803299,19.9730096 22.2425426,20.3224432 C21.6047553,20.6718767 20.8426891,20.8465909 19.956321,20.8465909 Z M18.7077415,19.265625 L19.8796165,19.265625 C20.7006433,19.265625 21.3235064,19.0440363 21.7482244,18.6008523 C22.1729425,18.1576682 22.3852983,17.4488685 22.3852983,16.4744318 C22.3852983,15.505677 22.1729425,14.8011386 21.7482244,14.3607955 C21.3235064,13.9204523 20.7020638,13.7002841 19.8838778,13.7002841 L18.7077415,13.7002841 L18.7077415,19.265625 Z M28.5387074,20.9744318 C27.8682495,20.9744318 27.2901303,20.8373593 26.8043324,20.5632102 C26.3185345,20.2890611 25.9449587,19.8998605 25.6835938,19.3955966 C25.4222288,18.8913327 25.2915483,18.2940375 25.2915483,17.6036932 C25.2915483,16.9303944 25.4222288,16.3394912 25.6835938,15.8309659 C25.9449587,15.3224406 26.313563,14.9261378 26.7894176,14.6420455 C27.2652723,14.3579531 27.8242155,14.2159091 28.4662642,14.2159091 C29.0429716,14.2159091 29.563563,14.338067 30.028054,14.5823864 C30.4925449,14.8267058 30.8611492,15.19531 31.1338778,15.6882102 C31.4066065,16.1811104 31.5429688,16.7982917 31.5429688,17.5397727 L31.5429688,18.0383523 L27.0855824,18.0383523 L27.0855824,18.0426136 C27.0855824,18.5312524 27.2191038,18.9161918 27.4861506,19.1974432 C27.7531974,19.4786946 28.1139892,19.6193182 28.5685369,19.6193182 C28.8725157,19.6193182 29.1352972,19.5553984 29.3568892,19.4275568 C29.5784812,19.2997153 29.7347297,19.1107967 29.8256392,18.8607955 L31.5046165,18.9715909 C31.3767749,19.5795485 31.0529145,20.0653391 30.5330256,20.4289773 C30.0131366,20.7926155 29.3483705,20.9744318 28.5387074,20.9744318 Z M27.0855824,16.9133523 L29.8341619,16.9133523 C29.831321,16.5241458 29.7063223,16.2031263 29.4591619,15.9502841 C29.2120016,15.6974419 28.8909821,15.5710227 28.4960938,15.5710227 C28.0926826,15.5710227 27.76172,15.7017032 27.503196,15.9630682 C27.244672,16.2244331 27.1054688,16.5411913 27.0855824,16.9133523 Z M34.5429688,12.1193182 L34.5429688,20.8465909 L32.7276278,20.8465909 L32.7276278,12.1193182 L34.5429688,12.1193182 Z M35.9918324,20.8465909 L35.9918324,14.3011364 L37.8071733,14.3011364 L37.8071733,20.8465909 L35.9918324,20.8465909 Z M36.9037642,13.4829545 C36.6367174,13.4829545 36.4066061,13.3899157 36.2134233,13.2038352 C36.0202405,13.0177548 35.9236506,12.792615 35.9236506,12.5284091 C35.9236506,12.2642032 36.0202405,12.0383532 36.2134233,11.8508523 C36.4066061,11.6633513 36.6367174,11.5696023 36.9037642,11.5696023 C37.1736519,11.5696023 37.4051837,11.6633513 37.5983665,11.8508523 C37.7915493,12.0383532 37.8881392,12.2642032 37.8881392,12.5284091 C37.8881392,12.792615 37.7915493,13.0177548 37.5983665,13.2038352 C37.4051837,13.3899157 37.1736519,13.4829545 36.9037642,13.4829545 Z M45.3583097,14.3011364 L43.0699574,20.8465909 L41.0245028,20.8465909 L38.7361506,14.3011364 L40.6537642,14.3011364 L42.0131392,18.984375 L42.081321,18.984375 L43.4364347,14.3011364 L45.3583097,14.3011364 Z M49.2702415,20.9744318 C48.5997836,20.9744318 48.0216644,20.8373593 47.5358665,20.5632102 C47.0500686,20.2890611 46.6764928,19.8998605 46.4151278,19.3955966 C46.1537629,18.8913327 46.0230824,18.2940375 46.0230824,17.6036932 C46.0230824,16.9303944 46.1537629,16.3394912 46.4151278,15.8309659 C46.6764928,15.3224406 47.0450971,14.9261378 47.5209517,14.6420455 C47.9968064,14.3579531 48.5557496,14.2159091 49.1977983,14.2159091 C49.7745057,14.2159091 50.2950971,14.338067 50.7595881,14.5823864 C51.224079,14.8267058 51.5926833,15.19531 51.8654119,15.6882102 C52.1381406,16.1811104 52.2745028,16.7982917 52.2745028,17.5397727 L52.2745028,18.0383523 L47.8171165,18.0383523 L47.8171165,18.0426136 C47.8171165,18.5312524 47.9506379,18.9161918 48.2176847,19.1974432 C48.4847314,19.4786946 48.8455233,19.6193182 49.300071,19.6193182 C49.6040498,19.6193182 49.8668313,19.5553984 50.0884233,19.4275568 C50.3100153,19.2997153 50.4662637,19.1107967 50.5571733,18.8607955 L52.2361506,18.9715909 C52.108309,19.5795485 51.7844486,20.0653391 51.2645597,20.4289773 C50.7446707,20.7926155 50.0799046,20.9744318 49.2702415,20.9744318 Z M47.8171165,16.9133523 L50.565696,16.9133523 C50.5628551,16.5241458 50.4378563,16.2031263 50.190696,15.9502841 C49.9435357,15.6974419 49.6225162,15.5710227 49.2276278,15.5710227 C48.8242167,15.5710227 48.4932541,15.7017032 48.2347301,15.9630682 C47.9762061,16.2244331 47.8370029,16.5411913 47.8171165,16.9133523 Z M53.4591619,20.8465909 L53.4591619,14.3011364 L55.2191051,14.3011364 L55.2191051,15.4431818 L55.2872869,15.4431818 C55.4066057,15.0369298 55.6061776,14.7294045 55.8860085,14.5205966 C56.1658395,14.3117887 56.4904101,14.2073864 56.8597301,14.2073864 C57.0358674,14.2073864 57.199218,14.228693 57.3497869,14.2713068 C57.5003559,14.3139207 57.6352977,14.3721587 57.7546165,14.4460227 L57.2091619,15.9460227 C57.1239342,15.9034089 57.0308954,15.8671876 56.9300426,15.837358 C56.8291898,15.8075283 56.7162648,15.7926136 56.5912642,15.7926136 C56.2247851,15.7926136 55.9144189,15.9176124 55.6601563,16.1676136 C55.4058936,16.4176149 55.2773438,16.7428957 55.2745028,17.1434659 L55.2745028,20.8465909 L53.4591619,20.8465909 Z M59.659446,23.3948864 C59.400922,23.3948864 59.1800435,23.3728695 58.996804,23.3288352 C58.8135644,23.2848009 58.6708102,23.240057 58.5685369,23.1946023 L58.9776278,21.7883523 C59.2986522,21.8849437 59.5692461,21.9105116 59.7894176,21.8650568 C60.0095892,21.819602 60.1835931,21.6477288 60.3114347,21.3494318 L60.4307528,21.0340909 L58.0827415,14.3011364 L59.9918324,14.3011364 L61.346946,19.1079545 L61.4151278,19.1079545 L62.7830256,14.3011364 L64.7049006,14.3011364 L62.1480824,21.5965909 C61.9634224,22.1193208 61.668681,22.5497142 61.2638494,22.8877841 C60.8590179,23.225854 60.3242221,23.3948864 59.659446,23.3948864 Z" id="CashonDelivery"></path>
                </g>
            </g>
        </g>
    </g>
</svg>