<?xml version="1.0" encoding="UTF-8"?>
<svg width="326px" height="285px" viewBox="0 0 326 285" version="1.1" xmlns="http://www.w3.org/2000/svg" xmlns:xlink="http://www.w3.org/1999/xlink">
    <!-- Generator: Sketch 63.1 (92452) - https://sketch.com -->
    <title>deliveryguy</title>
    <desc>Created with Sketch.</desc>
    <defs>
        <path d="M13.9327992,4.4408921e-15 C13.9327992,4.4408921e-15 24.7999985,1.13359993 27.5999984,5.13359969 C29.4911982,7.83519953 27.1999984,11.1335993 24.3999985,11.7335993 C21.5999987,12.3335993 -5.17452747e-12,9.33359944 -5.17452747e-12,9.33359944 L1.39999992,2.13359987" id="path-1"></path>
        <path d="M12.9551992,0.625599963 C12.9551992,0.625599963 25.5551985,2.22559987 28.3551983,6.22559963 C30.2463982,8.92719947 27.9551983,12.2247993 25.1551985,12.8255992 C22.3551987,13.4255992 0.755199955,10.4255994 0.755199955,10.4255994 L2.42159986,1.35839992 L12.9551992,0.625599963" id="path-3"></path>
        <path d="M14.9919991,30.8911982 C8.3703995,28.9263983 4.59599973,21.9655987 6.56159961,15.3439991 C8.52719949,8.72319948 15.4879991,4.94879971 22.1087987,6.91439959 C28.7303983,8.87919947 32.5039981,15.8399991 30.5391982,22.4615987 C28.5735983,29.0823983 21.6127987,32.856798 14.9919991,30.8911982 M36.0543979,24.0975986 C38.9239977,14.4311991 33.413598,4.26879975 23.7471986,1.39919992 C14.0807992,-1.46959991 3.91839977,4.04079976 1.04879994,13.7071992 C-1.81999989,23.3735986 3.69039978,33.535198 13.3567992,36.4047978 C23.0231986,39.2743977 33.185598,33.763998 36.0543979,24.0975986" id="path-5"></path>
        <path d="M21.3479987,43.4263974 C11.9087993,40.6247976 6.52799961,30.7015982 9.32959944,21.2623987 C12.1319993,11.8231993 22.0551987,6.44239962 31.4943981,9.24399945 C40.9335976,12.0455993 46.3143972,21.9687987 43.5119974,31.4079981 C40.7103976,40.8471976 30.7871982,46.2279972 21.3479987,43.4263974 M51.3351969,33.458398 C55.3983967,19.7711988 47.5951972,5.38159968 33.907998,1.31839992 C20.2207988,-2.74399984 5.83119965,5.0583997 1.76879989,18.7455989 C-2.29439986,32.4335981 5.50799967,46.8223972 19.1959989,50.885597 C32.883198,54.9479967 47.2727972,47.1455972 51.3351969,33.458398" id="path-7"></path>
        <path d="M5.22879969,4.56079973 C4.33439974,5.63679966 2.73679984,5.78399966 1.6615999,4.88879971 C0.585599965,3.99439976 0.438399974,2.39679986 1.33359992,1.32159992 C2.22799987,0.245599985 3.82559977,0.0991999941 4.90079971,0.993599941 C5.97679964,1.88799989 6.12319964,3.48559979 5.22879969,4.56079973" id="path-9"></path>
        <path d="M23.4895986,30.3999982 C17.142399,33.123198 9.78959942,30.1847982 7.06639958,23.8367986 C4.34399974,17.489599 7.28239957,10.1367994 13.6295992,7.41439956 C19.9767988,4.69119972 27.3295984,7.62959955 30.0527982,13.9775992 C32.775198,20.3247988 29.8367982,27.6775984 23.4895986,30.3999982 M35.3391979,11.7079993 C31.3639981,2.44159985 20.6295988,-1.84799989 11.3631993,2.12719987 C2.09599988,6.10239964 -2.19359987,16.836799 1.78159989,26.1031984 C5.75679966,35.3695979 16.491199,39.6599976 25.7575985,35.6847979 C35.0247979,31.7095981 39.3143977,20.9751987 35.3391979,11.7079993" id="path-11"></path>
        <path d="M33.636798,42.7527975 C24.5879985,46.6343972 14.1063992,42.4455975 10.2247994,33.396798 C6.34319962,24.3479985 10.5319994,13.8655992 19.5807988,9.9839994 C28.6295983,6.10239964 39.1119977,10.2911994 42.9935974,19.3399988 C46.8751972,28.3887983 42.6863975,38.8711977 33.636798,42.7527975 M50.318397,15.9143991 C44.6903973,2.79279983 29.4903982,-3.2815998 16.368799,2.34719986 C3.24719981,7.97599952 -2.82639983,23.1759986 2.80159983,36.2975978 C8.4303995,49.4183971 23.6303986,55.4927967 36.7519978,49.863997 C49.873597,44.2351974 55.9471967,29.0351983 50.318397,15.9143991" id="path-13"></path>
        <path d="M56.6199966,49.0023971 L5.40479968,49.0023971 C2.75839984,49.0023971 0.612799963,46.8567972 0.612799963,44.2103974 L0.612799963,4.9951997 C0.612799963,2.34879986 2.75839984,0.202399988 5.40479968,0.202399988 L56.6199966,0.202399988 C59.2671965,0.202399988 61.4127963,2.34879986 61.4127963,4.9951997 L61.4127963,44.2103974 C61.4127963,46.8567972 59.2671965,49.0023971 56.6199966,49.0023971 L56.6199966,49.0023971 Z" id="path-15"></path>
        <path d="M18.6647989,10.3447994 C18.6647989,15.6511991 14.5047991,19.9535988 9.37199944,19.9535988 C4.23999975,19.9535988 0.0791999953,15.6511991 0.0791999953,10.3447994 C0.0791999953,5.0383997 4.23999975,0.735999956 9.37199944,0.735999956 C14.5047991,0.735999956 18.6647989,5.0383997 18.6647989,10.3447994" id="path-17"></path>
        <path d="M135.012792,13.8023992 C135.012792,13.8023992 139.014392,-3.48159979 114.412793,0.991999941 C106.528794,2.42479986 102.339994,10.0815994 113.222393,13.3471992 C115.179993,13.9343992 119.812793,12.7359992 122.212793,16.469599 C123.816793,18.9647989 122.212793,16.469599 122.212793,16.469599 L143.012791,56.4695966 C146.430391,63.6591962 149.828791,73.5791956 145.412791,80.2023952 C141.855192,85.5383949 133.424792,102.495994 127.012792,102.602394 L99.3703941,103.216794 C91.7063945,103.387194 84.662395,98.5687941 82.4647951,91.2247946 C81.6063951,88.3559947 81.6911951,85.9375949 81.7815951,83.898395 L87.1295948,64.4895962 C88.2831947,60.3007964 85.1623949,56.1535967 80.8175952,56.1031967 L31.8127981,57.0023966 C20.6815988,60.1191964 -1.00159994,73.7279956 0.212799987,93.4023944 C0.863999949,103.949594 8.4631995,103.796794 14.9095991,103.644794 C17.152799,103.591194 19.2567989,103.538394 20.8791988,103.935994 C41.0791976,108.885594 58.7743965,112.020793 67.538396,114.739993 C74.6167956,116.936793 82.0031951,117.979193 89.4127947,117.802393 L132.612792,116.202393 C139.919192,116.028793 147.288791,106.592794 152.152791,101.137594 C157.753591,94.8567943 168.53119,85.9783949 170.21279,71.4023957 C172.61279,50.602397 135.012792,13.8023992 135.012792,13.8023992" id="path-19"></path>
        <path d="M127.599992,256.263185 C132.176792,255.891985 136.153592,252.931985 137.767192,248.633585 C141.381592,239.009586 145.162391,222.547187 129.788792,220.550387 C107.898394,217.707187 78.2703953,233.107186 76.6271954,248.279185 C75.3631955,259.948785 113.219993,257.431185 127.599992,256.263185" id="path-21"></path>
        <filter x="-1.6%" y="-8.1%" width="103.1%" height="110.8%" filterUnits="objectBoundingBox" id="filter-22">
            <feOffset dx="0" dy="-2" in="SourceAlpha" result="shadowOffsetOuter1"></feOffset>
            <feColorMatrix values="0 0 0 0 0.933333333   0 0 0 0 0.654901961   0 0 0 0 0.0117647059  0 0 0 1 0" type="matrix" in="shadowOffsetOuter1"></feColorMatrix>
        </filter>
        <path d="M42.9031974,11.7119993 L5.99839964,11.7119993 C2.80879983,11.7119993 0.198399988,9.10239946 0.198399988,5.91199965 C0.198399988,2.72239984 2.80879983,0.111999993 5.99839964,0.111999993 L42.9031974,0.111999993 C46.0935973,0.111999993 48.7031971,2.72239984 48.7031971,5.91199965 C48.7031971,9.10239946 46.0935973,11.7119993 42.9031974,11.7119993" id="path-23"></path>
        <path d="M17.527999,18.9615989 C17.527999,21.6943987 14.9791991,23.7183986 12.3183993,23.0951986 C5.61039967,21.5247987 0.763999954,17.002399 0.763999954,11.6695993 C0.763999954,6.33599962 5.61039967,1.81439989 12.3183993,0.243199986 C14.9791991,-0.379999977 17.527999,1.6439999 17.527999,4.37679974 L17.527999,18.9615989" id="path-25"></path>
        <path d="M5.67919966,3.26959981 C5.67919966,4.66879972 4.54479973,5.80239965 3.14639981,5.80239965 C1.7471999,5.80239965 0.612799963,4.66879972 0.612799963,3.26959981 C0.612799963,1.87039989 1.7471999,0.735999956 3.14639981,0.735999956 C4.54479973,0.735999956 5.67919966,1.87039989 5.67919966,3.26959981" id="path-27"></path>
        <path d="M10.1127994,6.20239963 C10.1127994,9.44319944 7.91119953,12.0695993 5.19599969,12.0695993 C2.48079985,12.0695993 0.279199983,9.44319944 0.279199983,6.20239963 C0.279199983,2.96239982 2.48079985,0.33599998 5.19599969,0.33599998 C7.91119953,0.33599998 10.1127994,2.96239982 10.1127994,6.20239963" id="path-29"></path>
        <path d="M2.46079985,75.4047955 C-0.189599989,74.8151955 0.487999971,70.3399958 0.555199967,67.625596 C0.779199954,58.5079965 2.75919984,30.3039982 11.0159993,16.254399 C12.5511993,13.6415992 14.2943991,11.4103993 18.1495989,10.0575994 C20.4103988,9.26479945 21.1895987,4.00079976 22.1439987,0.569599966 L36.0215979,7.62559955 C36.0215979,7.62559955 32.4215981,12.1583993 35.4879979,16.425599 C36.4511978,17.7647989 36.2791978,42.5263975 36.2791978,42.5263975 C36.2791978,42.5263975 40.1135976,61.9207963 36.5551978,74.0255956 C35.9839979,75.9671955 33.933598,78.5167953 31.9447981,78.1367953 L2.46079985,75.4047955" id="path-31"></path>
        <path d="M0.821599951,6.6919996 C-0.645599962,11.5711993 0.511999969,14.0903992 1.23839993,19.1335989 L4.46719973,36.3047978 C5.34959968,45.6335973 10.1583994,46.9807972 18.3503989,48.1183971 L47.4879972,49.625597 L52.9551968,44.3583974 L54.0215968,44.1583974 C18.0791989,38.8703977 16.223999,37.7679977 16.153599,31.3223981 C16.141599,30.1511982 16.179999,28.9799983 16.244799,27.8103983 L16.642399,20.6279988 C16.387199,17.375199 16.263199,14.1119992 16.350399,10.8503994 C16.482399,5.90559965 15.5383991,3.97199976 9.08799946,1.35839992 C5.23359969,-0.203199988 2.44959985,1.27599992 0.821599951,6.6919996" id="path-33"></path>
        <path d="M54.5551967,29.2255983 L44.0159974,29.2007983 C34.8199979,29.1799983 26.2919984,38.5423977 26.3207984,47.7383972 L26.3303984,50.607197 C26.3463984,55.4775967 21.3799987,58.7839965 16.895199,56.8831966 C10.3151994,54.0943968 2.44559985,48.5591971 0.83599995,37.8223977 C-2.17679987,17.7255989 12.6527992,1.05839994 27.1351984,0.630399962 C45.6943973,0.0815999951 57.4999966,11.1751993 57.9223965,25.7879985 C57.9775965,27.6751984 56.4423966,29.2295983 54.5551967,29.2255983" id="path-35"></path>
        <path d="M0.49999997,4.49919973 C0.49999997,4.49919973 18.3607989,2.97519982 18.5719989,0.986399941 C18.7623989,-0.811999952 22.8895986,8.3295995 18.8767989,16.129599 C18.1199989,17.601599 16.507999,18.4327989 14.8695991,18.1911989 L2.65759984,16.392799 L0.49999997,4.49919973" id="path-37"></path>
    </defs>
    <g id="Page-1" stroke="none" stroke-width="1" fill="none" fill-rule="evenodd">
        <g id="Enter-Pincode" transform="translate(-557.000000, -143.000000)">
            <g id="deliveryguy" transform="translate(557.000000, 143.000000)">
                <path d="M325.976781,191.855189 C325.976781,281.754383 251.820785,280.488934 161.92159,280.488934 C72.0223957,280.488934 0.423199975,281.754383 0.423199975,191.855189 C0.423199975,101.955994 55.6639967,2.48159985 156.072791,0.50079997 C274.040784,-1.82639989 325.976781,101.955994 325.976781,191.855189" id="Fill-4" fill="#D0EDFF" opacity="0.400000006"></path>
                <g id="Group-7" transform="translate(39.000000, 86.000000)" fill="#ABDCFF" opacity="0.200000003">
                    <path d="M13.5127969,185.631984 C9.00159714,184.194384 4.73279739,182.523984 0.722397632,180.581584 C12.070397,182.287184 24.3263962,183.216784 37.2967955,183.723184 C27.884796,184.179184 19.8671965,184.796784 13.5127969,185.631984 M236.339184,184.702384 C232.560784,184.418384 228.487184,184.170384 224.146384,183.952784 C228.052784,179.303184 230.222384,173.381585 230.219184,167.280785 C230.218384,166.282385 230.159984,165.279185 230.040784,164.276785 C250.779183,150.748786 263.079182,128.097587 263.079182,90.1783895 C263.079182,60.6663913 257.863982,29.7487931 246.996783,1.1831948 L257.143982,1.1831948 C258.194382,1.1831948 259.219182,1.05919481 260.201582,0.823994825 C260.765582,0.688794833 261.315982,0.517594843 261.850382,0.311994855 C278.895181,32.7399929 286.976781,70.3759907 286.976781,105.855189 C286.976781,151.956786 267.464782,174.084784 236.339184,184.702384 M183.646387,182.783984 C177.208787,182.689584 170.543988,182.622384 163.699988,182.575184 C170.049588,182.046384 176.198387,181.358384 182.103987,180.463184 C182.579987,181.271184 183.095187,182.044784 183.646387,182.783984 M204.365585,179.815984 C204.107186,179.815984 203.849586,179.807984 203.592786,179.791984 L204.985585,175.491984 C205.771985,175.257584 206.555985,175.015184 207.329585,174.767184 L209.983185,178.477584 C209.755985,178.591184 209.525585,178.699184 209.289585,178.799984 C207.682385,179.489584 206.010385,179.815984 204.365585,179.815984 M198.940786,178.578384 C198.338386,178.288784 197.759186,177.951184 197.207986,177.567984 C197.958386,177.389584 198.705586,177.206384 199.445586,177.018384 L198.940786,178.578384 M213.779985,175.535984 L212.067185,173.140785 C213.441585,172.634385 214.794385,172.105585 216.122385,171.552785 C215.598385,173.005585 214.807185,174.359184 213.779985,175.535984" id="Fill-5"></path>
                </g>
                <path d="M127.55519,281.680446 C127.55519,283.116387 117.705457,284.280494 105.55519,284.280494 C93.4049228,284.280494 83.5551898,283.116387 83.5551898,281.680446 C83.5551898,280.244505 92.4121157,280.123473 104.562383,280.123473 C116.71265,280.123473 127.55519,280.244505 127.55519,281.680446" id="Fill-8" fill="#E6E6E7"></path>
                <path d="M268.55519,278.680446 C268.55519,280.116387 258.705457,281.280494 246.55519,281.280494 C234.404923,281.280494 224.55519,280.116387 224.55519,278.680446 C224.55519,277.244505 233.412116,277.123473 245.562383,277.123473 C257.71265,277.123473 268.55519,277.244505 268.55519,278.680446" id="Fill-8-Copy" fill="#E6E6E7"></path>
                <path d="M21.0127987,215.802387 L133.012792,215.802387 C133.895992,215.802387 134.612792,215.086387 134.612792,214.202387 C134.612792,213.319187 133.895992,212.602387 133.012792,212.602387 L21.0127987,212.602387 C20.1287988,212.602387 19.4127988,213.319187 19.4127988,214.202387 C19.4127988,215.086387 20.1287988,215.802387 21.0127987,215.802387" id="Fill-9" fill="#FFFFFE"></path>
                <path d="M46.6127972,230.948786 L158.612791,230.948786 C159.49599,230.948786 160.21279,230.232786 160.21279,229.348786 C160.21279,228.465586 159.49599,227.748786 158.612791,227.748786 L46.6127972,227.748786 C45.7287973,227.748786 45.0127973,228.465586 45.0127973,229.348786 C45.0127973,230.232786 45.7287973,230.948786 46.6127972,230.948786" id="Fill-10" fill="#FFFFFE"></path>
                <path d="M35.3023979,246.095185 L147.302391,246.095185 C148.186391,246.095185 148.902391,245.379185 148.902391,244.495185 C148.902391,243.611985 148.186391,242.895186 147.302391,242.895186 L35.3023979,242.895186 C34.4191979,242.895186 33.702398,243.611985 33.702398,244.495185 C33.702398,245.379185 34.4191979,246.095185 35.3023979,246.095185" id="Fill-11" fill="#FFFFFE"></path>
                <path d="M138.442392,129.314392 C136.781592,129.541592 135.215192,128.495192 134.790392,126.873592 C133.155192,120.623993 130.567992,106.084794 141.475192,104.846394 C152.216791,103.626394 154.666391,117.463193 155.225591,123.859193 C155.378391,125.612793 154.117591,127.173592 152.373591,127.411992 L138.442392,129.314392" id="Fill-12" fill="#D46361"></path>
                <path d="M168.95519,236.025591 L181.755189,236.025591 L190.021589,186.958389 C190.423989,177.697589 184.347189,175.01119 177.525589,173.13279 C173.01839,171.89119 155.109591,167.81199 150.744791,166.13679 L142.021592,162.95839 C128.724792,166.04319 120.555193,158.025591 120.555193,158.025591 C120.555193,158.025591 112.155193,185.091989 124.155193,187.491989 C132.419992,189.144789 158.631991,189.254389 170.69759,189.574389 C171.63039,189.599189 172.34159,190.411989 172.24719,191.340789 L168.95519,236.025591" id="Fill-13" fill="#2585C5"></path>
                <g id="Fill-17" transform="translate(167.955190, 234.691986)">
                    <mask id="mask-2" fill="white">
                        <use xlink:href="#path-1"></use>
                    </mask>
                    <use id="Mask" fill="#973704" xlink:href="#path-1"></use>
                </g>
                <path d="M175.35519,235.025586 C175.35519,235.025586 187.955189,236.625586 190.755189,240.625586 C192.646389,243.327185 190.355189,246.625585 187.555189,247.225585 C184.755189,247.825585 163.15519,244.825585 163.15519,244.825585 L164.82159,235.758386" id="Fill-16" fill="#AE3F04"></path>
                <g id="Group-20" transform="translate(162.399990, 234.399986)">
                    <mask id="mask-4" fill="white">
                        <use xlink:href="#path-3"></use>
                    </mask>
                    <g id="Clip-18"></g>
                    <path d="M-3.24479981,7.02559958 L-0.84479995,6.22559963 C10.5551994,10.0255994 26.4599984,9.62559943 30.5551982,9.62559943 L33.155198,10.0255994 L28.3551983,15.4255991 L-2.24479981,10.0255994 L-3.24479981,7.02559958" id="Fill-19" fill="#762B04" mask="url(#mask-4)"></path>
                </g>
                <path d="M137.064792,110.435193 C135.598392,115.314393 137.845592,121.023993 138.571992,126.066392 L141.800792,143.237591 C142.682391,152.566391 147.491991,153.914391 155.683991,155.051991 L184.821589,156.558391 L190.287989,151.291991 L191.355189,151.091991 C155.411991,145.803991 153.557591,144.700791 153.487191,138.255992 C153.474391,137.084792 153.512791,135.912792 153.577591,134.743192 L153.975991,127.560792 C153.720791,124.308793 150.334391,121.419993 150.421591,118.158393 C150.553591,113.213593 150.687191,105.915194 144.237591,103.301594 C140.382392,101.739994 138.692792,105.019194 137.064792,110.435193" id="Fill-21" fill="#E7B292"></path>
                <path d="M164.82159,235.758386 L175.29839,236.450386 C176.927989,236.450386 177.552789,236.448786 177.823989,234.841586 L185.621589,188.558389 C186.023989,179.297589 179.947189,176.611189 173.12559,174.73279 C168.61839,173.49199 150.709591,169.41199 146.344791,167.73679 L137.621592,164.55839 C124.324793,167.64319 116.155193,159.62479 116.155193,159.62479 C116.155193,159.62479 107.755194,186.691989 119.755193,189.091989 C128.019992,190.744789 154.231991,190.853589 166.29759,191.174389 C167.23039,191.199189 167.94159,192.011989 167.84719,192.940788 L164.82159,235.758386" id="Fill-22" fill="#3796C4"></path>
                <path d="M65.9431961,199.040788 L79.5431953,219.840787 C79.7847952,220.210387 80.2807952,220.314387 80.6503952,220.071987 C81.0199952,219.830387 81.1239952,219.334387 80.8823952,218.964787 L67.282396,198.164788 C67.040796,197.795188 66.544796,197.691188 66.1751961,197.932788 C65.8047961,198.175188 65.7015961,198.670388 65.9431961,199.040788" id="Fill-26" fill="#5B272F"></path>
                <polyline id="Fill-27" fill="#9DA19C" points="95.7607943 267.013584 93.1951944 262.956784 118.212793 247.135985 120.778393 251.192785 95.7607943 267.013584"></polyline>
                <polyline id="Fill-28" fill="#9DA19C" points="92.8959945 251.948785 95.2375943 247.759185 121.077593 262.200784 118.735993 266.390384 92.8959945 251.948785"></polyline>
                <polyline id="Fill-29" fill="#9DA19C" points="105.672794 242.136786 110.459993 242.487186 108.299994 272.012784 103.512794 271.662384 105.672794 242.136786"></polyline>
                <path d="M102.991994,268.491184 C96.3703943,266.526384 92.5959945,259.565585 94.5615944,252.943985 C96.5271942,246.323185 103.487994,242.548786 110.108793,244.514385 C116.730393,246.479185 120.503993,253.439985 118.539193,260.061584 C116.573593,266.682384 109.612793,270.456784 102.991994,268.491184 M124.054393,261.697584 C126.923992,252.031185 121.413593,241.868786 111.747193,238.999186 C102.080794,236.130386 91.9183945,241.640786 89.0487947,251.307185 C86.1799949,260.973584 91.6903945,271.135184 101.356794,274.004784 C111.023193,276.874383 121.185593,271.363984 124.054393,261.697584" id="Fill-30" fill="#929792"></path>
                <g id="Group-33" transform="translate(87.999995, 237.599986)">
                    <mask id="mask-6" fill="white">
                        <use xlink:href="#path-5"></use>
                    </mask>
                    <g id="Clip-32"></g>
                    <path d="M36.4599978,25.0111985 C37.4567978,21.6535987 37.4407978,18.2367989 36.5919978,15.0863991 C36.8791978,17.484799 36.6951978,19.9799988 35.9639979,22.4431987 C33.094398,32.1095981 22.9327986,37.6191978 13.2655992,34.7503979 C6.95679959,32.877598 2.42079986,27.8975983 0.826399951,21.9775987 C1.6663999,28.9919983 6.55919961,35.1807979 13.7623992,37.3191978 C23.4287986,40.1879976 33.591198,34.6775979 36.4599978,25.0111985" id="Fill-31" fill="#898D88" mask="url(#mask-6)"></path>
                </g>
                <path d="M101.347994,273.826384 C91.9087945,271.024784 86.5279948,261.101584 89.3295947,251.662385 C92.1319945,242.223186 102.055194,236.842386 111.494393,239.643986 C120.933593,242.445586 126.314392,252.368785 123.511993,261.807984 C120.710393,271.247184 110.787193,276.627984 101.347994,273.826384 M131.335192,263.858384 C135.398392,250.171185 127.595192,235.781586 113.907993,231.718386 C100.220794,227.655986 85.8311949,235.458386 81.7687951,249.145585 C77.7055954,262.833584 85.5079949,277.222383 99.1959941,281.285583 C112.883193,285.347983 127.272792,277.545583 131.335192,263.858384" id="Fill-34" fill="#0C0A16"></path>
                <g id="Group-37" transform="translate(79.999995, 230.399986)">
                    <mask id="mask-8" fill="white">
                        <use xlink:href="#path-7"></use>
                    </mask>
                    <g id="Clip-36"></g>
                    <path d="M26.5623984,51.9607969 C24.1271986,51.9607969 21.6495987,51.6135969 19.1959989,50.885597 C10.5847994,48.3295971 4.30319974,41.6863975 1.83919989,33.703198 C1.32559992,31.7351981 1.04079994,29.6959982 1.00639994,27.6239984 C2.60159984,37.0399978 9.37119944,45.2063973 19.1439989,48.1071971 C21.5983987,48.8359971 24.0751986,49.1831971 26.5111984,49.1831971 C37.6599978,49.1823971 47.9495971,41.9135975 51.2839969,30.6807982 C51.8983969,28.6095983 52.2399969,26.5231984 52.3319969,24.4583985 C52.3407969,24.4535985 52.3487969,24.4487985 52.3575969,24.4439985 C52.3927969,24.9855985 52.4104024,25.5295985 52.4104024,26.0759984 C52.4119969,28.5167983 52.0655969,30.9991982 51.3351969,33.458398 C48.0007971,44.6919973 37.7119978,51.9615969 26.5623984,51.9607969" id="Fill-35" fill="#0C0A16" mask="url(#mask-8)"></path>
                </g>
                <path d="M111.731193,257.744785 L116.226393,243.214386 C116.915993,241.507186 116.090393,239.564786 114.383993,238.875186 C112.676793,238.185586 110.734393,239.010386 110.044793,240.717586 L103.187994,254.294385 C103.067994,254.495985 102.957594,254.706385 102.866394,254.930385 C101.901594,257.320785 103.055994,260.039985 105.446394,261.005584 C107.835994,261.970384 110.555193,260.815984 111.520793,258.426385 C111.611193,258.201585 111.677593,257.973585 111.731193,257.744785" id="Fill-38" fill="#6A6E6B"></path>
                <path d="M109.228793,258.160785 C108.334394,259.236785 106.736794,259.383985 105.661594,258.488785 C104.585594,257.594385 104.438394,255.996785 105.333594,254.921585 C106.227994,253.845585 107.825594,253.699185 108.900794,254.593585 C109.976793,255.487985 110.123193,257.085585 109.228793,258.160785" id="Fill-39" fill="#616462"></path>
                <g id="Group-42" transform="translate(103.999994, 253.599985)">
                    <mask id="mask-10" fill="white">
                        <use xlink:href="#path-9"></use>
                    </mask>
                    <g id="Clip-41"></g>
                    <path d="M3.18159981,5.46559967 C3.12479981,5.46559967 3.06879982,5.46399967 3.01199982,5.46079967 C2.53119985,5.40959968 2.06079988,5.22079969 1.6615999,4.88879971 C1.27999992,4.57199973 1.01519994,4.16639978 0.872799948,3.72719978 C0.967199942,3.72719978 1.06399994,3.72719978 1.15839993,3.72719978 C1.24319993,3.81919977 1.33519992,3.90719977 1.43439991,3.98959976 C1.97039988,4.43519974 2.62079984,4.65279972 3.26799981,4.65279972 C4.06879976,4.65279972 4.86399971,4.31919974 5.42959968,3.67359978 C5.52159967,3.67119978 5.61679967,3.66879978 5.70879966,3.66639978 C5.61439967,3.98479976 5.45439967,4.28959974 5.22879969,4.56079973 C5.1055997,4.70879972 4.9695997,4.83919971 4.82319971,4.9511997 C4.33519974,5.29199968 3.75999978,5.46559967 3.18159981,5.46559967" id="Fill-40" fill="#5A5E5C" mask="url(#mask-10)"></path>
                </g>
                <polyline id="Fill-43" fill="#9DA19C" points="241.784786 268.287984 237.218386 266.808784 246.336785 238.647986 250.903185 240.127186 241.784786 268.287984"></polyline>
                <polyline id="Fill-44" fill="#9DA19C" points="229.949586 258.536785 229.070386 253.818385 258.172785 248.399185 259.051185 253.117585 229.949586 258.536785"></polyline>
                <polyline id="Fill-45" fill="#9DA19C" points="233.499186 242.823186 237.403986 240.031186 254.622385 264.112784 250.717585 266.904784 233.499186 242.823186"></polyline>
                <path d="M248.289585,264.799984 C241.942386,267.523184 234.589586,264.584784 231.866386,258.236785 C229.143986,251.889585 232.082386,244.536785 238.429586,241.814386 C244.776785,239.091186 252.129585,242.029586 254.852785,248.377585 C257.575185,254.724785 254.636785,262.077584 248.289585,264.799984 M260.139184,246.107985 C256.163985,236.841586 245.429585,232.551986 236.163186,236.527186 C226.895986,240.502386 222.606387,251.236785 226.581586,260.503184 C230.556786,269.769584 241.291186,274.059984 250.557585,270.084784 C259.824785,266.109584 264.114384,255.375185 260.139184,246.107985" id="Fill-46" fill="#929792"></path>
                <g id="Group-49" transform="translate(224.799987, 234.399986)">
                    <mask id="mask-12" fill="white">
                        <use xlink:href="#path-11"></use>
                    </mask>
                    <g id="Clip-48"></g>
                    <path d="M36.2359978,12.1511993 C34.8551979,8.93279947 32.6575981,6.31599962 29.9903982,4.43599974 C31.7447981,6.09679964 33.198398,8.13279952 34.211998,10.4943994 C38.1863977,19.7607988 33.896798,30.4951982 24.6303985,34.4703979 C18.5823989,37.0647978 11.9103993,36.1367978 6.89919959,32.6039981 C12.0303993,37.4607978 19.7487988,39.0903977 26.6543984,36.1279978 C35.9207979,32.1527981 40.2103976,21.4183987 36.2359978,12.1511993" id="Fill-47" fill="#898D88" mask="url(#mask-12)"></path>
                </g>
                <path d="M250.436785,269.952784 C241.387986,273.834384 230.906386,269.645584 227.024786,260.596784 C223.143187,251.547985 227.331986,241.065586 236.380786,237.183986 C245.429585,233.302386 255.911985,237.491186 259.793585,246.539985 C263.675184,255.588785 259.486385,266.071184 250.436785,269.952784 M267.118384,243.114386 C261.490384,229.992786 246.290385,223.918387 233.168786,229.547186 C220.047187,235.175986 213.973587,250.375985 219.601587,263.497584 C225.230387,276.618384 240.430386,282.692783 253.551985,277.063983 C266.673584,271.435184 272.747184,256.235185 267.118384,243.114386" id="Fill-50" fill="#0C0A16"></path>
                <g id="Group-53" transform="translate(216.799987, 227.199986)">
                    <mask id="mask-14" fill="white">
                        <use xlink:href="#path-13"></use>
                    </mask>
                    <g id="Clip-52"></g>
                    <path d="M26.5727984,51.9639976 C21.5239987,51.9639976 16.597599,50.475997 12.4151993,47.7471972 C10.7631994,46.5639972 9.24239945,45.1799973 7.89279953,43.6103974 C12.5711993,47.6247972 18.5735989,49.860797 24.7615985,49.860797 C28.1599983,49.859997 31.6151981,49.1855971 34.9359979,47.7607972 C48.0575971,42.1319975 54.1319968,26.9327984 48.5031971,13.8111992 C48.0863971,12.8391992 47.6167972,11.9071993 47.0999972,11.0143993 C47.1911972,10.9287993 47.2791972,10.8399994 47.3639972,10.7487994 C48.5207971,12.3191993 49.516797,14.0447992 50.318397,15.9143991 C51.7423969,19.2327989 52.4175969,22.6847986 52.4191998,26.0807984 C52.4239969,36.1119978 46.5543972,45.6591973 36.7519978,49.863997 C33.427998,51.2895969 29.9735982,51.9647969 26.5727984,51.9639976" id="Fill-51" fill="#0C0A16" mask="url(#mask-14)"></path>
                </g>
                <path d="M248.137585,250.948785 L242.301586,236.903186 C241.739986,235.150386 239.863986,234.183986 238.110386,234.745586 C236.357586,235.306386 235.391186,237.183186 235.952786,238.936786 L239.362386,253.759185 C239.399186,253.991185 239.447986,254.223185 239.522386,254.454385 C240.307986,256.908785 242.935186,258.260785 245.389585,257.475185 C247.843985,256.688785 249.196785,254.062385 248.411185,251.607185 C248.336785,251.376785 248.241585,251.159185 248.137585,250.948785" id="Fill-54" fill="#6A6E6B"></path>
                <path d="M108.619994,198.602388 L57.4047966,198.602388 C54.7583967,198.602388 52.6127969,196.456788 52.6127969,193.810388 L52.6127969,154.595191 C52.6127969,151.948791 54.7583967,149.802391 57.4047966,149.802391 L108.619994,149.802391 C111.267193,149.802391 113.412793,151.948791 113.412793,154.595191 L113.412793,193.810388 C113.412793,196.456788 111.267193,198.602388 108.619994,198.602388" id="Fill-55" fill="#D63242"></path>
                <g id="Group-65" transform="translate(51.999997, 149.599991)">
                    <mask id="mask-16" fill="white">
                        <use xlink:href="#path-15"></use>
                    </mask>
                    <g id="Clip-57"></g>
                    <polygon id="Fill-56" fill="#E24F5D" mask="url(#mask-16)" points="23.0127986 14.4495991 39.0127977 14.4495991 39.0127977 0.202399988 23.0127986 0.202399988"></polygon>
                    <polygon id="Fill-58" fill="#E24F5D" mask="url(#mask-16)" points="0.612799963 25.2255985 61.4127963 25.2255985 61.4127963 22.8255986 0.612799963 22.8255986"></polygon>
                    <polygon id="Fill-59" fill="#E24F5D" mask="url(#mask-16)" points="0.612799963 35.2247979 61.4127963 35.2247979 61.4127963 32.825598 0.612799963 32.825598"></polygon>
                    <path d="M56.6199966,49.0023971 L5.40479968,49.0023971 C2.75839984,49.0023971 0.612799963,46.8567972 0.612799963,44.2103974 L0.612799963,40.2495976 C11.0367993,39.6855976 19.4455988,37.8543977 26.2255984,35.2247979 L61.4127963,35.2247979 L61.4127963,44.2103974 C61.4127963,46.8567972 59.2671965,49.0023971 56.6199966,49.0023971" id="Fill-60" fill="#D63242" mask="url(#mask-16)"></path>
                    <path d="M61.4127963,32.825598 L31.5775981,32.825598 C35.9159979,30.5879982 39.4351976,27.9903983 42.2823975,25.2255985 L61.4127963,25.2255985 L61.4127963,32.825598" id="Fill-61" fill="#D63242" mask="url(#mask-16)"></path>
                    <path d="M61.4127963,22.8255986 L44.5575973,22.8255986 C51.5591969,14.7863991 53.5879968,5.82639965 54.1183968,0.202399988 L56.6199966,0.202399988 C59.2671965,0.202399988 61.4127963,2.34879986 61.4127963,4.9951997 L61.4127963,22.8255986" id="Fill-62" fill="#D63242" mask="url(#mask-16)"></path>
                    <path d="M61.4127963,25.2255985 L42.2823975,25.2255985 C43.0935974,24.4375985 43.8511974,23.6359986 44.5575973,22.8255986 L61.4127963,22.8255986 L61.4127963,25.2255985" id="Fill-63" fill="#E24F5D" mask="url(#mask-16)"></path>
                    <path d="M61.4127963,35.2247979 L26.2255984,35.2247979 C28.1351983,34.4847979 29.9175982,33.680798 31.5775981,32.825598 L61.4127963,32.825598 L61.4127963,35.2247979" id="Fill-64" fill="#E24F5D" mask="url(#mask-16)"></path>
                </g>
                <path d="M224.264787,149.544791 C224.264787,154.851191 220.104787,159.153591 214.971987,159.153591 C209.839987,159.153591 205.679188,154.851191 205.679188,149.544791 C205.679188,144.238391 209.839987,139.935992 214.971987,139.935992 C220.104787,139.935992 224.264787,144.238391 224.264787,149.544791" id="Fill-66" fill="#FEFBC6"></path>
                <g id="Group-69" transform="translate(205.599988, 139.199992)">
                    <mask id="mask-18" fill="white">
                        <use xlink:href="#path-17"></use>
                    </mask>
                    <g id="Clip-68"></g>
                    <path d="M16.563199,16.431199 C17.385599,14.9983991 17.8647989,13.3311992 17.8647989,11.5447993 C17.8647989,6.23839963 13.7047992,1.93599988 8.57199949,1.93599988 C6.14239963,1.93599988 3.93759977,2.90799983 2.28159986,4.48639973 C2.60239984,3.95359976 2.97119982,3.45519979 3.3831998,2.99759982 C4.9999997,1.58639991 7.09039958,0.735999956 9.37199944,0.735999956 C14.5047991,0.735999956 18.6647989,5.0383997 18.6647989,10.3447994 C18.6647989,12.6543992 17.8767989,14.7735991 16.563199,16.431199" id="Fill-67" fill="#F7D07E" mask="url(#mask-18)"></path>
                </g>
                <path d="M227.675186,222.349587 C214.695987,228.414386 207.946388,242.395986 210.489587,255.853585 C211.195987,259.585585 215.384787,261.500784 218.683987,259.617585 C230.415986,252.920785 249.370385,244.071185 262.033584,239.365586 C265.593584,238.042386 266.811184,233.602386 264.401584,230.666386 C255.711985,220.079187 240.654386,216.284787 227.675186,222.349587" id="Fill-70" fill="#E9AA0A"></path>
                <path d="M209.412788,156.202391 C209.412788,156.202391 213.414387,138.918392 188.812789,143.391991 C180.928789,144.824791 176.739989,152.481591 187.622389,155.747191 C189.579989,156.334391 194.212788,155.135991 196.612788,158.869591 C198.216788,161.36479 196.612788,158.869591 196.612788,158.869591 L217.412787,198.869588 C220.830387,206.059188 224.228787,215.979187 219.812787,222.602387 C216.255187,227.938386 207.824788,244.895985 201.412788,245.002385 L173.77039,245.616785 C166.10639,245.787185 159.062391,240.968786 156.864791,233.624786 C156.006391,230.755986 156.091191,228.337586 156.181591,226.298387 L161.52959,206.889588 C162.68319,202.700788 159.56239,198.553588 155.217591,198.503188 L106.212794,199.402388 C95.0815943,202.519188 73.3983956,216.127987 74.6127956,235.802386 C75.2639955,246.349585 82.8631951,246.196785 89.3095947,246.044785 C91.5527945,245.991185 93.6567944,245.938385 95.2791943,246.335985 C115.479193,251.285585 133.174392,254.420785 141.938392,257.139985 C149.016791,259.336785 156.403191,260.379184 163.81279,260.202384 L207.012788,258.602385 C214.319187,258.428785 221.688787,248.992785 226.552786,243.537585 C232.153586,237.256786 242.931186,228.378386 244.612785,213.802387 C247.012785,193.002388 209.412788,156.202391 209.412788,156.202391" id="Fill-74" fill="#FBBB0F"></path>
                <g id="Group-80" transform="translate(74.399996, 142.399992)">
                    <mask id="mask-20" fill="white">
                        <use xlink:href="#path-19"></use>
                    </mask>
                    <g id="Clip-76"></g>
                    <path d="M4.61279973,92.2023945 C4.61279973,95.0743943 2.64239984,97.4023942 0.212799987,97.4023942 C-2.21759987,97.4023942 -4.18719975,95.0743943 -4.18719975,92.2023945 C-4.18719975,89.3311947 -2.21759987,87.0023948 0.212799987,87.0023948 C2.64239984,87.0023948 4.61279973,89.3311947 4.61279973,92.2023945" id="Fill-75" fill="#CF3806" mask="url(#mask-20)"></path>
                    <path d="M128.364792,103.200794 C134.456792,100.428794 141.661592,86.0959949 144.879191,81.2695952 C145.259191,80.6999952 145.580791,80.1063952 145.849591,79.4919953 C147.031191,77.4055954 147.511991,75.0327955 147.513591,72.5439957 C147.516791,67.151996 145.268791,61.2159964 143.012791,56.4695966 L122.212793,16.469599 C121.446393,15.2775991 120.452793,14.5879991 119.390393,14.1831992 L119.471193,14.0943992 C121.703993,14.1783992 124.703193,14.2399992 126.479192,17.002399 L147.279191,57.0023966 C150.697591,64.1919962 154.095191,74.1119956 149.679191,80.7359952 C146.122391,86.0719949 137.691192,103.028794 131.279192,103.135994 L128.364792,103.200794" id="Fill-77" fill="#EFA000" mask="url(#mask-20)"></path>
                    <path d="M111.395193,9.93199941 C109.887193,9.70719942 108.441594,9.48879943 107.065594,9.27839945 C106.774394,8.69999948 106.638394,8.10719952 106.63919,7.51759955 C106.639994,7.05199958 106.726394,6.58799961 106.889594,6.13359963 C108.120794,4.22719975 110.699193,2.63679984 113.879193,2.05839988 C116.016793,1.6695999 117.925593,1.45439991 119.652793,1.36879992 C119.326393,1.42159992 119.015993,1.46399991 118.679193,1.52479991 C113.219193,2.51759985 109.530393,6.49519961 111.395193,9.93199941" id="Fill-78" fill="#EFA000" mask="url(#mask-20)"></path>
                    <path d="M175.61279,65.0023961 L166.41279,65.0023961 C163.22239,65.0023961 160.61279,62.3927963 160.61279,59.2023965 C160.61279,56.0127967 163.22239,53.4023968 166.41279,53.4023968 L175.61279,53.4023968 C178.802389,53.4023968 181.412789,56.0127967 181.412789,59.2023965 C181.412789,62.3927963 178.802389,65.0023961 175.61279,65.0023961" id="Fill-79" fill="#FEFBC6" mask="url(#mask-20)"></path>
                </g>
                <g id="Fill-81">
                    <use fill="black" fill-opacity="1" filter="url(#filter-22)" xlink:href="#path-21"></use>
                    <use fill="#FCC94E" fill-rule="evenodd" xlink:href="#path-21"></use>
                </g>
                <path d="M121.812793,200.602388 L63.4127962,200.602388 C62.7527963,200.602388 62.2127963,200.062388 62.2127963,199.402388 C62.2127963,198.742388 62.7527963,198.202388 63.4127962,198.202388 L121.812793,198.202388 C122.472793,198.202388 123.012793,198.742388 123.012793,199.402388 C123.012793,200.062388 122.472793,200.602388 121.812793,200.602388" id="Fill-85" fill="#763139"></path>
                <path d="M158.103191,201.311988 L121.198393,201.311988 C118.008793,201.311988 115.398393,198.702388 115.398393,195.511988 C115.398393,192.322389 118.008793,189.711989 121.198393,189.711989 L158.103191,189.711989 C161.29359,189.711989 163.90319,192.322389 163.90319,195.511988 C163.90319,198.702388 161.29359,201.311988 158.103191,201.311988" id="Fill-86" fill="#0C0A15"></path>
                <g id="Group-89" transform="translate(115.199993, 189.599989)">
                    <mask id="mask-24" fill="white">
                        <use xlink:href="#path-23"></use>
                    </mask>
                    <g id="Clip-88"></g>
                    <path d="M44.9655973,0.67119996 C45.0535973,1.07199994 45.1031973,1.48639991 45.1031973,1.91199989 C45.1031973,5.1023997 42.4935975,7.71199954 39.3031977,7.71199954 L2.39839986,7.71199954 C1.51839991,7.71199954 0.685599959,7.50799955 -0.0631999962,7.15279957 C0.50879997,9.75119942 2.83439983,11.7119993 5.59839967,11.7119993 L42.5031975,11.7119993 C45.6935973,11.7119993 48.3031971,9.10239946 48.3031971,5.91199965 C48.3031971,3.60239979 46.9319972,1.6023999 44.9655973,0.67119996" id="Fill-87" fill="#3F3F45" mask="url(#mask-24)"></path>
                </g>
                <path d="M216.727987,156.561591 C216.727987,159.294391 214.179187,161.31839 211.518387,160.69519 C204.810388,159.124791 199.963988,154.602391 199.963988,149.269591 C199.963988,143.935991 204.810388,139.414392 211.518387,137.843192 C214.179187,137.219992 216.727987,139.243992 216.727987,141.976792 L216.727987,156.561591" id="Fill-90" fill="#FFD35E"></path>
                <g id="Group-93" transform="translate(199.199988, 137.599992)">
                    <mask id="mask-26" fill="white">
                        <use xlink:href="#path-25"></use>
                    </mask>
                    <g id="Clip-92"></g>
                    <path d="M17.319199,17.006399 C17.319199,19.7391988 14.7703991,21.7623987 12.1095993,21.1391987 C6.28239963,19.7751988 1.86479989,16.182399 0.803199952,11.7663993 C0.784799953,11.9999993 0.763999954,12.2327993 0.763999954,12.4695993 C0.763999954,17.8023989 5.61039967,22.3247987 12.3183993,23.8951986 C14.9791991,24.5183985 17.527999,22.4943987 17.527999,19.7615988" id="Fill-91" fill-opacity="0.382102273" fill="#1C1A16" mask="url(#mask-26)"></path>
                </g>
                <path d="M190.257589,150.957591 L182.988789,158.936791 C181.799189,160.24319 181.893589,162.26719 183.199989,163.45759 C184.506389,164.64799 186.530389,164.55359 187.720789,163.24719 L194.989588,155.267191 C196.179188,153.960791 196.084788,151.936791 194.778388,150.746391 C193.471988,149.556791 191.447989,149.650391 190.257589,150.957591" id="Fill-94" fill="#1E1D1A"></path>
                <path d="M246.479185,252.869585 C246.479185,254.268785 245.344785,255.402385 243.946385,255.402385 C242.547186,255.402385 241.412786,254.268785 241.412786,252.869585 C241.412786,251.470385 242.547186,250.335985 243.946385,250.335985 C245.344785,250.335985 246.479185,251.470385 246.479185,252.869585" id="Fill-95" fill="#616462"></path>
                <g id="Group-98" transform="translate(240.799986, 249.599985)">
                    <mask id="mask-28" fill="white">
                        <use xlink:href="#path-27"></use>
                    </mask>
                    <g id="Clip-97"></g>
                    <path d="M3.14639981,5.80239965 C2.44319985,5.80239965 1.80799989,5.51679967 1.34879992,5.0543997 C1.6727999,5.18479969 2.02559988,5.25599969 2.39679986,5.25599969 C3.98159976,5.25599969 5.26639969,3.97119976 5.26639969,2.38639986 C5.26639969,2.17919987 5.24319969,1.97919988 5.19999969,1.78559989 C5.50159967,2.20319987 5.67919966,2.71519984 5.67919966,3.26959981 C5.67919966,3.46079979 5.65839966,3.64799978 5.61759967,3.82719977 C5.44479968,4.45759973 5.0623997,5.0007997 4.55039973,5.37759968 C4.14879975,5.64639966 3.66559978,5.80239965 3.14639981,5.80239965" id="Fill-96" fill="#5A5E5C" mask="url(#mask-28)"></path>
                </g>
                <path d="M184.147989,137.067192 L184.215989,136.843992 L184.146389,137.066392 L184.147989,137.067192 L184.215989,136.843992 L184.146389,137.066392 C184.222389,137.087192 187.139989,138.016792 190.133589,140.288792 C191.631189,141.423192 193.147188,142.886391 194.369588,144.723991 C195.592788,146.563991 196.531988,148.772791 196.893588,151.475191 C197.010388,152.351191 197.815188,152.966391 198.690388,152.849591 C199.566388,152.732791 200.182388,151.928791 200.065588,151.052791 C199.632788,147.795191 198.462388,145.063191 196.963988,142.846391 C194.712788,139.516792 191.757589,137.330392 189.375189,135.959992 C186.989589,134.589592 185.159189,134.031192 185.077589,134.004792 C184.231989,133.748792 183.338389,134.225592 183.081589,135.071192 C182.824789,135.916792 183.302389,136.810392 184.147989,137.067192" id="Fill-99" fill="#AAAAAA"></path>
                <path d="M186.912789,135.002392 C186.912789,138.243192 184.711189,140.869592 181.995989,140.869592 C179.280789,140.869592 177.079189,138.243192 177.079189,135.002392 C177.079189,131.762392 179.280789,129.135992 181.995989,129.135992 C184.711189,129.135992 186.912789,131.762392 186.912789,135.002392" id="Fill-100" fill="#AAAAAA"></path>
                <g id="Group-103" transform="translate(176.799989, 128.799992)">
                    <mask id="mask-30" fill="white">
                        <use xlink:href="#path-29"></use>
                    </mask>
                    <g id="Clip-102"></g>
                    <path d="M7.27119957,0.889599947 C8.21199951,1.95839988 8.80159948,3.46399979 8.80159948,5.13599969 C8.80159948,8.3759995 6.59999961,11.0023993 3.88479977,11.0023993 C3.14239981,11.0023993 2.44079985,10.8007994 1.80959989,10.4487994 C2.69119984,11.4503993 3.88239977,12.0695993 5.19599969,12.0695993 C7.91119953,12.0695993 10.1127994,9.44319944 10.1127994,6.20239963 C10.1127994,3.84879977 8.94799947,1.82399989 7.27119957,0.889599947" id="Fill-101" fill="#868282" mask="url(#mask-30)"></path>
                </g>
                <path d="M124.484793,83.290395 C123.054393,82.7671951 120.495193,89.5791947 128.895992,90.9983946 C128.895992,90.9983946 133.249592,99.0023941 137.578392,86.8911948" id="Fill-104" fill="#000307"></path>
                <path d="M116.860793,165.00479 C114.210393,164.41519 114.887993,159.93999 114.955193,157.225591 C115.179193,148.107991 117.159193,119.903993 125.415993,105.854394 C126.951192,103.241594 128.694392,101.010394 132.549592,99.6575941 C134.810392,98.8647941 135.589592,93.6007944 136.543992,90.1695946 L150.421591,97.2255942 C150.421591,97.2255942 146.821591,101.758394 149.887991,106.025594 C150.851191,107.364794 150.679191,132.126392 150.679191,132.126392 C150.679191,132.126392 154.513591,151.520791 150.955191,163.62559 C150.383991,165.56719 148.333591,168.11679 146.344791,167.73679 L116.860793,165.00479" id="Fill-105" fill="#F07905"></path>
                <g id="Group-111" transform="translate(114.399993, 89.599995)">
                    <mask id="mask-32" fill="white">
                        <use xlink:href="#path-31"></use>
                    </mask>
                    <g id="Clip-107"></g>
                    <path d="M10.8455994,12.0727993 C18.0431989,8.4119995 25.2879985,10.6639994 37.9671977,17.7655989 C39.7391976,18.7583989 44.9423973,11.8103993 44.9423973,11.8103993 L31.8311981,-2.52159985 L17.104799,-4.43759974 L10.8455994,12.0727993" id="Fill-106" fill="#FBD0B6" mask="url(#mask-32)"></path>
                    <path d="M37.5847978,69.0479959 C32.4615981,68.5375959 27.4951984,66.845596 25.4383985,62.5607963 C20.8263988,52.9535968 20.8063988,25.3311985 20.8063988,25.3311985 L21.9007987,28.1063983 C21.7695987,28.9079983 21.7143987,29.6527982 21.7151987,30.3751982 C21.7151987,32.854398 22.3671987,35.0631979 22.8383986,38.3335977 L26.0671984,55.5047967 C26.8695984,63.9919962 30.9223982,65.8727961 37.8175977,66.999996 C37.7535977,67.689596 37.6767978,68.3735959 37.5847978,69.0479959" id="Fill-108" fill="#E8720E" mask="url(#mask-32)"></path>
                    <path d="M53.1071968,-29.5087982 C50.743997,10.7767994 47.4447972,21.0295987 29.8879982,11.3583993 C13.7487992,2.46879985 5.59599967,-4.84479971 1.36319992,-28.9399983 C-2.66239984,-51.8527969 7.67679954,-51.3767969 23.3679986,-52.3919969 C50.052797,-54.1175968 53.7287968,-40.1103976 53.1071968,-29.5087982" id="Fill-109" fill="#F3C6AB" mask="url(#mask-32)"></path>
                    <path d="M2.46079985,75.4047955 L2.46079985,75.4047955 L0.899999946,74.0519956 C0.527999969,73.2167956 0.428799974,72.1007957 0.428799974,70.9527958 C0.428799974,69.7903958 0.531199968,68.5951959 0.555199967,67.625596 C0.779199954,58.5079965 2.75919984,30.3039982 11.0159993,16.254399 C12.3967993,13.9039992 13.9463992,11.8623993 17.049599,10.4911994 C14.2279992,12.0727993 6.89519959,19.3111988 6.05119964,51.9551969 L2.46079985,75.4047955" id="Fill-110" fill="#E8720E" mask="url(#mask-32)"></path>
                </g>
                <path d="M136.821592,115.491993 C135.354392,120.371193 136.511992,122.890393 137.238392,127.933592 L140.467192,145.104791 C141.349592,154.433591 146.158391,155.780791 154.350391,156.918391 L183.487989,158.425591 L188.955189,153.158391 L190.021589,152.958391 C154.079191,147.670391 152.223991,146.567991 152.153591,140.122392 C152.141591,138.951192 152.179991,137.779992 152.244791,136.610392 L152.642391,129.427992 C152.387191,126.175192 152.263191,122.911993 152.350391,119.650393 C152.482391,114.705593 151.538391,112.771993 145.087991,110.158393 C141.233592,108.596794 138.449592,110.075993 136.821592,115.491993" id="Fill-112" fill="#FBD0B6"></path>
                <g id="Group-115" transform="translate(135.999992, 108.799994)">
                    <mask id="mask-34" fill="white">
                        <use xlink:href="#path-33"></use>
                    </mask>
                    <g id="Clip-114"></g>
                    <path d="M29.9335982,48.7175971 L18.3503989,48.1183971 C17.611999,48.0159971 16.900799,47.9111971 16.217599,47.7999972 C9.32239944,46.6727972 5.26959969,44.7919973 4.46719973,36.3047978 L1.23839993,19.1335989 C0.767199954,15.8631991 0.115197494,13.6543992 0.115197494,11.1751993 C0.114399993,9.83119941 0.305599982,8.4071995 0.821599951,6.6919996 C1.80559989,3.4199998 3.21039981,1.58479991 5.0191997,0.988799941 C3.14399981,7.80239953 3.61759978,16.869599 4.55519973,23.0255986 C7.57119955,42.8295974 10.1903994,46.9031972 29.9335982,48.7175971" id="Fill-113" fill="#FFC7A6" mask="url(#mask-34)"></path>
                </g>
                <path d="M161.46239,46.1295973 C164.61839,49.761597 166.28479,54.4607968 166.42799,59.2695965 C167.54479,96.8951942 164.10799,107.567994 147.061591,98.1007942 C133.753592,90.7095946 122.704793,86.2991949 119.498393,62.0455963 C118.767193,56.5159966 121.258393,41.7967975 136.789592,39.3431977 C149.995991,37.2559978 157.379991,41.4319975 161.46239,46.1295973" id="Fill-116" fill="#FBD0B6"></path>
                <path d="M165.46639,76.5439954 C165.46639,76.5439954 170.15679,85.2327949 169.39279,86.2919949 C168.39599,87.6727948 163.22639,87.9191948 163.22639,87.9191948 L165.46639,76.5439954" id="Fill-117" fill="#FBD0B6"></path>
                <path d="M162.47359,78.2607953 C162.36559,80.4223952 160.94959,82.1071951 159.310391,82.0255951 C157.671991,81.9439951 156.430391,80.1263952 156.538391,77.9655954 C156.645591,75.8039955 158.061591,74.1183956 159.70079,74.1999956 C161.33999,74.2823956 162.58079,76.0999955 162.47359,78.2607953" id="Fill-118" fill="#131514"></path>
                <path d="M135.112792,79.7591952 C135.790392,76.2655955 138.957592,73.9415956 142.184792,74.5679956 C145.412791,75.1951955 147.479991,78.5351953 146.801591,82.0287951 C146.123191,85.5223949 142.956791,87.8471948 139.728792,87.2199948 C136.500792,86.5935948 134.434392,83.253595 135.112792,79.7591952" id="Fill-119" fill="#FBD0B6"></path>
                <path d="M155.443991,72.5279957 L155.432791,72.5167957 L155.443991,72.5287957 L155.443991,72.5279957 L155.432791,72.5167957 L155.443991,72.5287957 C155.495991,72.4767957 155.939991,72.0559957 156.647191,71.6679957 C157.356791,71.2767958 158.311191,70.9231958 159.42879,70.9239958 C160.01919,70.9239958 160.66079,71.0199958 161.36719,71.2727958 C162.03919,71.5143957 162.77999,71.1647958 163.02079,70.4927958 C163.26239,69.8199958 162.91279,69.0799959 162.24079,68.8383959 C161.25519,68.4847959 160.30479,68.3367959 159.42879,68.3375927 C157.647991,68.3383959 156.200791,68.9327959 155.207191,69.5119959 C154.211191,70.0935958 153.647991,70.6671958 153.589591,70.7255958 C153.091991,71.2375958 153.103191,72.0567957 153.615991,72.5543957 C154.127991,73.0519956 154.946391,73.0399956 155.443991,72.5279957" id="Fill-120" fill="#000307"></path>
                <path d="M130.108792,85.2711949 C130.168792,85.4127949 131.472792,88.4319947 135.089592,92.1399945 C138.702392,95.8479943 144.637591,100.231194 153.855191,103.068794 C154.699191,103.329594 155.595191,102.855994 155.855191,102.011194 C156.115191,101.166394 155.641591,100.271194 154.797591,100.011194 C146.097591,97.3279942 140.659992,93.2639944 137.379992,89.9055946 C135.741592,88.2255947 134.645592,86.7199948 133.965592,85.6511949 C133.626392,85.1167949 133.390392,84.691195 133.243992,84.408795 C133.170392,84.267195 133.119192,84.161595 133.088792,84.095195 L133.056792,84.027195 L133.051992,84.015995 L132.487992,84.261595 L133.054392,84.020795 L133.051992,84.015995 L132.487992,84.261595 L133.054392,84.020795 C132.708792,83.207995 131.769592,82.8279951 130.955992,83.173595 C130.143192,83.518395 129.763192,84.458395 130.108792,85.2711949" id="Fill-121" fill="#0C0A16"></path>
                <path d="M146.220791,61.6623963 C146.220791,61.6623963 154.448791,69.8895958 162.15519,68.0255959 C169.86159,66.1607961 165.33439,61.7047963 165.33439,61.7047963 C165.33439,61.7047963 165.89679,68.3087959 171.25599,68.3408493 C176.615989,68.3727959 170.97999,53.9911968 160.74639,56.9271966" id="Fill-122" fill="#000307"></path>
                <polyline id="Fill-123" fill="#FFFFFE" points="152.339991 85.0479949 135.238392 79.3799953 134.986392 80.1391952 152.087991 85.8071949"></polyline>
                <path d="M152.707991,95.5383943 L152.707991,95.9383943 L152.828791,95.5567943 C146.538391,93.5623944 140.555192,90.7055946 135.050392,87.0663948 L133.245592,85.8735949 L132.803992,86.5407948 L134.608792,87.7343948 C140.175992,91.4135946 146.226391,94.3031944 152.587191,96.3191943 L152.646391,96.3383943 L152.707991,96.3383943 L152.707991,95.5383943" id="Fill-124" fill="#FFFFFE"></path>
                <path d="M168.15519,62.0255963 L157.615991,62.0007963 C148.419991,61.9799963 139.891992,71.3423957 139.920792,80.5383952 L139.930392,83.407195 C139.946392,88.2775947 134.979992,91.5839945 130.495192,89.6831947 C123.915193,86.8943948 116.045593,81.3591952 114.435993,70.6223958 C111.423193,50.525597 126.252792,33.858398 140.735192,33.430398 C159.294391,32.881598 171.09999,43.9751974 171.52239,58.5879965 C171.57759,60.4751964 170.04239,62.0295963 168.15519,62.0255963" id="Fill-125" fill="#FCBF16"></path>
                <g id="Group-128" transform="translate(113.599993, 32.799998)">
                    <mask id="mask-36" fill="white">
                        <use xlink:href="#path-35"></use>
                    </mask>
                    <g id="Clip-127"></g>
                    <path d="M6.03599964,37.4223978 C3.3735998,19.6599988 14.6487991,4.58639973 27.3031984,1.02559994 C26.5903984,1.01119994 25.8695985,1.00879994 25.1351985,1.03039994 C10.6527994,1.45839991 -4.17679975,18.1255989 -1.16399993,38.2223977 C0.445599973,48.9591971 8.3151995,54.4943968 14.8951991,57.2831966 C17.338399,58.3183965 19.9175988,57.8015966 21.7631987,56.3351966 C15.2527991,53.5023968 7.61919955,47.9799971 6.03599964,37.4223978" id="Fill-126" fill="#F1B50F" mask="url(#mask-36)"></path>
                </g>
                <path d="M150.099991,84.499195 C150.099991,84.499195 167.96079,82.9751951 168.17199,80.9863952 C168.36239,79.1879953 172.48959,88.3295947 168.47679,96.1295943 C167.71999,97.6015942 166.10799,98.4327941 164.46959,98.1911941 L152.257591,96.3927943 L150.099991,84.499195" id="Fill-129" fill="#F9F7F4"></path>
                <g id="Group-139" transform="translate(149.599991, 79.999995)">
                    <mask id="mask-38" fill="white">
                        <use xlink:href="#path-37"></use>
                    </mask>
                    <g id="Clip-131"></g>
                    <path d="M2.04239988,5.23999969 C2.16399987,5.22639969 2.29759986,5.21119969 2.44239985,5.19439969 L2.53039985,5.0839997 L2.41919986,4.9959997 C2.27439986,5.0127997 2.14159987,5.0279997 2.01999988,5.0415997 L1.93199988,5.15199969 L2.04239988,5.23999969 M2.84159983,5.14799969 C2.96799982,5.13359969 3.10159982,5.11759969 3.24079981,5.1015997 L3.3279998,4.9903997 L3.21679981,4.90319971 C3.07759982,4.91919971 2.94479982,4.93519971 2.81839983,4.9495997 L2.73039984,5.0607997 L2.84159983,5.14799969 M3.63919978,5.0543997 C3.76799978,5.0383997 3.90079977,5.0223997 4.03759976,5.0063997 L4.12479975,4.89439971 L4.01279976,4.80719971 C3.87679977,4.82399971 3.74399978,4.83999971 3.61519978,4.85519971 L3.52799979,4.9663997 L3.63919978,5.0543997 M4.43519974,4.9575997 C4.56559973,4.94159971 4.69759972,4.92479971 4.83359971,4.90799971 L4.91999971,4.79679971 L4.80879971,4.70959972 C4.67359972,4.72639972 4.54079973,4.74319972 4.41119974,4.75919972 L4.32399974,4.87039971 L4.43519974,4.9575997 M5.23119969,4.85839971 C5.36159968,4.84239971 5.49439967,4.82559971 5.62879966,4.80799971 L5.71599966,4.69679972 L5.60399967,4.60959973 C5.46959967,4.62719972 5.33679968,4.64399972 5.20639969,4.65999972 L5.11999969,4.77199972 L5.23119969,4.85839971 M6.02639964,4.75759972 C6.15759963,4.74079972 6.29039963,4.72319972 6.42399962,4.70559972 L6.51039961,4.59359973 L6.39839962,4.50799973 C6.26479963,4.52479973 6.13199963,4.54239973 6.00159964,4.55919973 L5.91519965,4.67119972 L6.02639964,4.75759972 M6.82159959,4.65359972 C6.95279959,4.63679972 7.08559958,4.61919972 7.21919957,4.60079973 L7.30479956,4.48879973 L7.19279957,4.40239974 C7.05919958,4.42079974 6.92639959,4.43839974 6.79519959,4.45519973 L6.7095996,4.56799973 L6.82159959,4.65359972 M7.61599955,4.54719973 C7.74799954,4.52959973 7.87999953,4.51199973 8.01359952,4.49359973 L8.09919952,4.38079974 L7.98639952,4.29519974 C7.85279953,4.31359974 7.72079954,4.33119974 7.58959955,4.34959974 L7.50399955,4.46159973 L7.61599955,4.54719973 M8.4103995,4.43839974 C8.54239949,4.41999974 8.67439948,4.40159974 8.80719948,4.38319974 L8.89279947,4.27039975 L8.77919948,4.18479975 C8.64639948,4.20399975 8.51439949,4.22239975 8.3831995,4.24079975 L8.29759951,4.35359974 L8.4103995,4.43839974 M9.20399945,4.32639974 C9.33599944,4.30799974 9.46799944,4.28879974 9.60079943,4.26959975 L9.68559942,4.15599975 L9.57199943,4.07199976 C9.43999944,4.09119976 9.30719945,4.10959976 9.17599945,4.12879975 L9.09119946,4.24159975 L9.20399945,4.32639974 M9.9959994,4.21199975 C10.1279994,4.19199975 10.2599994,4.17279975 10.3919994,4.15279975 L10.4759994,4.03919976 L10.3623994,3.95519976 C10.2303994,3.97519976 10.0983994,3.99439976 9.96719941,4.01359976 L9.88239941,4.12719975 L9.9959994,4.21199975 M10.7887994,4.09359976 C10.9215993,4.07279976 11.0535993,4.05279976 11.1855993,4.03279976 L11.2687993,3.91839977 L11.1551993,3.83519977 C11.0231993,3.85519977 10.8911994,3.87519977 10.7591994,3.89519977 L10.6751994,4.00959976 L10.7887994,4.09359976 M11.5815993,3.97119976 C11.7135993,3.95039976 11.8455993,3.92959977 11.9775993,3.90799977 L12.0599993,3.79359977 L11.9455993,3.71039978 C11.8143993,3.73199978 11.6823993,3.75279978 11.5503993,3.77359978 L11.4671993,3.88719977 L11.5815993,3.97119976 M12.3727993,3.84399977 C12.5055993,3.82239977 12.6375992,3.80079977 12.7687992,3.77919977 L12.8511992,3.66399978 L12.7359992,3.58159979 C12.6047992,3.60399979 12.4727993,3.62559978 12.3407993,3.64719978 L12.2583993,3.76159978 L12.3727993,3.84399977 M13.1639992,3.71279978 C13.2967992,3.69039978 13.4279992,3.66799978 13.5591992,3.64479978 L13.6407992,3.52959979 L13.5247992,3.44799979 C13.3943992,3.47039979 13.2623992,3.49279979 13.1303992,3.51519979 L13.0487992,3.63119978 L13.1639992,3.71279978 M13.9543992,3.57599979 C14.0863992,3.55199979 14.2183992,3.52879979 14.3487991,3.50479979 L14.4295991,3.3887998 L14.3135991,3.3079998 C14.1823992,3.3319998 14.0511992,3.3551998 13.9191992,3.3783998 L13.8383992,3.49439979 L13.9543992,3.57599979 M14.7431991,3.4319998 C14.8759991,3.4071998 15.0071991,3.3823998 15.1375991,3.3575998 L15.2167991,3.24079981 L15.0999991,3.16159981 C14.9703991,3.18639981 14.8391991,3.21119981 14.7063991,3.23599981 L14.6263991,3.3519998 L14.7431991,3.4319998 M15.5311991,3.2807998 C15.6639991,3.25439981 15.7951991,3.22799981 15.9247991,3.20159981 L16.003199,3.08399982 L15.8847991,3.00559982 C15.7559991,3.03199982 15.6247991,3.05839982 15.4927991,3.08479982 L15.4135991,3.20239981 L15.5311991,3.2807998 M16.317599,3.11999981 C16.450399,3.09199982 16.581599,3.06399982 16.710399,3.03519982 L16.786399,2.91599983 L16.667199,2.83999983 C16.539199,2.86879983 16.408799,2.89679983 16.276799,2.92479983 L16.199199,3.04319982 L16.317599,3.11999981 M17.102399,2.94719982 C17.235199,2.91679983 17.365599,2.88639983 17.493599,2.85519983 L17.567199,2.73439984 L17.446399,2.66079984 C17.319999,2.69119984 17.189599,2.72239984 17.057599,2.75279984 L16.982399,2.87279983 L17.102399,2.94719982 M17.8839989,2.75839984 C18.0175989,2.72479984 18.1471989,2.69039984 18.2727989,2.65599984 L18.3431989,2.53359985 L18.2207989,2.46319985 C18.0959989,2.49679985 17.9671989,2.53119985 17.8343989,2.56479985 L17.7623989,2.68639984 L17.8839989,2.75839984 M18.6607989,2.54639985 C18.7951989,2.50719985 18.9239989,2.46799985 19.0471989,2.42799986 L19.1111989,2.30239986 L18.9855989,2.23759987 C18.8647989,2.27679986 18.7375989,2.31599986 18.6047989,2.35439986 L18.5367989,2.47919985 L18.6607989,2.54639985 M19.4295988,2.29759986 C19.5655988,2.24799987 19.6919988,2.19839987 19.8079988,2.14879987 L19.8607988,2.01759988 L19.7295988,1.96479988 C19.6175988,2.01279988 19.4943988,2.06159988 19.3615988,2.10959987 L19.3015988,2.23759987 L19.4295988,2.29759986 M20.1775988,1.97039988 C20.3191988,1.89279989 20.4343988,1.81439989 20.5223988,1.7311999 L20.5271988,1.58959991 L20.3855988,1.58559991 C20.3151988,1.6519999 20.2127988,1.7231999 20.0815988,1.79599989 L20.0423988,1.93199988 L20.1775988,1.97039988 M20.7167988,1.34399992 L20.7375988,1.29599992 L20.7311988,1.29039992 L20.7343988,1.29759992 L20.7375988,1.29599992 L20.7311988,1.29039992 L20.7343988,1.29759992 L20.7271988,1.28159992 L20.7271988,1.29919992 L20.7343988,1.29759992 L20.7271988,1.28159992 L20.7271988,1.29919992 L20.7567988,1.31359992 L20.8383988,1.38479992 L20.9791987,1.38879992 L20.9839987,1.24799993 C20.9031988,1.16479993 20.8311988,1.10399993 20.7271988,1.09919993 L20.5887988,1.16159993 L20.5231988,1.29359992 L20.5951988,1.41599992 L20.7167988,1.34399992 M21.0583987,1.6919999 C21.1175987,1.79039989 21.1799987,1.90639989 21.2447987,2.03679988 L21.3783987,2.08239988 L21.4239987,1.94879988 C21.3575987,1.81359989 21.2927987,1.6935999 21.2303987,1.58959991 L21.0927987,1.55519991 L21.0583987,1.6919999 M21.4087987,2.39599986 C21.4583987,2.51119985 21.5079987,2.63359984 21.5575987,2.76399984 L21.6863987,2.82159983 L21.7439987,2.69199984 C21.6935987,2.55999985 21.6431987,2.43519985 21.5927987,2.31759986 L21.4615987,2.26479987 L21.4087987,2.39599986 M21.6927987,3.13679981 C21.7343987,3.25759981 21.7759987,3.3839998 21.8167987,3.51439979 L21.9423987,3.57999979 L22.0079987,3.45439979 C21.9663987,3.3223998 21.9247987,3.19439981 21.8823987,3.07199982 L21.7551987,3.00959982 L21.6927987,3.13679981 M21.9303987,3.89519977 C21.9655987,4.01999976 21.9999987,4.14799975 22.0335987,4.27919974 L22.1551987,4.35199974 L22.2271987,4.22959975 C22.1935987,4.09679976 22.1583987,3.96719976 22.1223987,3.84079977 L21.9991987,3.77199978 L21.9303987,3.89519977 M22.1271987,4.66639972 C22.1567987,4.79279971 22.1847987,4.92239971 22.2119987,5.0543997 L22.3303987,5.13279969 L22.4079987,5.0143997 C22.3799987,4.88079971 22.3519987,4.74959972 22.3223987,4.62079972 L22.2023987,4.54639973 L22.1271987,4.66639972 M22.2871987,5.44559968 C22.3111987,5.57439967 22.3327987,5.70479966 22.3543987,5.83759965 L22.4687987,5.92079965 L22.5511987,5.80639965 C22.5303987,5.67199966 22.5079987,5.53999967 22.4839987,5.40959968 L22.3679987,5.32879968 L22.2871987,5.44559968 M22.4119987,6.23119963 C22.4295987,6.36159962 22.4455987,6.49279961 22.4607987,6.62639961 L22.5711987,6.7143996 L22.6591986,6.60399961 C22.6439987,6.46959961 22.6279987,6.33599962 22.6095987,6.20479963 L22.4975987,6.11919964 L22.4119987,6.23119963 M22.4999987,7.02239958 C22.5119987,7.15279957 22.5215987,7.28559957 22.5303987,7.41839956 L22.6367987,7.51199955 L22.7303986,7.40559956 C22.7215986,7.27039957 22.7111986,7.13679957 22.6991986,7.00479958 L22.5911987,6.91359959 L22.4999987,7.02239958 M22.5519987,7.81599953 C22.5575987,7.94719953 22.5615987,8.07999952 22.5639987,8.21359951 L22.6655986,8.3111995 L22.7639986,8.20959951 C22.7615986,8.07439952 22.7575986,7.94079953 22.7519986,7.80719953 L22.6479987,7.71199954 L22.5519987,7.81599953 M22.5663987,8.61119949 C22.5655987,8.74239948 22.5631987,8.87519947 22.5591987,9.00879946 L22.6567986,9.11119946 L22.7591986,9.01439946 C22.7631986,8.87999947 22.7655986,8.74559948 22.7663986,8.61199949 L22.6671986,8.51119949 L22.5663987,8.61119949 M22.5423987,9.40559944 C22.5351987,9.53759943 22.5263987,9.66959942 22.5159987,9.80239942 L22.6071987,9.90959941 L22.7151986,9.81839941 C22.7255986,9.68399942 22.7351986,9.54959943 22.7423986,9.41679944 L22.6479987,9.31119945 L22.5423987,9.40559944 M22.4783987,10.1975994 C22.4647987,10.3287994 22.4487987,10.4607994 22.4311987,10.5919994 L22.5167987,10.7047994 L22.6295987,10.6191994 C22.6471987,10.4855994 22.6631986,10.3519994 22.6775986,10.2191994 L22.5887987,10.1087994 L22.4783987,10.1975994 M22.3735987,10.9855993 C22.3519987,11.1151993 22.3295987,11.2455993 22.3047987,11.3767993 L22.3839987,11.4935993 L22.5007987,11.4135993 C22.5263987,11.2815993 22.5495987,11.1487993 22.5703987,11.0167993 L22.4879987,10.9023994 L22.3735987,10.9855993 M22.2255987,11.7655993 C22.1967987,11.8943993 22.1671987,12.0231993 22.1343987,12.1519993 L22.2079987,12.2735993 L22.3287987,12.2007993 C22.3615987,12.0695993 22.3919987,11.9391993 22.4207987,11.8087993 L22.3439987,11.6895993 L22.2255987,11.7655993 M22.0327987,12.5359993 C21.9975987,12.6631992 21.9599987,12.7895992 21.9207987,12.9167992 L21.9863987,13.0415992 L22.1111987,12.9759992 C22.1511987,12.8471992 22.1895987,12.7183992 22.2255987,12.5895992 L22.1567987,12.4663993 L22.0327987,12.5359993 M21.7967987,13.2935992 C21.7535987,13.4175992 21.7079987,13.5423992 21.6607987,13.6663992 L21.7191987,13.7951992 L21.8479987,13.7375992 C21.8959987,13.6111992 21.9415987,13.4855992 21.9855987,13.3591992 L21.9239987,13.2319992 L21.7967987,13.2935992 M21.5143987,14.0351992 C21.4639987,14.1567992 21.4111987,14.2775991 21.3559987,14.3991991 L21.4055987,14.5311991 L21.5383987,14.4815991 C21.5935987,14.3583991 21.6471987,14.2351992 21.6991987,14.1119992 L21.6447987,13.9807992 L21.5143987,14.0351992 M21.1863987,14.7575991 L21.0847987,14.9599991 L21.0055987,15.1087991 L21.0439987,15.2447991 L21.1799987,15.2055991 L21.2631987,15.0511991 L21.3663987,14.8455991 L21.3207987,14.7119991 L21.1863987,14.7575991 M20.8031988,15.4471991 C20.7343988,15.5551991 20.6607988,15.6647991 20.5823988,15.7743991 L20.6055988,15.9143991 L20.7447988,15.8911991 C20.8255988,15.7783991 20.9015988,15.6663991 20.9719987,15.5551991 L20.9415988,15.4167991 L20.8031988,15.4471991 M20.3439988,16.089599 C20.2623988,16.191999 20.1775988,16.292799 20.0903988,16.391999 L20.0983988,16.533599 L20.2399988,16.524799 C20.3303988,16.423199 20.4167988,16.319199 20.5007988,16.214399 L20.4847988,16.073599 L20.3439988,16.089599 M19.8207988,16.680799 C19.7279988,16.774399 19.6319988,16.864799 19.5351988,16.951999 L19.5271988,17.093599 L19.6679988,17.101599 C19.7687988,17.011199 19.8671988,16.917599 19.9623988,16.821599 L19.9615988,16.679999 L19.8207988,16.680799 M19.2327989,17.203199 C19.1279989,17.283999 19.0207989,17.359199 18.9127989,17.428799 L18.8823989,17.566399 L19.0207989,17.596799 C19.1335989,17.524799 19.2455989,17.445599 19.3551988,17.361599 L19.3727988,17.221599 L19.2327989,17.203199 M18.5743989,17.6207989 C18.4559989,17.6791989 18.3367989,17.7287989 18.2183989,17.7679989 L18.1551989,17.8943989 L18.2815989,17.9575989 C18.4095989,17.9151989 18.5375989,17.8623989 18.6631989,17.7999989 L18.7087989,17.6655989 L18.5743989,17.6207989 M17.8479989,17.8551989 C17.7695989,17.8663989 17.6911989,17.8719989 17.614399,17.8719989 L17.471999,17.8655989 L17.363199,17.9559989 L17.453599,18.0647989 L17.614399,18.0719989 C17.7007989,18.0719989 17.7879989,18.0655989 17.8751989,18.0535989 L17.9599989,17.9407989 L17.8479989,17.8551989 M17.079999,17.8127989 L16.683199,17.7583989 L16.570399,17.8439989 L16.655999,17.9567989 L17.052799,18.0111989 L17.164799,17.9255989 L17.079999,17.8127989 M16.287199,17.7039989 L15.8911991,17.6495989 L15.7783991,17.7343989 L15.8639991,17.8471989 L16.259999,17.9015989 L16.372799,17.8167989 L16.287199,17.7039989 M15.4943991,17.594399 L15.0983991,17.539999 L14.9855991,17.6255989 L15.0711991,17.7383989 L15.4671991,17.7927989 L15.5799991,17.7071989 L15.4943991,17.594399 M14.7023991,17.485599 L14.3055991,17.431199 L14.1927992,17.516799 L14.2783991,17.6295989 L14.6751991,17.6839989 L14.7871991,17.598399 L14.7023991,17.485599 M13.9095992,17.376799 L13.5135992,17.322399 L13.4007992,17.407999 L13.4855992,17.519999 L13.8823992,17.575199 L13.9951992,17.489599 L13.9095992,17.376799 M13.1167992,17.267999 L12.7207992,17.212799 L12.6079992,17.298399 L12.6935992,17.411199 L13.0895992,17.465599 L13.2023992,17.379999 L13.1167992,17.267999 M12.3247993,17.158399 L11.9279993,17.103999 L11.8151993,17.189599 L11.9007993,17.302399 L12.2975993,17.356799 L12.4095993,17.271199 L12.3247993,17.158399 M11.5319993,17.049599 L11.1359993,16.995199 L11.0231993,17.080799 L11.1087993,17.193599 L11.5047993,17.247999 L11.6175993,17.162399 L11.5319993,17.049599 M10.7391994,16.940799 L10.3431994,16.886399 L10.2303994,16.971199 L10.3159994,17.083999 L10.7119994,17.138399 L10.8247994,17.053599 L10.7391994,16.940799 M9.94719941,16.831199 L9.55039943,16.776799 L9.43759944,16.862399 L9.52319943,16.975199 L9.91999941,17.029599 L10.0319994,16.943999 L9.94719941,16.831199 M9.15439945,16.722399 L8.75839948,16.667999 L8.64559948,16.753599 L8.73119948,16.866399 L9.12719946,16.920799 L9.23999945,16.835199 L9.15439945,16.722399 M8.3615995,16.613599 L7.96559953,16.559199 L7.85279953,16.644799 L7.93839953,16.756799 L8.3343995,16.811999 L8.4471995,16.726399 L8.3615995,16.613599 M7.56959955,16.504799 L7.17279957,16.449599 L7.05999958,16.535199 L7.14559957,16.647999 L7.54239955,16.702399 L7.65439954,16.616799 L7.56959955,16.504799 M6.7767996,16.395199 L6.38079962,16.340799 L6.26799963,16.426399 L6.35359962,16.539199 L6.7495996,16.593599 L6.86239959,16.507999 L6.7767996,16.395199 M5.98399964,16.286399 L5.58799967,16.231999 L5.47519967,16.317599 L5.56079967,16.429599 L5.95679964,16.484799 L6.06959964,16.399199 L5.98399964,16.286399 M5.19199969,16.177599 L4.79519971,16.123199 L4.68239972,16.207999 L4.76799972,16.320799 L5.16479969,16.375199 L5.27679969,16.290399 L5.19199969,16.177599 M4.39919974,16.067999 L4.00319976,16.013599 L3.89039977,16.099199 L3.97599976,16.211999 L4.37199974,16.266399 L4.48479973,16.180799 L4.39919974,16.067999 M3.60639979,15.959199 L3.21039981,15.9047991 L3.09759982,15.990399 L3.18319981,16.103199 L3.57919979,16.157599 L3.69199978,16.071999 L3.60639979,15.959199 M3.06879982,15.7591991 L3.00319982,15.3639991 L2.88879983,15.2815991 L2.80639983,15.3967991 L2.87119983,15.7911991 L2.98639982,15.8735991 L3.06879982,15.7591991 M2.93839982,14.9695991 L2.87279983,14.5751991 L2.75839984,14.4927991 L2.67599984,14.6071991 L2.74079984,15.0023991 L2.85599983,15.0847991 L2.93839982,14.9695991 M2.80799983,14.1799992 L2.74239984,13.7855992 L2.62719984,13.7031992 L2.54559985,13.8183992 L2.61039984,14.2127992 L2.72559984,14.2951991 L2.80799983,14.1799992 M2.67759984,13.3911992 L2.61199984,12.9959992 L2.49679985,12.9143992 L2.41439986,13.0287992 L2.47999985,13.4239992 L2.59519985,13.5055992 L2.67759984,13.3911992 M2.54719985,12.6015992 L2.48159985,12.2071993 L2.36639986,12.1247993 L2.28399986,12.2399993 L2.34959986,12.6343992 L2.46479985,12.7167992 L2.54719985,12.6015992 M2.41679986,11.8127993 L2.35119986,11.4175993 L2.23599987,11.3351993 L2.15359987,11.4503993 L2.21919987,11.8447993 L2.33439986,11.9271993 L2.41679986,11.8127993 M2.28639986,11.0231993 L2.22079987,10.6287994 L2.10559987,10.5463994 L2.02319988,10.6607994 L2.08879988,11.0559993 L2.20399987,11.1383993 L2.28639986,11.0231993 M2.15519987,10.2335994 L2.09039988,9.83919941 L1.97519988,9.75679942 L1.89279989,9.87199941 L1.95839988,10.2663994 L2.07359988,10.3487994 L2.15519987,10.2335994 M2.02479988,9.44479944 L1.95999988,9.04959946 L1.84479989,8.96719947 L1.76239989,9.08239946 L1.82799989,9.47679944 L1.94239988,9.55919943 L2.02479988,9.44479944 M1.89439989,8.65519948 L1.82959989,8.26079951 L1.7143999,8.17839951 L1.6319999,8.29279951 L1.6975999,8.68799948 L1.81199989,8.77039948 L1.89439989,8.65519948 M1.76399989,7.86559953 L1.6991999,7.47119955 L1.58399991,7.38879956 L1.50159991,7.50399955 L1.56719991,7.89839953 L1.6815999,7.98079952 L1.76399989,7.86559953 M1.6335999,7.07679958 L1.56879991,6.6815996 L1.45359991,6.59999961 L1.37119992,6.7143996 L1.43679991,7.10959958 L1.55119991,7.19199957 L1.6335999,7.07679958 M1.50319991,6.28719963 L1.43839991,5.89279965 L1.32319992,5.81039965 L1.24079993,5.92559965 L1.30639992,6.31999962 L1.42079992,6.40239962 L1.50319991,6.28719963 M1.37279992,5.49839967 L1.32559992,5.21359969 L1.22719993,5.22959969 L1.23759993,5.32959968 C1.23759993,5.32959968 1.38079992,5.31439968 1.6423999,5.28479969 L1.7303999,5.17439969 L1.6199999,5.0863997 C1.35919992,5.1151997 1.21679993,5.13039969 1.21679993,5.13039969 L1.14799993,5.16959969 L1.12879993,5.24639969 L1.17599993,5.53039967 L1.29039992,5.61279967 L1.37279992,5.49839967" id="Fill-130" fill="#D5D7D1" mask="url(#mask-38)"></path>
                    <path d="M1.86559989,5.85039965 C1.86559989,5.85039965 21.7623987,3.57039979 21.8999987,1.84159989 C22.0247987,0.279199983 26.3079984,9.31919944 22.4111987,16.123199 C21.6759987,17.407999 20.0375988,17.9479989 18.3015989,17.7511989 L3.53759979,15.6815991 L1.86559989,5.85039965" id="Fill-132" fill="#F5F5F5" mask="url(#mask-38)"></path>
                    <path d="M1.7055999,11.1463993 L0.983999941,7.16559957 C1.13679993,7.16159957 1.30719992,7.15679957 1.49439991,7.15119957 L1.55119991,7.19199957 L1.58239991,7.14799957 C1.5959999,7.14799957 1.6087999,7.14719957 1.6223999,7.14719957 C1.76719989,7.14239957 1.92079989,7.13679957 2.08319988,7.13119957 L2.75919984,11.1079993 C2.56719985,11.1159993 2.38399986,11.1231993 2.21039987,11.1287993 L2.28639986,11.0231993 L2.22079987,10.6287994 L2.10559987,10.5463994 L2.02319988,10.6607994 L2.08879988,11.0559993 L2.19199987,11.1295993 C2.02079988,11.1359993 1.85839989,11.1415993 1.7055999,11.1463993 M1.97519988,9.75679942 L1.89279989,9.87199941 L1.95839988,10.2663994 L2.07359988,10.3487994 L2.15519987,10.2335994 L2.09039988,9.83919941 L1.97519988,9.75679942 M1.84479989,8.96719947 L1.76239989,9.08239946 L1.82799989,9.47679944 L1.94239988,9.55919943 L2.02479988,9.44479944 L1.95999988,9.04959946 L1.84479989,8.96719947 M1.7143999,8.17839951 L1.6319999,8.29279951 L1.6975999,8.68799948 L1.81199989,8.77039948 L1.89439989,8.65519948 L1.82959989,8.26079951 L1.7143999,8.17839951 M1.58399991,7.38879956 L1.50159991,7.50399955 L1.56719991,7.89839953 L1.6815999,7.98079952 L1.76399989,7.86559953 L1.6991999,7.47119955 L1.58399991,7.38879956" id="Fill-133" fill="#FCFAF8" mask="url(#mask-38)"></path>
                    <path d="M2.19199987,11.1295993 L2.08879988,11.0559993 L2.02319988,10.6607994 L2.10559987,10.5463994 L2.22079987,10.6287994 L2.28639986,11.0231993 L2.21039987,11.1287993 C2.20399987,11.1295993 2.19839987,11.1295993 2.19199987,11.1295993 M2.07359988,10.3487994 L1.95839988,10.2663994 L1.89279989,9.87199941 L1.97519988,9.75679942 L2.09039988,9.83919941 L2.15519987,10.2335994 L2.07359988,10.3487994 M1.94239988,9.55919943 L1.82799989,9.47679944 L1.76239989,9.08239946 L1.84479989,8.96719947 L1.95999988,9.04959946 L2.02479988,9.44479944 L1.94239988,9.55919943 M1.81199989,8.77039948 L1.6975999,8.68799948 L1.6319999,8.29279951 L1.7143999,8.17839951 L1.82959989,8.26079951 L1.89439989,8.65519948 L1.81199989,8.77039948 M1.6815999,7.98079952 L1.56719991,7.89839953 L1.50159991,7.50399955 L1.58399991,7.38879956 L1.6991999,7.47119955 L1.76399989,7.86559953 L1.6815999,7.98079952 M1.55119991,7.19199957 L1.49439991,7.15119957 C1.52319991,7.15039957 1.55279991,7.14959957 1.58239991,7.14799957 L1.55119991,7.19199957" id="Fill-134" fill="#E3E3DD" mask="url(#mask-38)"></path>
                    <path d="M2.75919984,11.1079993 L2.08319988,7.13119957 C3.01999982,7.09679958 4.23759975,7.04079958 5.63039966,6.95039959 C8.89759947,6.7375996 13.1391992,6.32799962 16.943999,5.57119967 C18.1071989,5.34079968 19.2311989,5.0759997 20.2671988,4.77919972 C20.4799988,5.88559965 20.6239988,7.16079957 20.6247988,8.52639949 C20.6247988,8.62719949 20.6239988,8.72879948 20.6223988,8.83039947 C19.6831988,9.07759946 18.7119989,9.29679945 17.7231989,9.49439943 C15.0007991,10.0351994 12.1511993,10.3983994 9.55199943,10.6479994 C6.87999959,10.9039994 4.47279973,11.0375993 2.75919984,11.1079993" id="Fill-135" fill="#FFFFFF" mask="url(#mask-38)"></path>
                    <path d="M7.73839954,17.141599 L2.65759984,16.392799 L2.12239987,13.4399992 C2.13519987,13.4399992 2.14799987,13.4391992 2.16159987,13.4391992 C2.26479987,13.4351992 2.37359986,13.4319992 2.48639985,13.4279992 L2.59519985,13.5055992 L2.65519984,13.4215992 C2.81279983,13.4159992 2.97759982,13.4095992 3.14959981,13.4023992 L3.53759979,15.6815991 L11.4911993,16.796799 C11.1471993,16.834399 10.8055994,16.869599 10.4679994,16.903199 L10.3431994,16.886399 L10.2983994,16.919999 C10.2295994,16.926399 10.1599994,16.933599 10.0911994,16.939999 C10.0711994,16.941599 10.0503994,16.943999 10.0303994,16.945599 L10.0319994,16.943999 L9.94719941,16.831199 L9.55039943,16.776799 L9.43759944,16.862399 L9.52319943,16.975199 L9.60079943,16.985599 C8.96079947,17.043999 8.3375995,17.095999 7.73839954,17.141599 M8.75839948,16.667999 L8.64559948,16.753599 L8.73119948,16.866399 L9.12719946,16.920799 L9.23999945,16.835199 L9.15439945,16.722399 L8.75839948,16.667999 M7.96559953,16.559199 L7.85279953,16.644799 L7.93839953,16.756799 L8.3343995,16.811999 L8.4471995,16.726399 L8.3615995,16.613599 L7.96559953,16.559199 M7.17279957,16.449599 L7.05999958,16.535199 L7.14559957,16.647999 L7.54239955,16.702399 L7.65439954,16.616799 L7.56959955,16.504799 L7.17279957,16.449599 M6.38079962,16.340799 L6.26799963,16.426399 L6.35359962,16.539199 L6.7495996,16.593599 L6.86239959,16.507999 L6.7767996,16.395199 L6.38079962,16.340799 M5.58799967,16.231999 L5.47519967,16.317599 L5.56079967,16.429599 L5.95679964,16.484799 L6.06959964,16.399199 L5.98399964,16.286399 L5.58799967,16.231999 M4.79519971,16.123199 L4.68239972,16.207999 L4.76799972,16.320799 L5.16479969,16.375199 L5.27679969,16.290399 L5.19199969,16.177599 L4.79519971,16.123199 M4.00319976,16.013599 L3.89039977,16.099199 L3.97599976,16.211999 L4.37199974,16.266399 L4.48479973,16.180799 L4.39919974,16.067999 L4.00319976,16.013599 M3.21039981,15.9047991 L3.09759982,15.990399 L3.18319981,16.103199 L3.57919979,16.157599 L3.69199978,16.071999 L3.60639979,15.959199 L3.21039981,15.9047991 M2.88879983,15.2815991 L2.80639983,15.3967991 L2.87119983,15.7911991 L2.98639982,15.8735991 L3.06879982,15.7591991 L3.00319982,15.3639991 L2.88879983,15.2815991 M2.75839984,14.4927991 L2.67599984,14.6071991 L2.74079984,15.0023991 L2.85599983,15.0847991 L2.93839982,14.9695991 L2.87279983,14.5751991 L2.75839984,14.4927991 M2.62719984,13.7031992 L2.54559985,13.8183992 L2.61039984,14.2127992 L2.72559984,14.2951991 L2.80799983,14.1799992 L2.74239984,13.7855992 L2.62719984,13.7031992" id="Fill-136" fill="#FCFAF8" mask="url(#mask-38)"></path>
                    <path d="M9.60079943,16.985599 L9.52319943,16.975199 L9.43759944,16.862399 L9.55039943,16.776799 L9.94719941,16.831199 L10.0319994,16.943999 L10.0303994,16.945599 C9.88639941,16.959199 9.74319942,16.972799 9.60079943,16.985599 M9.12719946,16.920799 L8.73119948,16.866399 L8.64559948,16.753599 L8.75839948,16.667999 L9.15439945,16.722399 L9.23999945,16.835199 L9.12719946,16.920799 M10.2983994,16.919999 L10.3431994,16.886399 L10.4679994,16.903199 C10.4111994,16.908799 10.3551994,16.914399 10.2983994,16.919999 M8.3343995,16.811999 L7.93839953,16.756799 L7.85279953,16.644799 L7.96559953,16.559199 L8.3615995,16.613599 L8.4471995,16.726399 L8.3343995,16.811999 M7.54239955,16.702399 L7.14559957,16.647999 L7.05999958,16.535199 L7.17279957,16.449599 L7.56959955,16.504799 L7.65439954,16.616799 L7.54239955,16.702399 M6.7495996,16.593599 L6.35359962,16.539199 L6.26799963,16.426399 L6.38079962,16.340799 L6.7767996,16.395199 L6.86239959,16.507999 L6.7495996,16.593599 M5.95679964,16.484799 L5.56079967,16.429599 L5.47519967,16.317599 L5.58799967,16.231999 L5.98399964,16.286399 L6.06959964,16.399199 L5.95679964,16.484799 M5.16479969,16.375199 L4.76799972,16.320799 L4.68239972,16.207999 L4.79519971,16.123199 L5.19199969,16.177599 L5.27679969,16.290399 L5.16479969,16.375199 M4.37199974,16.266399 L3.97599976,16.211999 L3.89039977,16.099199 L4.00319976,16.013599 L4.39919974,16.067999 L4.48479973,16.180799 L4.37199974,16.266399 M3.57919979,16.157599 L3.18319981,16.103199 L3.09759982,15.990399 L3.21039981,15.9047991 L3.60639979,15.959199 L3.69199978,16.071999 L3.57919979,16.157599 M2.98639982,15.8735991 L2.87119983,15.7911991 L2.80639983,15.3967991 L2.88879983,15.2815991 L3.00319982,15.3639991 L3.06879982,15.7591991 L2.98639982,15.8735991 M2.85599983,15.0847991 L2.74079984,15.0023991 L2.67599984,14.6071991 L2.75839984,14.4927991 L2.87279983,14.5751991 L2.93839982,14.9695991 L2.85599983,15.0847991 M2.72559984,14.2951991 L2.61039984,14.2127992 L2.54559985,13.8183992 L2.62719984,13.7031992 L2.74239984,13.7855992 L2.80799983,14.1799992 L2.72559984,14.2951991 M2.59519985,13.5055992 L2.48639985,13.4279992 C2.54159985,13.4263992 2.59759985,13.4239992 2.65519984,13.4215992 L2.59519985,13.5055992" id="Fill-137" fill="#E3E3DD" mask="url(#mask-38)"></path>
                    <path d="M11.4911993,16.796799 L3.53759979,15.6815991 L3.14959981,13.4023992 C3.99919976,13.3679992 5.0247997,13.3167992 6.16959963,13.2415992 C9.43759944,13.0295992 13.6783992,12.6199992 17.483199,11.8631993 C18.5095989,11.6599993 19.5047988,11.4295993 20.4367988,11.1751993 C20.2239988,12.6351992 19.8159988,14.1391992 19.1335989,15.6055991 C18.8447989,15.6679991 18.5543989,15.7279991 18.2623989,15.7863991 C16.021599,16.231199 13.6943992,16.556799 11.4911993,16.796799" id="Fill-138" fill="#FFFFFF" mask="url(#mask-38)"></path>
                </g>
                <path d="M181.155189,158.125591 C181.155189,158.125591 186.455189,157.925591 189.567989,161.21839 C190.007989,161.68399 190.782389,161.71039 191.100789,161.15359 C191.258389,160.87679 191.287989,160.49199 191.021589,159.95839 C190.191189,158.297591 184.887989,155.425591 184.887989,155.425591" id="Fill-140" fill="#FBD0B6"></path>
                <path d="M183.355189,155.625591 C183.355189,155.625591 189.173589,157.725591 190.622389,159.48959 C191.028789,159.98479 191.836789,159.98159 192.155189,159.42559 C192.312789,159.148791 192.342389,158.763191 192.075989,158.230391 C191.245589,156.568791 185.487989,153.625591 185.487989,153.625591" id="Fill-141" fill="#FBD0B6"></path>
                <path d="M185.757589,155.126391 C185.757589,155.126391 190.206389,156.415991 191.934389,157.907991 C192.419989,158.326391 193.215188,158.185591 193.434388,157.583191 C193.542388,157.283991 193.506388,156.899191 193.152788,156.419191 C192.051189,154.923991 186.336789,152.996791 186.336789,152.996791" id="Fill-142" fill="#FBD0B6"></path>
                <path d="M186.017589,154.550391 C186.017589,154.550391 190.639989,154.847991 192.649589,155.930391 C193.214388,156.234391 193.959988,155.924791 194.043188,155.289591 C194.084788,154.973591 193.966388,154.606391 193.516788,154.213591 C192.118389,152.991991 186.122389,152.346391 186.122389,152.346391" id="Fill-143" fill="#FBD0B6"></path>
                <path d="M183.555189,151.925591 C183.555189,151.925591 186.655189,151.925591 188.355189,150.725591 C190.055189,149.525591 190.255189,152.925591 188.055189,153.025591" id="Fill-144" fill="#FBD0B6"></path>
                <path d="M129.964792,101.558394 C129.966392,101.559194 142.499192,105.292794 150.775191,107.695194 C151.623991,107.941594 152.511991,107.453594 152.758391,106.604794 C153.004791,105.755994 152.515991,104.868794 151.667991,104.622394 C147.539191,103.423194 142.340792,101.890394 138.175992,100.657594 C136.092792,100.041594 134.268792,99.4999941 132.964792,99.1119941 C131.660792,98.7247941 130.880792,98.4927941 130.878392,98.4919941 C130.031192,98.2391941 129.140792,98.7215941 128.887992,99.5687941 C128.635992,100.415194 129.117592,101.306394 129.964792,101.558394" id="Fill-146" fill="#F07905"></path>
                <path d="M137.939992,130.248792 C136.267992,130.368792 134.771992,129.224792 134.451992,127.579192 C133.219192,121.238393 131.567192,106.563194 142.531192,106.024794 C153.328791,105.493594 154.888791,119.459193 155.037591,125.877592 C155.078391,127.636792 153.719991,129.113592 151.964791,129.239992 L137.939992,130.248792" id="Fill-147" fill="#F98512"></path>
                <path d="M136.555192,78.4255956 C136.555192,80.6343952 134.763992,82.4255956 132.555192,82.4255956 C130.345592,82.4255956 128.555192,80.6343952 128.555192,78.4255956 C128.555192,76.2159955 130.345592,74.4255956 132.555192,74.4255956 C134.763992,74.4255956 136.555192,76.2159955 136.555192,78.4255956" id="Fill-148" fill="#F1B50F"></path>
                <path d="M216.442107,141.504866 C216.743414,144.640649 216.838708,147.660758 216.727987,150.565191 C216.617267,153.469624 216.399,156.129258 216.073187,158.544092" id="Path-2" stroke="#D0EDFF" stroke-width="2" opacity="0.5" stroke-linecap="round"></path>
            </g>
        </g>
    </g>
</svg>