<?xml version="1.0" encoding="UTF-8"?>
<svg width="16px" height="15px" viewBox="0 0 16 15" version="1.1" xmlns="http://www.w3.org/2000/svg" xmlns:xlink="http://www.w3.org/1999/xlink">
    <!-- Generator: Sketch 53.2 (72643) - https://sketchapp.com -->
    <title>61521</title>
    <desc>Created with Sketch.</desc>
    <g id="Page-1" stroke="none" stroke-width="1" fill="none" fill-rule="evenodd">
        <g id="Cart-Page" transform="translate(-1046.000000, -374.000000)" fill="#ED9340" fill-rule="nonzero">
            <g id="61521" transform="translate(1046.000000, 374.000000)">
                <path d="M9.9631746,8.52195962 C9.78017234,8.52195962 9.64331973,8.65428741 9.57794104,8.73320665 C9.4319093,8.90960808 9.34806349,9.16286223 9.34806349,9.42794537 C9.34806349,9.6930285 9.4319093,9.94628266 9.57794104,10.1227197 C9.64331973,10.2016033 9.78017234,10.3339311 9.9631746,10.3339311 C10.1461769,10.3339311 10.2830295,10.2016033 10.3484082,10.1227197 C10.4944399,9.94628266 10.5782857,9.6930285 10.5782857,9.42794537 C10.5782857,9.16286223 10.4944399,8.90960808 10.3484082,8.73320665 C10.283102,8.65425178 10.1461769,8.52195962 9.9631746,8.52195962 Z" id="Path"></path>
                <path d="M6.03660771,6.47779097 C6.21960998,6.47779097 6.35646259,6.34546318 6.42184127,6.26657957 C6.5679093,6.09014252 6.65171882,5.83692399 6.65171882,5.57180523 C6.65171882,5.30668646 6.5679093,5.05350356 6.42184127,4.87706651 C6.35646259,4.7981829 6.21960998,4.66585511 6.03660771,4.66585511 C5.85360544,4.66585511 5.71675283,4.7981829 5.65137415,4.87706651 C5.50530612,5.05350356 5.4214966,5.30668646 5.4214966,5.57180523 C5.4214966,5.83692399 5.50530612,6.09014252 5.65137415,6.26657957 C5.71671655,6.34549881 5.85360544,6.47779097 6.03660771,6.47779097 Z" id="Path"></path>
                <path d="M15.7927982,7.09157957 L13.834195,5.63811164 L14.548898,3.33106888 C14.5964989,3.17750594 14.5679456,3.01097387 14.471873,2.88114014 C14.3758367,2.75134204 14.2232018,2.67331354 14.0598639,2.67035629 L11.604644,2.62635392 L10.8040998,0.346175772 C10.7508027,0.19432304 10.6279546,0.0758551069 10.472381,0.0262589074 C10.3169887,-0.0233729216 10.1466122,0.00160332542 10.012517,0.0936698337 L7.99981859,1.47659145 L5.98712018,0.0935985748 C5.85313379,0.00156769596 5.68282993,-0.0234441805 5.52729252,0.0261876485 C5.37168254,0.0758194774 5.24894331,0.194287411 5.1955737,0.346104513 L4.39506576,2.62624703 L1.9398458,2.67028504 C1.77650794,2.67324228 1.62394558,2.75123515 1.52787302,2.88106888 C1.43180045,3.01090261 1.40321088,3.17747031 1.45077551,3.33099762 L2.16555102,5.63800475 L0.206984127,7.09157957 C0.0765895692,7.18827791 0,7.33948931 0,7.49989311 C0,7.66033254 0.0765895692,7.81150831 0.206984127,7.90824228 L2.1655873,9.36171021 L1.45088435,11.6687173 C1.40331973,11.8222803 1.4319093,11.9888124 1.52798186,12.1186461 C1.62405442,12.2484442 1.77665306,12.3264727 1.93995465,12.3294299 L4.3951746,12.3734679 L5.19568254,14.6536105 C5.24897959,14.8054632 5.37179138,14.9239311 5.5273288,14.9735273 C5.68279365,15.0231948 5.85313379,14.9981829 5.98715646,14.9060808 L7.99985488,13.5231591 L10.0126259,14.9061164 C10.1012608,14.9670071 10.2057868,14.9985748 10.3114376,14.9985748 C10.365424,14.9985748 10.4197732,14.99038 10.4724535,14.9735273 C10.6279546,14.9238955 10.7508027,14.8054276 10.8040998,14.6536105 L11.6045714,12.3734679 L14.0599002,12.3293943 C14.2232381,12.3264371 14.3758005,12.2484442 14.4718367,12.1186105 C14.5679093,11.9887767 14.5965351,11.8222447 14.5489342,11.6686817 L13.8341587,9.36171021 L15.7927619,7.90820665 C15.9231565,7.81147268 15.999746,7.66029691 15.999746,7.49985748 C15.999746,7.33941805 15.9231927,7.18824228 15.7927982,7.09157957 Z M6.03660771,3.95522565 C6.77601814,3.95522565 7.3754195,4.67900238 7.3754195,5.57187648 C7.3754195,6.46478622 6.77601814,7.18856295 6.03660771,7.18856295 C5.29719728,7.18856295 4.69779592,6.46478622 4.69779592,5.57187648 C4.69775964,4.67900238 5.29719728,3.95522565 6.03660771,3.95522565 Z M5.95149206,11.0514727 C5.86779138,11.1658076 5.73209977,11.2340736 5.58849887,11.2340736 C5.49485714,11.2340736 5.40495238,11.2055701 5.32861678,11.1516983 C5.12874376,11.0107126 5.08295692,10.7363302 5.22655782,10.5400475 L10.0483265,3.94824228 C10.1319909,3.83390736 10.2676825,3.76564133 10.4113197,3.76564133 C10.5049252,3.76564133 10.5948299,3.79414489 10.6711655,3.84801663 C10.8710385,3.98900238 10.9168254,4.2633848 10.7732245,4.45966746 L5.95149206,11.0514727 Z M9.9631746,11.0445249 C9.22376417,11.0445249 8.62436281,10.3207838 8.62436281,9.42783848 C8.62436281,8.535 9.22376417,7.81122328 9.9631746,7.81122328 C10.702585,7.81122328 11.3019501,8.535 11.3019501,9.42783848 C11.3020227,10.3207482 10.702585,11.0445249 9.9631746,11.0445249 Z" id="Shape"></path>
            </g>
        </g>
    </g>
</svg>