<?xml version="1.0" encoding="UTF-8"?>
<svg width="32px" height="32px" viewBox="0 0 32 32" version="1.1" xmlns="http://www.w3.org/2000/svg" xmlns:xlink="http://www.w3.org/1999/xlink">
    <!-- Generator: Sketch 53.2 (72643) - https://sketchapp.com -->
    <title>174848</title>
    <desc>Created with Sketch.</desc>
    <g id="Page-1" stroke="none" stroke-width="1" fill="none" fill-rule="evenodd">
        <g id="Landing-page-v4" transform="translate(-1062.000000, -6229.000000)" fill="#475993" fill-rule="nonzero">
            <g id="174848" transform="translate(1062.000000, 6229.000000)">
                <path d="M27.6734279,0 L4.30998533,0 C1.92977995,0 0.000156479218,1.92954523 0.000156479218,4.30982885 L0.000156479218,27.6734279 C0.000156479218,30.0537115 1.92970171,31.9832567 4.30998533,31.9832567 L15.8327237,31.9832567 L15.8523619,20.5541711 L12.8830905,20.5541711 C12.4972127,20.5541711 12.1840196,20.2421516 12.182533,19.8562738 L12.1682934,16.1722054 C12.1668068,15.7842152 12.4809389,15.4689095 12.8689291,15.4689095 L15.832802,15.4689095 L15.832802,11.9091638 C15.832802,7.77811247 18.3557946,5.52872372 22.0409584,5.52872372 L25.0649193,5.52872372 C25.4518142,5.52872372 25.765555,5.84238631 25.765555,6.22935941 L25.765555,9.33578484 C25.765555,9.72260147 25.4520489,10.0361858 25.0653105,10.0364205 L23.2095452,10.0372812 C21.2054377,10.0372812 20.8173692,10.9896137 20.8173692,12.3872078 L20.8173692,15.4689878 L25.2210856,15.4689878 C25.6406846,15.4689878 25.9662396,15.8353839 25.9167922,16.252088 L25.4801369,19.9361565 C25.438357,20.2887042 25.1394034,20.5543276 24.7844303,20.5543276 L20.8370073,20.5543276 L20.8173692,31.9834132 L27.6735844,31.9834132 C30.0537897,31.9834132 31.983335,30.053868 31.983335,27.6736626 L31.983335,4.30982885 C31.9832567,1.92954523 30.0537115,0 27.6734279,0 Z" id="Path"></path>
            </g>
        </g>
    </g>
</svg>