<?xml version="1.0" encoding="UTF-8"?>
<svg width="26px" height="26px" viewBox="0 0 26 26" version="1.1" xmlns="http://www.w3.org/2000/svg" xmlns:xlink="http://www.w3.org/1999/xlink">
    <!-- Generator: Sketch 53.2 (72643) - https://sketchapp.com -->
    <title>iconmonstr-facebook-6</title>
    <desc>Created with Sketch.</desc>
    <g id="Page-1" stroke="none" stroke-width="1" fill="none" fill-rule="evenodd">
        <g id="Sign-Up" transform="translate(-601.000000, -720.000000)" fill="#FFFFFF" fill-rule="nonzero">
            <g id="iconmonstr-facebook-6" transform="translate(601.000000, 720.000000)">
                <path d="M24.5645833,7.21644966e-16 L1.43541667,7.21644966e-16 C0.642416667,7.21644966e-16 0,0.642416667 0,1.43541667 L0,24.5656667 C0,25.3575833 0.642416667,26 1.43541667,26 L13.8883333,26 L13.8883333,15.9315 L10.4996667,15.9315 L10.4996667,12.0076667 L13.8883333,12.0076667 L13.8883333,9.11408333 C13.8883333,5.75575 15.9390833,3.92708333 18.9355833,3.92708333 C20.371,3.92708333 21.6038333,4.03433333 21.9635,4.082 L21.9635,7.592 L19.8856667,7.59308333 C18.2563333,7.59308333 17.9410833,8.36766667 17.9410833,9.503 L17.9410833,12.00875 L21.827,12.00875 L21.3210833,15.9325833 L17.9410833,15.9325833 L17.9410833,26 L24.56675,26 C25.3575833,26 26,25.3575833 26,24.5645833 L26,1.43541667 C26,0.642416667 25.3575833,0 24.5645833,7.21644966e-16 Z" id="Path"></path>
            </g>
        </g>
    </g>
</svg>