<?xml version="1.0" encoding="UTF-8"?>
<svg width="24px" height="20px" viewBox="0 0 24 20" version="1.1" xmlns="http://www.w3.org/2000/svg" xmlns:xlink="http://www.w3.org/1999/xlink">
    <!-- Generator: Sketch 53.2 (72643) - https://sketchapp.com -->
    <title>1658636</title>
    <desc>Created with Sketch.</desc>
    <g id="Page-1" stroke="none" stroke-width="1" fill="none" fill-rule="evenodd">
        <g id="Artboard" transform="translate(-1492.000000, -2065.000000)" fill="#000000" fill-rule="nonzero">
            <g id="1658636" transform="translate(1492.000000, 2065.000000)">
                <path d="M0,3.3984375 C0,2.75115967 0.524597168,2.2265625 1.171875,2.2265625 L4.453125,2.2265625 L4.453125,1.171875 C4.453125,0.524597168 4.97772217,0 5.625,0 C6.27227783,0 6.796875,0.524597168 6.796875,1.171875 L6.796875,2.2265625 L22.828125,2.2265625 C23.4754028,2.2265625 24,2.75115967 24,3.3984375 C24,4.04571533 23.4754028,4.5703125 22.828125,4.5703125 L6.796875,4.5703125 L6.796875,5.625 C6.796875,6.27227783 6.27227783,6.796875 5.625,6.796875 C4.97772217,6.796875 4.453125,6.27227783 4.453125,5.625 L4.453125,4.5703125 L1.171875,4.5703125 C0.524597168,4.5703125 0,4.04571533 0,3.3984375 Z M22.828125,14.828125 L19.171875,14.828125 L19.171875,13.7734375 C19.171875,13.1261597 18.6472778,12.6015625 18,12.6015625 C17.3527222,12.6015625 16.828125,13.1261597 16.828125,13.7734375 L16.828125,14.828125 L1.171875,14.828125 C0.524597168,14.828125 0,15.3527222 0,16 C0,16.6472778 0.524597168,17.171875 1.171875,17.171875 L16.828125,17.171875 L16.828125,18.2265625 C16.828125,18.8738403 17.3527222,19.3984375 18,19.3984375 C18.6472778,19.3984375 19.171875,18.8738403 19.171875,18.2265625 L19.171875,17.171875 L22.828125,17.171875 C23.4754028,17.171875 24,16.6472778 24,16 C24,15.3527222 23.4754028,14.828125 22.828125,14.828125 Z" id="Shape"></path>
            </g>
        </g>
    </g>
</svg>