<?xml version="1.0" encoding="UTF-8"?>
<svg width="22px" height="22px" viewBox="0 0 22 22" version="1.1" xmlns="http://www.w3.org/2000/svg" xmlns:xlink="http://www.w3.org/1999/xlink">
    <!-- Generator: Sketch 53.2 (72643) - https://sketchapp.com -->
    <title>search</title>
    <desc>Created with Sketch.</desc>
    <g id="Page-1" stroke="none" stroke-width="1" fill="none" fill-rule="evenodd">
        <g id="Sign-Up" transform="translate(-644.000000, -777.000000)" fill-rule="nonzero">
            <g id="Group-5" transform="translate(514.000000, 224.000000)">
                <g id="Group-2" transform="translate(130.000000, 553.000000)">
                    <g id="search">
                        <path d="M4.87566406,13.294875 L4.109875,16.1536719 L1.31093359,16.2128828 C0.474460937,14.6614102 0,12.8863281 0,11 C0,9.17593359 0.443609375,7.45580859 1.2299375,5.94120313 L1.23053906,5.94120313 L3.72238281,6.39804688 L4.81396094,8.8749375 C4.58549609,9.54099609 4.46097266,10.2559961 4.46097266,11 C4.46105859,11.8074688 4.60732422,12.5811211 4.87566406,13.294875 Z" id="Path" fill="#FBBB00"></path>
                        <path d="M21.8078008,8.9450625 C21.9341289,9.61047656 22,10.2976758 22,11 C22,11.7875312 21.9171992,12.5557266 21.7594609,13.2967227 C21.2239844,15.8182578 19.824793,18.0200625 17.8865156,19.5781953 L17.8859141,19.5775937 L14.7473047,19.4174492 L14.3030937,16.6444609 C15.5892344,15.8901875 16.5943594,14.709793 17.1238203,13.2967227 L11.2418281,13.2967227 L11.2418281,8.9450625 L17.2096289,8.9450625 L21.8078008,8.9450625 L21.8078008,8.9450625 Z" id="Path" fill="#518EF8"></path>
                        <path d="M17.8858711,19.5775938 L17.8864727,19.5781953 C16.0013906,21.0934023 13.6067422,22 11,22 C6.81093359,22 3.16885937,19.6585898 1.31093359,16.2129258 L4.87566406,13.294918 C5.80460547,15.7741289 8.19620312,17.5389844 11,17.5389844 C12.2051445,17.5389844 13.3341914,17.2131953 14.3030078,16.6444609 L17.8858711,19.5775938 Z" id="Path" fill="#28B446"></path>
                        <path d="M18.0212656,2.53240625 L14.4577383,5.4498125 C13.4550625,4.82307031 12.2698125,4.46101562 11,4.46101562 C8.13273828,4.46101562 5.69641016,6.30682422 4.81400391,8.8749375 L1.23053906,5.94120312 L1.2299375,5.94120312 C3.06066406,2.41153516 6.74867188,0 11,0 C13.6690039,0 16.1162031,0.950726562 18.0212656,2.53240625 Z" id="Path" fill="#F14336"></path>
                    </g>
                </g>
            </g>
        </g>
    </g>
</svg>