<?xml version="1.0" encoding="UTF-8"?>
<svg width="30px" height="28px" viewBox="0 0 30 28" version="1.1" xmlns="http://www.w3.org/2000/svg" xmlns:xlink="http://www.w3.org/1999/xlink">
    <!-- Generator: Sketch 53.2 (72643) - https://sketchapp.com -->
    <title>223494</title>
    <desc>Created with Sketch.</desc>
    <g id="Page-1" stroke="none" stroke-width="1" fill="none" fill-rule="evenodd">
        <g id="Landing-page-v3" transform="translate(-150.000000, -657.000000)" fill="#252931" fill-rule="nonzero">
            <g id="223494" transform="translate(150.000000, 657.000000)">
                <path d="M25.7142857,10.5924528 C25.7142857,4.72830189 20.9196429,0 15,0 C9.08035714,0 4.28571429,4.72830189 4.28571429,10.5660377 C4.28571429,10.5660377 4.28571429,10.5660377 4.28571429,10.5924528 C1.90178571,10.7245283 0,12.6792453 0,15.0566038 L0,15.5849057 C0,18.0679245 2.03571429,20.0754717 4.55357143,20.0754717 L4.79464286,20.0754717 L6.69642857,23.0603774 C8.03571429,25.1735849 10.3125,26.4150943 12.8303571,26.4150943 L13.2053571,26.4150943 C13.4464286,27.3132075 14.2767857,28 15.2678571,28 C16.4464286,28 17.4107143,27.0490566 17.4107143,25.8867925 C17.4107143,24.7245283 16.4464286,23.7735849 15.2678571,23.7735849 C14.2767857,23.7735849 13.4464286,24.4603774 13.2053571,25.3584906 L12.8303571,25.3584906 C10.6875,25.3584906 8.73214286,24.2754717 7.60714286,22.4792453 L6.05357143,20.0754717 L6.42857143,20.0754717 C7.01785714,20.0754717 7.5,19.6 7.5,19.0188679 L7.5,11.6226415 C7.5,11.0415094 7.01785714,10.5660377 6.42857143,10.5660377 L5.35714286,10.5660377 C5.35714286,5.30943396 9.66964286,1.05660377 15,1.05660377 C20.3303571,1.05660377 24.6428571,5.30943396 24.6428571,10.5660377 L23.5714286,10.5660377 C22.9821429,10.5660377 22.5,11.0415094 22.5,11.6226415 L22.5,19.0188679 C22.5,19.6 22.9821429,20.0754717 23.5714286,20.0754717 L25.4464286,20.0754717 C27.9642857,20.0754717 30,18.0679245 30,15.5849057 L30,15.0566038 C30,12.6792453 28.0982143,10.7245283 25.7142857,10.5924528 Z M15.2678571,24.8301887 C15.8571429,24.8301887 16.3392857,25.3056604 16.3392857,25.8867925 C16.3392857,26.4679245 15.8571429,26.9433962 15.2678571,26.9433962 C14.6785714,26.9433962 14.1964286,26.4679245 14.1964286,25.8867925 C14.1964286,25.3056604 14.6785714,24.8301887 15.2678571,24.8301887 Z M6.42857143,11.6226415 L6.42857143,19.0188679 L4.55357143,19.0188679 C2.625,19.0188679 1.07142857,17.4867925 1.07142857,15.5849057 L1.07142857,15.0566038 C1.07142857,13.154717 2.625,11.6226415 4.55357143,11.6226415 L6.42857143,11.6226415 Z M28.9285714,15.5849057 C28.9285714,17.4867925 27.375,19.0188679 25.4464286,19.0188679 L23.5714286,19.0188679 L23.5714286,11.6226415 L25.4464286,11.6226415 C27.375,11.6226415 28.9285714,13.154717 28.9285714,15.0566038 L28.9285714,15.5849057 Z" id="Shape"></path>
                <path d="M19.4464286,3.98867925 C19.3928571,3.96226415 19.3125,3.90943396 19.2321429,3.85660377 C19.1517857,3.80377358 19.0714286,3.7509434 19.0178571,3.7245283 C18.7767857,3.56603774 18.4285714,3.64528302 18.2946429,3.90943396 C18.1607143,4.17358491 18.2142857,4.46415094 18.4821429,4.62264151 C18.5357143,4.6490566 18.6160714,4.70188679 18.6964286,4.75471698 C18.7767857,4.80754717 18.8571429,4.86037736 18.9375,4.88679245 C19.0178571,4.93962264 19.125,4.96603774 19.2053571,4.96603774 C19.3928571,4.96603774 19.5535714,4.88679245 19.6607143,4.70188679 C19.7946429,4.46415094 19.7142857,4.14716981 19.4464286,3.98867925 Z" id="Path"></path>
                <path d="M15,2.64150943 C12.7232143,2.64150943 10.5803571,3.61886792 9.10714286,5.30943396 C8.91964286,5.52075472 8.94642857,5.86415094 9.16071429,6.0490566 C9.26785714,6.12830189 9.375,6.18113208 9.50892857,6.18113208 C9.66964286,6.18113208 9.80357143,6.12830189 9.91071429,5.99622642 C11.1964286,4.54339623 13.0446429,3.69811321 15,3.69811321 C15.4821429,3.69811321 15.9642857,3.7509434 16.4464286,3.85660377 C16.7410714,3.90943396 17.0089286,3.7245283 17.0892857,3.46037736 C17.1696429,3.19622642 16.9553571,2.90566038 16.6875,2.82641509 C16.125,2.69433962 15.5625,2.64150943 15,2.64150943 Z" id="Path"></path>
            </g>
        </g>
    </g>
</svg>