<?xml version="1.0" encoding="UTF-8"?>
<svg width="20px" height="18px" viewBox="0 0 20 18" version="1.1" xmlns="http://www.w3.org/2000/svg" xmlns:xlink="http://www.w3.org/1999/xlink">
    <!-- Generator: Sketch 53.2 (72643) - https://sketchapp.com -->
    <title>126471</title>
    <desc>Created with Sketch.</desc>
    <g id="Page-1" stroke="none" stroke-width="1" fill="none" fill-rule="evenodd">
        <g id="Landing-page-v3" transform="translate(-962.000000, -1355.000000)" fill="#D63242" fill-rule="nonzero">
            <g id="126471" transform="translate(962.000000, 1355.000000)">
                <path d="M18.3729237,1.68754327 C17.3263136,0.618793269 15.9407203,0.0346586538 14.4619068,0.0346586538 C12.9830932,0.0346586538 11.5932627,0.623120192 10.5466525,1.69187019 L10.0000424,2.25004327 L9.44495763,1.68321635 C8.39834746,0.614466346 7.00427966,0.0216778846 5.5254661,0.0216778846 C4.05088983,0.0216778846 2.66105932,0.610139423 1.61868644,1.6745625 C0.572076271,2.7433125 -0.00419491525,4.16254327 4.23728814e-05,5.67263942 C4.23728814e-05,7.18273558 0.580550847,8.59763942 1.62716102,9.66638942 L9.58478814,17.792351 C9.69495763,17.904851 9.84326271,17.9654279 9.98733051,17.9654279 C10.1313983,17.9654279 10.2797034,17.9091779 10.3898729,17.7966779 L18.3644492,9.68369712 C19.4110593,8.61494712 19.9873305,7.19571635 19.9873305,5.68562019 C19.9915678,4.17552404 19.4195339,2.75629327 18.3729237,1.68754327 Z" id="Shape"></path>
            </g>
        </g>
    </g>
</svg>