<?xml version="1.0" encoding="UTF-8"?>
<svg width="14px" height="14px" viewBox="0 0 14 14" version="1.1" xmlns="http://www.w3.org/2000/svg" xmlns:xlink="http://www.w3.org/1999/xlink">
    <!-- Generator: Sketch 53.2 (72643) - https://sketchapp.com -->
    <title>Combined Shape</title>
    <desc>Created with Sketch.</desc>
    <g id="Page-1" stroke="none" stroke-width="1" fill="none" fill-rule="evenodd" opacity="0.400000006">
        <g id="Cart-Page" transform="translate(-1135.000000, -241.000000)" fill="#000000" fill-rule="nonzero">
            <g id="131917" transform="translate(1135.000000, 241.000000)">
                <path d="M7,0 C10.8596923,0 14,3.14009231 14,7 C14,10.8599077 10.8596923,14 7,14 C3.14030769,14 0,10.8599077 0,7 C0,3.14009231 3.14030769,0 7,0 Z M7,13.1384615 C10.3847692,13.1384615 13.1384615,10.3847692 13.1384615,7 C13.1384615,3.61523077 10.3847692,0.861538462 7,0.861538462 C3.61523077,0.861538462 0.861538462,3.61523077 0.861538462,7 C0.861538462,10.3847692 3.61523077,13.1384615 7,13.1384615 Z M7.11156923,4.92929231 C6.71366931,4.92929231 6.39110769,4.60673069 6.39110769,4.20883077 C6.39110769,3.81093085 6.71366931,3.48836923 7.11156923,3.48836923 C7.50946915,3.48836923 7.83203077,3.81093085 7.83203077,4.20883077 C7.83203077,4.60673069 7.50946915,4.92929231 7.11156923,4.92929231 Z M7.08947285,6.08188945 C7.32725746,6.08188945 7.68789954,6.2972 7.68789954,6.5352 L7.68789954,10.1967385 C7.68789954,10.4345231 7.32725746,10.6049664 7.08947285,10.6049664 C6.85168823,10.6049664 6.49104615,10.4345231 6.49104615,10.1967385 L6.49104615,6.5352 C6.49104615,6.29741538 6.85168823,6.08188945 7.08947285,6.08188945 Z" id="Combined-Shape"></path>
            </g>
        </g>
    </g>
</svg>