<?xml version="1.0" encoding="UTF-8"?>
<svg width="26px" height="24px" viewBox="0 0 26 24" version="1.1" xmlns="http://www.w3.org/2000/svg" xmlns:xlink="http://www.w3.org/1999/xlink">
    <!-- Generator: Sketch 53.2 (72643) - https://sketchapp.com -->
    <title>126471</title>
    <desc>Created with Sketch.</desc>
    <defs>
        <filter x="-40.0%" y="-44.4%" width="180.0%" height="188.9%" filterUnits="objectBoundingBox" id="filter-1">
            <feOffset dx="0" dy="1" in="SourceAlpha" result="shadowOffsetOuter1"></feOffset>
            <feGaussianBlur stdDeviation="1.5" in="shadowOffsetOuter1" result="shadowBlurOuter1"></feGaussianBlur>
            <feColorMatrix values="0 0 0 0 1   0 0 0 0 1   0 0 0 0 1  0 0 0 1 0" type="matrix" in="shadowBlurOuter1" result="shadowMatrixOuter1"></feColorMatrix>
            <feMerge>
                <feMergeNode in="shadowMatrixOuter1"></feMergeNode>
                <feMergeNode in="SourceGraphic"></feMergeNode>
            </feMerge>
        </filter>
    </defs>
    <g id="Page-1" stroke="none" stroke-width="1" fill="none" fill-rule="evenodd">
        <g id="Landing-page-v3" transform="translate(-374.000000, -1353.000000)" fill="#252931" fill-rule="nonzero">
            <g id="126471" filter="url(#filter-1)" transform="translate(377.000000, 1355.000000)">
                <path d="M18.3729237,1.68754327 C17.3263136,0.618793269 15.9407203,0.0346586538 14.4619068,0.0346586538 C12.9830932,0.0346586538 11.5932627,0.623120192 10.5466525,1.69187019 L10.0000424,2.25004327 L9.44495763,1.68321635 C8.39834746,0.614466346 7.00427966,0.0216778846 5.5254661,0.0216778846 C4.05088983,0.0216778846 2.66105932,0.610139423 1.61868644,1.6745625 C0.572076271,2.7433125 -0.00419491525,4.16254327 4.23728814e-05,5.67263942 C4.23728814e-05,7.18273558 0.580550847,8.59763942 1.62716102,9.66638942 L9.58478814,17.792351 C9.69495763,17.904851 9.84326271,17.9654279 9.98733051,17.9654279 C10.1313983,17.9654279 10.2797034,17.9091779 10.3898729,17.7966779 L18.3644492,9.68369712 C19.4110593,8.61494712 19.9873305,7.19571635 19.9873305,5.68562019 C19.9915678,4.17552404 19.4195339,2.75629327 18.3729237,1.68754327 Z M17.5593644,8.85725481 L9.98733051,16.5591779 L2.43224576,8.84427404 C1.60173729,7.99619712 1.14411017,6.87119712 1.14411017,5.67263942 C1.14411017,4.47408173 1.5975,3.34908173 2.42800847,2.50533173 C3.25427966,1.66158173 4.35597458,1.19427404 5.5254661,1.19427404 C6.69919492,1.19427404 7.80512712,1.66158173 8.63563559,2.50965865 L9.59326271,3.48754327 C9.81783898,3.71687019 10.1780085,3.71687019 10.4025847,3.48754327 L11.3517373,2.5183125 C12.1822458,1.67023558 13.288178,1.20292788 14.4576695,1.20292788 C15.627161,1.20292788 16.7288559,1.67023558 17.5593644,2.51398558 C18.3898729,3.3620625 18.8432627,4.4870625 18.8432627,5.68562019 C18.8475,6.88417788 18.3898729,8.00917788 17.5593644,8.85725481 Z" id="Shape"></path>
            </g>
        </g>
    </g>
</svg>