<?xml version="1.0" encoding="UTF-8"?>
<svg width="159px" height="34px" viewBox="0 0 159 34" version="1.1" xmlns="http://www.w3.org/2000/svg" xmlns:xlink="http://www.w3.org/1999/xlink">
    <!-- Generator: Sketch 53.2 (72643) - https://sketchapp.com -->
    <title>Group 24</title>
    <desc>Created with Sketch.</desc>
    <g id="Page-1" stroke="none" stroke-width="1" fill="none" fill-rule="evenodd">
        <g id="Landing-page-v4" transform="translate(-150.000000, -101.000000)">
            <g id="Group-24" transform="translate(150.000000, 99.000000)">
                <g id="Group-6" transform="translate(8.000000, 0.000000)">
                    <path d="M1,19 L1,24 L1,19 Z" id="Rectangle" fill="#EC892E"></path>
                    <path d="M37.584,20 L37.584,3.992 L45.072,3.992 C48.552,3.992 50.448,6.344 50.448,9.152 C50.448,11.936 48.528,14.264 45.072,14.264 L40.992,14.264 L40.992,20 L37.584,20 Z M46.968,9.128 C46.968,7.808 45.96,6.92 44.616,6.92 L40.992,6.92 L40.992,11.336 L44.616,11.336 C45.96,11.336 46.968,10.472 46.968,9.128 Z M57.336,20.288 C53.52,20.288 51.216,17.504 51.216,14.192 C51.216,10.904 53.52,8.12 57.336,8.12 C61.176,8.12 63.48,10.904 63.48,14.192 C63.48,17.504 61.176,20.288 57.336,20.288 Z M57.336,17.576 C59.232,17.576 60.312,16.016 60.312,14.192 C60.312,12.392 59.232,10.832 57.336,10.832 C55.44,10.832 54.384,12.392 54.384,14.192 C54.384,16.016 55.44,17.576 57.336,17.576 Z M75.792,20 L73.344,12.104 L70.896,20 L67.632,20 L64.104,8.408 L67.272,8.408 L69.432,16.208 L71.976,8.408 L74.688,8.408 L77.232,16.208 L79.392,8.408 L82.56,8.408 L79.032,20 L75.792,20 Z M83.208,14.192 C83.208,10.832 85.68,8.12 89.208,8.12 C92.664,8.12 95.016,10.712 95.016,14.504 L95.016,15.176 L86.4,15.176 C86.592,16.64 87.768,17.864 89.736,17.864 C90.816,17.864 92.088,17.432 92.832,16.712 L94.176,18.68 C93.024,19.736 91.2,20.288 89.4,20.288 C85.872,20.288 83.208,17.912 83.208,14.192 Z M89.208,10.544 C87.312,10.544 86.496,11.96 86.352,13.112 L92.064,13.112 C91.992,12.008 91.224,10.544 89.208,10.544 Z M97.104,20 L97.104,8.408 L100.152,8.408 L100.152,9.992 C100.968,8.96 102.408,8.144 103.848,8.144 L103.848,11.12 C103.632,11.072 103.344,11.024 103.008,11.024 C102,11.024 100.656,11.6 100.152,12.344 L100.152,20 L97.104,20 Z M105.624,20 L105.624,3.992 L108.672,3.992 L108.672,20 L105.624,20 Z M116.952,20.288 C113.136,20.288 110.832,17.504 110.832,14.192 C110.832,10.904 113.136,8.12 116.952,8.12 C120.792,8.12 123.096,10.904 123.096,14.192 C123.096,17.504 120.792,20.288 116.952,20.288 Z M116.952,17.576 C118.848,17.576 119.928,16.016 119.928,14.192 C119.928,12.392 118.848,10.832 116.952,10.832 C115.056,10.832 114,12.392 114,14.192 C114,16.016 115.056,17.576 116.952,17.576 Z M130.608,20.288 C126.792,20.288 124.488,17.504 124.488,14.192 C124.488,10.904 126.792,8.12 130.608,8.12 C134.448,8.12 136.752,10.904 136.752,14.192 C136.752,17.504 134.448,20.288 130.608,20.288 Z M130.608,17.576 C132.504,17.576 133.584,16.016 133.584,14.192 C133.584,12.392 132.504,10.832 130.608,10.832 C128.712,10.832 127.656,12.392 127.656,14.192 C127.656,16.016 128.712,17.576 130.608,17.576 Z M146.4,20 L143.328,15.536 L141.936,17.024 L141.936,20 L138.888,20 L138.888,3.992 L141.936,3.992 L141.936,13.568 L146.328,8.408 L150.072,8.408 L145.488,13.664 L150.216,20 L146.4,20 Z" id="Powerlook" fill="#252931" fill-rule="nonzero"></path>
                    <path d="M44.926,35 L44.926,28.94 L42.466,35 L41.866,35 L39.418,28.94 L39.418,35 L38.014,35 L38.014,26.996 L39.994,26.996 L42.166,32.384 L44.35,26.996 L46.33,26.996 L46.33,35 L44.926,35 Z M49.034,35 L49.034,26.996 L54.518,26.996 L54.518,28.232 L50.438,28.232 L50.438,30.308 L54.434,30.308 L54.434,31.544 L50.438,31.544 L50.438,33.764 L54.518,33.764 L54.518,35 L49.034,35 Z M62.538,35 L58.362,29.168 L58.362,35 L56.958,35 L56.958,26.996 L58.398,26.996 L62.49,32.672 L62.49,26.996 L63.894,26.996 L63.894,35 L62.538,35 Z M66.994,30.02 L66.43,29.552 C66.814,29.324 67.21,28.832 67.294,28.424 C67.258,28.436 67.162,28.46 67.09,28.46 C66.682,28.46 66.37,28.148 66.37,27.704 C66.37,27.248 66.742,26.876 67.186,26.876 C67.678,26.876 68.122,27.272 68.122,27.968 C68.122,28.796 67.654,29.552 66.994,30.02 Z M70.01,33.872 L70.79,32.792 C71.342,33.38 72.206,33.896 73.322,33.896 C74.474,33.896 74.93,33.332 74.93,32.804 C74.93,32.084 74.078,31.868 73.106,31.616 C71.798,31.292 70.262,30.908 70.262,29.216 C70.262,27.896 71.426,26.876 73.178,26.876 C74.426,26.876 75.434,27.272 76.178,27.992 L75.374,29.036 C74.75,28.412 73.898,28.124 73.058,28.124 C72.23,28.124 71.702,28.52 71.702,29.12 C71.702,29.744 72.518,29.948 73.466,30.188 C74.786,30.524 76.358,30.932 76.358,32.672 C76.358,34.004 75.422,35.144 73.262,35.144 C71.786,35.144 70.718,34.628 70.01,33.872 Z M82.738,35 L82.738,26.996 L88.222,26.996 L88.222,28.232 L84.142,28.232 L84.142,30.308 L88.138,30.308 L88.138,31.544 L84.142,31.544 L84.142,35 L82.738,35 Z M95.666,35 L95.078,33.464 L91.286,33.464 L90.698,35 L89.162,35 L92.306,26.996 L94.058,26.996 L97.202,35 L95.666,35 Z M93.182,28.184 L91.682,32.228 L94.682,32.228 L93.182,28.184 Z M98.442,33.872 L99.222,32.792 C99.774,33.38 100.638,33.896 101.754,33.896 C102.906,33.896 103.362,33.332 103.362,32.804 C103.362,32.084 102.51,31.868 101.538,31.616 C100.23,31.292 98.694,30.908 98.694,29.216 C98.694,27.896 99.858,26.876 101.61,26.876 C102.858,26.876 103.866,27.272 104.61,27.992 L103.806,29.036 C103.182,28.412 102.33,28.124 101.49,28.124 C100.662,28.124 100.134,28.52 100.134,29.12 C100.134,29.744 100.95,29.948 101.898,30.188 C103.218,30.524 104.79,30.932 104.79,32.672 C104.79,34.004 103.854,35.144 101.694,35.144 C100.218,35.144 99.15,34.628 98.442,33.872 Z M112.654,35 L112.654,31.508 L108.49,31.508 L108.49,35 L107.086,35 L107.086,26.996 L108.49,26.996 L108.49,30.272 L112.654,30.272 L112.654,26.996 L114.058,26.996 L114.058,35 L112.654,35 Z M116.762,35 L116.762,26.996 L118.166,26.996 L118.166,35 L116.762,35 Z M120.51,31.004 C120.51,28.616 122.202,26.864 124.602,26.864 C127.002,26.864 128.694,28.616 128.694,31.004 C128.694,33.392 127.002,35.144 124.602,35.144 C122.202,35.144 120.51,33.392 120.51,31.004 Z M127.254,31.004 C127.254,29.348 126.21,28.112 124.602,28.112 C122.982,28.112 121.95,29.348 121.95,31.004 C121.95,32.648 122.982,33.896 124.602,33.896 C126.21,33.896 127.254,32.648 127.254,31.004 Z M136.63,35 L132.454,29.168 L132.454,35 L131.05,35 L131.05,26.996 L132.49,26.996 L136.582,32.672 L136.582,26.996 L137.986,26.996 L137.986,35 L136.63,35 Z" id="MEN’SFASHION" fill="#212930" fill-rule="nonzero" opacity="0.600000024"></path>
                </g>
                <g id="Group-15" transform="translate(0.000000, 2.000000)">
                    <path d="M9,8 L18,8 L18,14 L9,14 L9,8 Z M-1.77635684e-15,34 L-1.77635684e-15,0 L27.7732357,0 L27.7732357,22 L14.6550491,22 L14.6550491,29 L9,29 L9,17 L22.2574522,17 L22.2574522,4.94294222 L5.22930547,4.94294222 L5.22930547,34 L-1.77635684e-15,34 Z" id="Combined-Shape" fill="#D63242"></path>
                    <path d="M31,34 L9,34 L9,29 L31,29 L31,0 L37,0 L37,34 L31,34 Z" id="Combined-Shape" fill="#EC892E"></path>
                </g>
            </g>
        </g>
    </g>
</svg>