<?xml version="1.0" encoding="UTF-8"?>
<svg width="42px" height="27px" viewBox="0 0 42 27" version="1.1" xmlns="http://www.w3.org/2000/svg" xmlns:xlink="http://www.w3.org/1999/xlink">
    <!-- Generator: Sketch 55.2 (78181) - https://sketchapp.com -->
    <title>mastercard</title>
    <desc>Created with Sketch.</desc>
    <g id="Page-1" stroke="none" stroke-width="1" fill="none" fill-rule="evenodd">
        <g id="My-Orders" transform="translate(-305.000000, -1641.000000)" fill-rule="nonzero">
            <g id="mastercard" transform="translate(303.000000, 1639.000000)">
                <g id="Group" opacity="0" fill="#FFFFFF">
                    <rect id="Rectangle" x="0" y="0" width="45.7874242" height="30.9643678"></rect>
                </g>
                <rect id="Rectangle" fill="#FF5F00" x="16.8562121" y="5.39471264" width="12.0784848" height="20.1713793"></rect>
                <path d="M18.100303,15.4821839 C18.0972703,11.5466097 19.864197,7.82816942 22.8919697,5.39827586 C17.7482603,1.26496098 10.3616872,1.86701404 5.92333563,6.78132832 C1.48498401,11.6956426 1.48498401,19.2722884 5.92333563,24.1866027 C10.3616872,29.100917 17.7482603,29.7029701 22.8919697,25.5696552 C19.8632334,23.13899 18.0961988,19.4190085 18.100303,15.4821839 Z" id="Path" fill="#EB001B"></path>
                <path d="M41.9924242,23.9328736 L41.9924242,23.1043021 L42.1666667,23.1043021 L42.1666667,22.9328736 L41.7519697,22.9328736 L41.7519697,23.1043021 L41.9157576,23.1043021 L41.9157576,23.9328736 L41.9924242,23.9328736 Z M42.7974242,23.9328736 L42.7974242,22.9328736 L42.6719697,22.9328736 L42.5256061,23.6471593 L42.3792424,22.9328736 L42.2537879,22.9328736 L42.2537879,23.9328736 L42.3443939,23.9328736 L42.3443939,23.1757307 L42.480303,23.8257307 L42.5743939,23.8257307 L42.710303,23.1757307 L42.710303,23.9328736 L42.7974242,23.9328736 Z" id="Shape" fill="#F79E1B"></path>
                <path d="M43.1912121,15.4821839 C43.1912121,20.3935034 40.4484346,24.873634 36.1280359,27.0198472 C31.8076373,29.1660605 26.6680086,28.6015602 22.8919697,25.566092 C25.9184213,23.1341355 27.685481,19.4161896 27.685481,15.4804023 C27.685481,11.544615 25.9184213,7.82666912 22.8919697,5.39471264 C26.6680086,2.35924437 31.8076373,1.79474414 36.1280359,3.94095735 C40.4484346,6.08717057 43.1912121,10.5673012 43.1912121,15.4786207 L43.1912121,15.4821839 Z" id="Path" fill="#F79E1B"></path>
            </g>
        </g>
    </g>
</svg>