<?xml version="1.0" encoding="UTF-8"?>
<svg width="37px" height="34px" viewBox="0 0 37 34" version="1.1" xmlns="http://www.w3.org/2000/svg" xmlns:xlink="http://www.w3.org/1999/xlink">
    <!-- Generator: Sketch 53.2 (72643) - https://sketchapp.com -->
    <title>Group 15</title>
    <desc>Created with Sketch.</desc>
    <g id="Page-1" stroke="none" stroke-width="1" fill="none" fill-rule="evenodd">
        <g id="Landing-page-v4" transform="translate(-150.000000, -101.000000)">
            <g id="Group-24" transform="translate(150.000000, 99.000000)">
                <g id="Group-15" transform="translate(0.000000, 2.000000)">
                    <path d="M9,8 L18,8 L18,14 L9,14 L9,8 Z M-1.77635684e-15,34 L-1.77635684e-15,0 L27.7732357,0 L27.7732357,22 L14.6550491,22 L14.6550491,29 L9,29 L9,17 L22.2574522,17 L22.2574522,4.94294222 L5.22930547,4.94294222 L5.22930547,34 L-1.77635684e-15,34 Z" id="Combined-Shape" fill="#D63242"></path>
                    <path d="M31,34 L9,34 L9,29 L31,29 L31,0 L37,0 L37,34 L31,34 Z" id="Combined-Shape" fill="#EC892E"></path>
                </g>
            </g>
        </g>
    </g>
</svg>