<?xml version="1.0" encoding="UTF-8"?>
<svg width="74px" height="22px" viewBox="0 0 74 22" version="1.1" xmlns="http://www.w3.org/2000/svg" xmlns:xlink="http://www.w3.org/1999/xlink">
    <!-- Generator: Sketch 55.2 (78181) - https://sketchapp.com -->
    <title>mobikwik</title>
    <desc>Created with Sketch.</desc>
    <g id="Page-1" stroke="none" stroke-width="1" fill="none" fill-rule="evenodd">
        <g id="My-Orders" transform="translate(-373.000000, -1644.000000)" fill="#00C3C0">
            <g id="Group-26" transform="translate(0.000000, 1618.000000)">
                <g id="mobikwik" transform="translate(373.000000, 26.000000)">
                    <path d="M30.6322081,16.1213507 L30.6322081,16.0286448 C30.6322081,14.4993507 29.7539752,13.3564095 28.5247019,13.3564095 C27.2633696,13.3564095 26.4491398,14.4840566 26.4491398,16.0131154 L26.4491398,16.1058213 C26.4491398,17.6349977 27.3272578,18.793233 28.556646,18.793233 C29.8178634,18.793233 30.6322081,17.6504095 30.6322081,16.1213507 Z M24.6449876,16.1518213 L24.6449876,16.0131154 C24.6449876,13.603586 26.3053913,11.8120566 28.556646,11.8120566 C30.7918137,11.8120566 32.4362453,13.5727624 32.4362453,15.9977036 L32.4362453,16.1365271 C32.4362453,18.5461742 30.7758416,20.3224095 28.5247019,20.3224095 C26.2894193,20.3224095 24.6449876,18.5771154 24.6449876,16.1518213 L24.6449876,16.1518213 Z" id="Fill-2"></path>
                    <path d="M38.8875745,16.1365271 L38.8875745,15.9977036 C38.8875745,14.3602918 38.0094565,13.3564095 36.9238168,13.3564095 C35.838177,13.3564095 34.9121429,14.3758213 34.9121429,15.9821742 L34.9121429,16.1365271 C34.9121429,17.743233 35.838177,18.7622918 36.9238168,18.7622918 C38.0254286,18.7622918 38.8875745,17.7737036 38.8875745,16.1365271 Z M34.943972,18.9167624 L34.943972,20.1522918 L33.1399348,20.1522918 L33.1399348,9.00076243 L34.943972,9.00076243 L34.943972,13.2789977 C35.4709348,12.4914683 36.2053043,11.8120566 37.4187205,11.8120566 C39.1110683,11.8120566 40.7076988,13.1862918 40.7076988,15.951233 L40.7076988,16.1673507 C40.7076988,18.9167624 39.1270404,20.3068801 37.4187205,20.3068801 C36.1893323,20.3068801 35.4549627,19.6428801 34.943972,18.9167624 L34.943972,18.9167624 Z" id="Fill-3"></path>
                    <path d="M41.538705,20.1522918 L43.3428571,20.1522918 L43.3428571,11.9662918 L41.538705,11.9662918 L41.538705,20.1522918 Z M41.4748168,10.7769977 L43.3907733,10.7769977 L43.3907733,9.06264479 L41.4748168,9.06264479 L41.4748168,10.7769977 Z" id="Fill-4"></path>
                    <polyline id="Fill-5" points="44.7162236 9.34064479 46.5682919 9.34064479 46.5682919 14.6539389 50.8949938 9.34064479 53.1301615 9.34064479 49.2345901 13.9897036 53.3057391 20.1522918 51.1025155 20.1522918 47.9571708 15.4107624 46.5682919 17.0325271 46.5682919 20.1522918 44.7162236 20.1522918 44.7162236 9.34064479"></polyline>
                    <polyline id="Fill-6" points="52.300764 11.9662918 54.1528323 11.9662918 55.5897422 17.4958213 57.1543137 11.9508801 58.6870559 11.9508801 60.2518571 17.4958213 61.7046242 11.9662918 63.5247484 11.9662918 61.1458323 20.2141742 59.4854286 20.2141742 57.9048851 14.7466448 56.3082547 20.2141742 54.663823 20.2141742 52.300764 11.9662918"></polyline>
                    <path d="M64.1010062,20.1522918 L65.9051584,20.1522918 L65.9051584,11.9662918 L64.1010062,11.9662918 L64.1010062,20.1522918 Z M64.037118,10.7769977 L65.9529596,10.7769977 L65.9529596,9.06264479 L64.037118,9.06264479 L64.037118,10.7769977 Z" id="Fill-7"></path>
                    <polyline id="Fill-8" points="67.0868602 9.00076243 68.8908975 9.00076243 68.8908975 15.565233 71.7808043 11.9662918 73.9202547 11.9662918 71.1102081 15.3025271 74 20.1522918 71.9084658 20.1522918 69.8649627 16.6464095 68.8908975 17.789233 68.8908975 20.1522918 67.0868602 20.1522918 67.0868602 9.00076243"></polyline>
                    <path d="M27.3840217,8.73276243 C27.3840217,8.1319389 26.9083075,7.64499773 26.3214783,7.64499773 C25.7346491,7.64499773 25.2590497,8.1319389 25.2590497,8.73276243 C25.2590497,9.33358596 25.7346491,9.82064479 26.3214783,9.82064479 C26.9083075,9.82064479 27.3840217,9.33358596 27.3840217,8.73276243 Z M22.4064876,2.40146832 L20.8056056,19.0079389 C21.1661832,19.0507624 21.7238261,19.0166448 21.826323,18.421586 C21.9800683,17.529586 23.312413,3.62605655 23.312413,3.62605655 C23.312413,3.62605655 23.5549814,2.97088008 22.4064876,2.40146832 Z M26.1308478,11.0237036 C26.1308478,11.0237036 25.199528,11.3001742 24.0124255,11.5091154 L23.2612795,18.8937036 C23.2612795,18.8937036 23.1586677,20.4678213 22.0313168,20.4678213 L20.6648447,20.4678213 L20.649677,20.6261742 C20.649677,20.6261742 20.4788106,21.7104095 19.5564534,21.8504095 C18.6340963,21.9902918 0.800900621,21.8504095 0.800900621,21.8504095 C0.800900621,21.8504095 0.0494099379,21.7104095 0.0151677019,20.9759389 C-0.0189596273,20.2413507 0.0151677019,5.3759389 0.0151677019,5.3759389 C0.0151677019,5.3759389 0.25428882,4.43146832 1.31338509,4.29158596 C1.7238323,4.23735067 4.81287267,3.71558596 8.44231988,3.09676243 L9.657,0.735938905 C9.9446118,0.176762434 10.5601677,-0.0961787421 11.1371149,0.0306447873 C11.5215932,0.0999389049 11.8490776,0.339703611 12.0452236,0.669585964 C11.8241429,0.428880081 11.519295,0.269468317 11.1795155,0.241821258 C11.1684845,0.240880081 11.1575683,0.240880081 11.1465373,0.240174199 C11.1224068,0.238762434 11.0985062,0.236409493 11.0740311,0.236409493 C11.0693199,0.236409493 11.0646087,0.236997728 11.0598975,0.237115376 C10.574646,0.237938905 10.1043323,0.505703611 9.86348758,0.973585964 L0.899145963,18.3971154 C0.552931677,19.0699389 0.807450311,19.9102918 1.46448758,20.2646448 C2.12152484,20.6189977 2.94230435,20.3585271 3.28851863,19.6858213 L9.74042236,7.14582126 L9.74042236,17.4994683 C9.74042236,18.2505271 10.3404658,18.8649977 11.0740311,18.8649977 C11.9045776,18.8649977 12.4527981,17.8022918 12.5024379,17.7040566 L16.0492671,10.6985271 L16.0492671,16.7585271 C16.0492671,17.5094683 16.6494255,18.1239389 17.3828758,18.1239389 C18.116441,18.1239389 18.7164845,17.5094683 18.7164845,16.7585271 L18.7164845,5.08370361 C18.7164845,4.33264479 18.116441,3.7181742 17.3828758,3.7181742 C16.8232795,3.7181742 16.3422795,4.07629185 16.1452143,4.57935067 C16.1388944,4.59099773 16.1316553,4.60182126 16.1255652,4.61370361 L12.6440031,11.4904095 L11.7903602,13.3317036 L12.4076398,11.0460566 L12.4076398,2.41923302 C16.9987422,1.63323302 21.2645435,0.898762434 21.2645435,0.898762434 C21.2645435,0.898762434 22.3920093,0.618997728 22.460264,1.84311538 L22.4115435,2.34946832 C22.7975155,2.26335067 24.6212019,1.94182126 24.7472547,3.52111538 L24.4911273,7.29864479 C24.4911273,7.29864479 24.8044783,7.52523302 26.1647453,6.98805655 C26.1647453,6.98805655 28.0784037,6.2099389 28.2833975,8.15123302 C28.2833975,8.15123302 28.653972,10.143233 26.1308478,11.0237036 Z M26.9137081,8.73276243 C26.9137081,9.06770361 26.648618,9.33911538 26.3214783,9.33911538 C25.9944534,9.33911538 25.7293634,9.06770361 25.7293634,8.73276243 C25.7293634,8.3979389 25.9944534,8.12652714 26.3214783,8.12652714 C26.648618,8.12652714 26.9137081,8.3979389 26.9137081,8.73276243 L26.9137081,8.73276243 Z" id="Fill-9"></path>
                    <path d="M27.326913,8.76029185 C27.326913,8.16076243 26.8522329,7.67476243 26.2666677,7.67476243 C25.6811025,7.67476243 25.2064224,8.16076243 25.2064224,8.76029185 C25.2064224,9.35982126 25.6811025,9.84582126 26.2666677,9.84582126 C26.8522329,9.84582126 27.326913,9.35982126 27.326913,8.76029185 Z M22.3597205,2.44205655 L20.7622857,19.0139389 C21.122059,19.0567624 21.6785528,19.0226448 21.7808199,18.4288801 C21.9343354,17.5387624 23.2638075,3.66405655 23.2638075,3.66405655 C23.2638075,3.66405655 23.5059161,3.01040949 22.3597205,2.44205655 Z M26.0764969,11.0465271 C26.0764969,11.0465271 25.1470155,11.3222918 23.9623261,11.5308801 L23.2126739,18.9000566 C23.2126739,18.9000566 23.1105217,20.4707624 21.9854689,20.4707624 L20.6218696,20.4707624 L20.606587,20.6288801 C20.606587,20.6288801 20.4361801,21.7108801 19.5156615,21.8505271 C18.5951429,21.9900566 0.799291925,21.8505271 0.799291925,21.8505271 C0.799291925,21.8505271 0.0492950311,21.7108801 0.0151677019,20.9779389 C-0.0189596273,20.2448801 0.0151677019,5.41040949 0.0151677019,5.41040949 C0.0151677019,5.41040949 0.253714286,4.4679389 1.31062733,4.32829185 C1.72027019,4.2741742 4.80276087,3.75346832 8.42462422,3.13605655 L9.6367764,0.780056552 C9.92392857,0.222056552 10.5381056,-0.0502963892 11.1139037,0.076174199 C11.4975776,0.145468317 11.8243727,0.384644787 12.020059,0.713938905 C11.7995528,0.473703611 11.4952795,0.314644787 11.1561894,0.286997728 C11.1452733,0.286056552 11.1343571,0.286056552 11.1233261,0.28535067 C11.0991957,0.283938905 11.0754099,0.281468317 11.0509348,0.281468317 C11.0462236,0.281468317 11.0416273,0.282174199 11.0369161,0.282291846 C10.5526988,0.283115376 10.0831894,0.550291846 9.84303416,1.01723302 L0.897307453,18.4045271 C0.551897516,19.0758213 0.805726708,19.9145271 1.4615,20.2681742 C2.11715839,20.6218213 2.93621429,20.3618213 3.28162422,19.6904095 L9.72008385,7.17652714 L9.72008385,17.5087624 C9.72008385,18.2581742 10.3189783,18.8713507 11.0509348,18.8713507 C11.8797578,18.8713507 12.4268292,17.8108801 12.4764689,17.7128801 L16.0158292,10.7219389 L16.0158292,16.769233 C16.0158292,17.5187624 16.6147236,18.1318213 17.3466801,18.1318213 C18.0786366,18.1318213 18.6775311,17.5187624 18.6775311,16.769233 L18.6775311,5.11876243 C18.6775311,4.36935067 18.0786366,3.7561742 17.3466801,3.7561742 C16.7882329,3.7561742 16.3082671,4.11346832 16.1115466,4.61546832 C16.1052267,4.62699773 16.0979876,4.63782126 16.0920124,4.64970361 L12.6176894,11.5121742 L11.7658851,13.349586 L12.3817857,11.0686448 L12.3817857,2.45982126 C16.963236,1.67558596 21.2201894,0.94252714 21.2201894,0.94252714 C21.2201894,0.94252714 22.3452422,0.66335067 22.4134969,1.88499773 L22.3647764,2.39029185 C22.7499441,2.30429185 24.5699534,1.98346832 24.6956615,3.55946832 L24.4399938,7.32911538 C24.4399938,7.32911538 24.7527702,7.55523302 26.1101646,7.01911538 C26.1101646,7.01911538 28.0199161,6.24276243 28.2243354,8.1799389 C28.2243354,8.1799389 28.5942205,10.1678213 26.0764969,11.0465271 Z M26.8576335,8.76029185 C26.8576335,9.09452714 26.5930031,9.36535067 26.2666677,9.36535067 C25.9402174,9.36535067 25.6757019,9.09452714 25.6757019,8.76029185 C25.6757019,8.42605655 25.9402174,8.15523302 26.2666677,8.15523302 C26.5930031,8.15523302 26.8576335,8.42605655 26.8576335,8.76029185 L26.8576335,8.76029185 Z" id="Fill-10"></path>
                </g>
            </g>
        </g>
    </g>
</svg>