<?xml version="1.0" encoding="UTF-8"?>
<svg width="75px" height="76px" viewBox="0 0 75 76" version="1.1" xmlns="http://www.w3.org/2000/svg" xmlns:xlink="http://www.w3.org/1999/xlink">
    <!-- Generator: Sketch 61 (89581) - https://sketch.com -->
    <title>Group 6</title>
    <desc>Created with Sketch.</desc>
    <g id="Page-1" stroke="none" stroke-width="1" fill="none" fill-rule="evenodd">
        <g id="Artboard" transform="translate(-46.000000, -9.000000)" fill="#1A1A18">
            <g id="Group" transform="translate(46.000000, 9.000000)">
                <g id="Group-6">
                    <g id="Group-3">
                        <path d="M0,75.3902556 L9.8725,75.4271444 L9.8725,11.0375889 L45.4758333,11.0283667 L45.4758333,37.9295889 C44.9075,38.5474778 46.1633333,38.3077 44.0916667,38.4552556 C38.775,38.8425889 26.1433333,38.0402556 19.3966667,38.4737 L19.3783333,75.3902556 L74.8,75.5009222 L74.6808333,0.247588889 L65.2575,0.247588889 C64.68,12.8082556 65.2208333,34.5819222 65.2208333,48.8210333 L65.2391667,62.7281444 C65.2208333,64.2313667 65.2208333,64.0377 64.8083333,64.7201444 L29.3516667,64.6002556 L29.3608333,49.1253667 L55.4216667,49.1161444 L55.44,0.247588889 L0,0.266033333 L0,75.3902556 Z" id="Fill-1"></path>
                    </g>
                    <polygon id="Fill-4" points="19.5 29.9366255 21.1710017 30 36 30 36 22.0510288 36 19.018107 34.5116215 19.0271605 22.2210847 19 19.5 19.126749"></polygon>
                </g>
            </g>
        </g>
    </g>
</svg>