<?xml version="1.0" encoding="UTF-8"?>
<svg width="80px" height="60px" viewBox="0 0 80 60" version="1.1" xmlns="http://www.w3.org/2000/svg" xmlns:xlink="http://www.w3.org/1999/xlink">
    <!-- Generator: Sketch 63.1 (92452) - https://sketch.com -->
    <title>Not-delivering</title>
    <desc>Created with Sketch.</desc>
    <g id="Page-1" stroke="none" stroke-width="1" fill="none" fill-rule="evenodd">
        <g id="Not-Delivering" transform="translate(-677.000000, -217.000000)">
            <g id="Not-delivering" transform="translate(677.000000, 217.000000)">
                <g id="605863" transform="translate(6.000000, 8.000000)" fill="#000000" fill-rule="nonzero">
                    <path d="M17.2032465,39.4368446 C15.1673747,39.4368446 13.5168468,41.0873725 13.5168468,43.1232443 C13.5168468,45.1591161 15.1672307,46.809644 17.2032465,46.809644 C19.2392623,46.809644 20.8896462,45.1592601 20.8896462,43.1232443 C20.8873422,41.0882365 19.2382543,39.4390046 17.2032465,39.4368446 Z M17.2032465,44.3519962 C16.5245746,44.3519962 15.9744946,43.8019162 15.9744946,43.1232443 C15.9744946,42.4445723 16.5245746,41.8944924 17.2032465,41.8944924 C17.8819185,41.8944924 18.4319984,42.4445723 18.4319984,43.1232443 C18.4312784,43.8016282 17.8816305,44.3512762 17.2032465,44.3519962 Z" id="Shape"></path>
                    <path d="M56.5247471,39.4368446 C54.4888753,39.4368446 52.8383475,41.0873725 52.8383475,43.1232443 C52.8383475,45.1591161 54.4888753,46.809644 56.5247471,46.809644 C58.560619,46.809644 60.2111468,45.1592601 60.2111468,43.1232443 C60.2089868,41.0882365 58.559755,39.4390046 56.5247471,39.4368446 Z M56.5247471,44.3519962 C55.8460752,44.3519962 55.2959952,43.8019162 55.2959952,43.1232443 C55.2959952,42.4445723 55.8462192,41.8944924 56.5247471,41.8944924 C57.2034191,41.8944924 57.753499,42.4445723 57.753499,43.1232443 C57.752923,43.8016282 57.2031311,44.3512762 56.5247471,44.3519962 Z" id="Shape"></path>
                    <path d="M72.7914177,21.9455981 L64.3266665,12.4127989 C63.6253865,11.623103 62.6191146,11.172239 61.5630187,11.174399 L50.3808437,11.174399 L50.3808437,3.80159967 C50.3786837,1.76659185 48.7294518,0.11735999 46.694444,0.11519999 L3.68639968,0.11519999 C1.65139186,0.11735999 0.00215999981,1.76659185 -1.2000488e-07,3.80159967 L-1.2000488e-07,35.7504449 C-1.2000488e-07,36.0763169 0.129311989,36.3889409 0.359855969,36.6194848 C0.590255949,36.8498848 0.902879922,36.9793408 1.22889589,36.9793408 L2.45764779,36.9793408 L2.45764779,40.6657405 C2.45980779,42.7007483 4.10903965,44.3499802 6.14404747,44.3521402 L8.69975925,44.3521402 C9.3054232,48.5828598 12.9293269,51.7249395 17.2032465,51.7249395 C21.4771662,51.7249395 25.1010698,48.5828598 25.7067338,44.3521402 L48.0215479,44.3521402 C48.6272118,48.5828598 52.2511155,51.7249395 56.5250351,51.7249395 C60.7989548,51.7249395 64.4228585,48.5828598 65.0285224,44.3521402 L70.041594,44.3521402 C72.0766018,44.3499802 73.7258337,42.7007483 73.7279937,40.6657405 L73.7279937,24.3960459 C73.7271297,23.49187 73.3937697,22.6198061 72.7914177,21.9455981 Z M2.45764779,34.521549 L2.45764779,3.80159967 C2.45836779,3.12321573 3.00801574,2.57342378 3.68639968,2.57284778 L46.694444,2.57284778 C47.3728279,2.57356778 47.9226199,3.12321573 47.9231959,3.80159967 L47.9231959,34.521549 L2.45764779,34.521549 Z M8.69975925,41.8943484 L6.14404747,41.8943484 C5.46566353,41.8936284 4.91587158,41.3439804 4.91529558,40.6655965 L4.91529558,36.9791968 L11.195135,36.9791968 C9.84527915,38.2985247 8.96817523,40.0260926 8.69975925,41.8943484 Z M17.2032465,49.2671478 C13.8100308,49.2671478 11.059199,46.516316 11.059199,43.1231003 C11.059199,39.7298846 13.8100308,36.9791968 17.2032465,36.9791968 C20.5964622,36.9791968 23.347294,39.7300286 23.347294,43.1232443 C23.343262,46.514732 20.5947342,49.2632598 17.2032465,49.2671478 Z M29.4911975,41.8943484 L25.7065898,41.8943484 C25.4381738,40.0260926 24.5612139,38.2983807 23.211358,36.9791968 L29.4911975,36.9791968 L29.4911975,41.8943484 Z M40.5503965,41.8943484 L31.9488452,41.8943484 L31.9488452,36.9791968 L40.5503965,36.9791968 L40.5503965,41.8943484 Z M48.0214039,41.8943484 L43.0080443,41.8943484 L43.0080443,36.9791968 L50.5166357,36.9791968 C49.1667798,38.2985247 48.2898198,40.0260926 48.0214039,41.8943484 Z M56.5247471,49.2671478 C53.1315314,49.2671478 50.3806997,46.516316 50.3806997,43.1231003 C50.3806997,39.7298846 53.1313874,36.9790528 56.5247471,36.9790528 C59.9179628,36.9790528 62.6687946,39.7298846 62.6687946,43.1231003 C62.6647626,46.514732 59.9163788,49.2632598 56.5247471,49.2671478 Z M71.2703459,40.6655965 C71.2696259,41.3439804 70.7199779,41.8937724 70.041594,41.8943484 L65.0282344,41.8943484 C64.4155145,37.6675168 60.7959308,34.529181 56.5247471,34.521549 L50.3806997,34.521549 L50.3806997,13.6320468 L55.2959952,13.6320468 L55.2959952,25.9199978 C55.2981552,27.9550056 56.9473871,29.6042375 58.9823949,29.6063975 L71.2703459,29.6063975 L71.2703459,40.6655965 Z M71.2703459,27.1487497 L58.9823949,27.1487497 C58.304011,27.1480297 57.754219,26.5983817 57.753643,25.9199978 L57.753643,13.6320267 L61.5630187,13.6320267 C61.9158187,13.6300308 62.2524906,13.7795028 62.4876426,14.0424468 L70.9554179,23.578846 C71.1570179,23.803486 71.2690499,24.0942219 71.2704899,24.3960459 L71.2704899,27.1487497 L71.2703459,27.1487497 Z" id="Shape"></path>
                </g>
                <g id="Group-2" fill="#FF5030">
                    <circle id="Oval" cx="12.0000005" cy="12.0000005" r="12.0000005"></circle>
                </g>
                <path d="M13.1473011,13.9474432 L13.3411932,6.81818182 L11.1288352,6.81818182 L11.3276989,13.9474432 L13.1473011,13.9474432 Z M12.2375,17.1292614 C12.5556818,17.1292614 12.8332623,17.0132576 13.0702415,16.78125 C13.3072206,16.5492424 13.4273674,16.2675189 13.4306818,15.9360795 C13.4273674,15.6112689 13.3072206,15.3328598 13.0702415,15.1008523 C12.8332623,14.8688447 12.5556818,14.7528409 12.2375,14.7528409 C11.909375,14.7528409 11.6276515,14.8688447 11.3923295,15.1008523 C11.1570076,15.3328598 11.0410038,15.6112689 11.0443182,15.9360795 C11.0410038,16.2675189 11.1570076,16.5492424 11.3923295,16.78125 C11.6276515,17.0132576 11.909375,17.1292614 12.2375,17.1292614 Z" id="!" fill="#FFFFFF" fill-rule="nonzero"></path>
            </g>
        </g>
    </g>
</svg>