<?xml version="1.0" encoding="UTF-8"?>
<svg width="66px" height="22px" viewBox="0 0 66 22" version="1.1" xmlns="http://www.w3.org/2000/svg" xmlns:xlink="http://www.w3.org/1999/xlink">
    <!-- Generator: Sketch 55.2 (78181) - https://sketchapp.com -->
    <title>paytm</title>
    <desc>Created with Sketch.</desc>
    <g id="Page-1" stroke="none" stroke-width="1" fill="none" fill-rule="evenodd">
        <g id="My-Orders" transform="translate(-471.000000, -1644.000000)" fill-rule="nonzero">
            <g id="Group-26" transform="translate(0.000000, 1618.000000)">
                <g id="paytm" transform="translate(471.000000, 26.000000)">
                    <path d="M51.6545455,4.75031847 C51.9272727,4.52611465 52.0636364,4.41401274 52.2,4.30191083 C54.0954545,2.64840764 56.5227273,2.83057325 58.1454545,4.79235669 C58.3090909,4.98853503 58.3909091,5.00254777 58.5545455,4.8343949 C58.6636364,4.70828025 58.7863636,4.61019108 58.8954545,4.48407643 C60.1636364,3.2089172 61.8409091,2.83057325 63.4090909,3.54522293 C65.0590909,4.30191083 65.9454545,5.63312102 65.9590909,7.49681529 C65.9863636,11.5184713 65.9727273,15.5261146 65.9727273,19.5477707 C65.9727273,20.9770701 65.1136364,21.8738854 63.7363636,21.8738854 C63.1909091,21.8738854 62.6454545,21.8318471 62.1,21.8878981 C61.5409091,21.943949 61.3772727,21.7617834 61.3772727,21.1592357 C61.4045455,17.2356688 61.3909091,13.3121019 61.3909091,9.38853503 C61.3909091,9.22038217 61.3909091,9.06624204 61.3909091,8.89808917 C61.3772727,7.98726115 61.0227273,7.6089172 60.1772727,7.56687898 C59.4136364,7.52484076 58.8818182,8.00127389 58.8,8.8 C58.7863636,8.98216561 58.8,9.17834395 58.8,9.36050955 C58.8,12.7515924 58.8,16.1286624 58.8,19.5197452 C58.8,21.0050955 57.9681818,21.8738854 56.5227273,21.8598726 C55.7863636,21.8458599 54.7909091,22.1961783 54.3681818,21.7057325 C54,21.2853503 54.2454545,20.2904459 54.2454545,19.5477707 C54.2454545,16.0726115 54.2454545,12.5834395 54.2454545,9.10828025 C54.2454545,7.87515924 53.4681818,7.24458599 52.4590909,7.66496815 C51.8318182,7.93121019 51.6272727,8.44968153 51.6272727,9.12229299 C51.6409091,12.3732484 51.6272727,15.6101911 51.6272727,18.8611465 C51.6272727,19.1133758 51.6272727,19.3796178 51.6272727,19.6318471 C51.5863636,20.9910828 50.7409091,21.8458599 49.4318182,21.8598726 C48.8863636,21.8738854 48.3409091,21.8178344 47.7954545,21.8738854 C47.2090909,21.9299363 47.0318182,21.7617834 47.0454545,21.1171975 C47.0727273,15.6101911 47.0590909,10.1031847 47.0590909,4.58216561 C47.0590909,4.34394904 47.0727273,4.11974522 47.0590909,3.88152866 C47.0318182,3.57324841 47.1545455,3.47515924 47.4545455,3.47515924 C48.7090909,3.48917197 49.95,3.48917197 51.2045455,3.47515924 C51.5181818,3.47515924 51.6681818,3.55923567 51.6409091,3.90955414 C51.6136364,4.16178344 51.6409091,4.38598726 51.6545455,4.75031847 Z" id="Path" fill="#02B9EF"></path>
                    <path d="M22.7454545,12.3452229 C22.7454545,14.2649682 22.7454545,16.1707006 22.7454545,18.0904459 C22.7318182,20.5847134 21.4636364,21.8738854 19.0363636,21.8878981 C17.9727273,21.8878981 16.8954545,21.9019108 15.8318182,21.8878981 C13.6772727,21.8598726 12.0954545,20.388535 11.9863636,18.1745223 C11.9045455,16.5910828 11.8909091,14.9936306 11.9727273,13.4101911 C12.0818182,11.1401274 13.7727273,9.54267516 16.0090909,9.51464968 C16.5954545,9.50063694 17.1954545,9.51464968 17.7818182,9.51464968 C18.3545455,9.50063694 18.5727273,9.16433121 18.5590909,8.60382166 C18.5590909,8.0433121 18.3136364,7.7910828 17.7681818,7.81910828 C17.1545455,7.83312102 16.5409091,7.83312102 15.9272727,7.81910828 C14.4272727,7.7910828 13.5954545,6.95031847 13.6090909,5.43694268 C13.6090909,4.82038217 13.3363636,3.99363057 13.7318182,3.62929936 C14.0727273,3.32101911 14.85,3.51719745 15.4363636,3.51719745 C16.9636364,3.50318471 18.4772727,3.51719745 20.0045455,3.51719745 C21.6272727,3.51719745 22.7318182,4.6522293 22.7454545,6.33375796 C22.7590909,8.32356688 22.7454545,10.3414013 22.7454545,12.3452229 Z M18.5727273,15.5261146 C18.5727273,15.2878981 18.5727273,15.0636943 18.5727273,14.8254777 C18.5727273,13.3961783 18.5727273,13.3961783 17.1818182,13.4522293 C16.4863636,13.4802548 16.1045455,13.844586 16.0909091,14.5872611 C16.0772727,15.1757962 16.0772727,15.7503185 16.0909091,16.3388535 C16.1045455,17.3477707 16.5409091,17.6140127 17.9590909,17.656051 C19.0090909,17.6840764 18.4772727,16.9273885 18.5727273,16.5070064 C18.6272727,16.1987261 18.5590909,15.8484076 18.5727273,15.5261146 Z" id="Shape" fill="#06306F"></path>
                    <path d="M34.8818182,10.8178344 C34.8818182,12.9617834 34.9090909,15.1197452 34.8681818,17.2636943 C34.8409091,18.9171975 34.4590909,20.4165605 32.9045455,21.2993631 C32.2772727,21.6496815 31.5954545,21.8458599 30.8863636,21.8598726 C29.3181818,21.8878981 27.75,21.8598726 26.1818182,21.8878981 C25.8,21.8878981 25.7181818,21.7477707 25.7318182,21.3974522 C25.7590909,20.8089172 25.7181818,20.2343949 25.7454545,19.6458599 C25.7727273,18.5248408 26.6045455,17.6700637 27.6954545,17.6280255 C28.4045455,17.6 29.1,17.6140127 29.8090909,17.6280255 C30.3818182,17.6280255 30.6954545,17.3898089 30.6954545,16.7592357 C30.6954545,16.1146497 30.3954545,15.8904459 29.8227273,15.8764331 C28.8681818,15.8484076 27.9136364,15.988535 26.9727273,15.7082803 C25.35,15.2178344 24.1636364,13.8305732 24.1227273,12.1070064 C24.0409091,9.37452229 24.0954545,6.64203822 24.0818182,3.90955414 C24.0818182,3.60127389 24.1772727,3.50318471 24.4772727,3.51719745 C25.5954545,3.53121019 26.7,3.54522293 27.8181818,3.51719745 C28.3090909,3.50318471 28.2409091,3.78343949 28.2409091,4.09171975 C28.2409091,6.15159236 28.2409091,8.19745223 28.2409091,10.2573248 C28.2409091,11.1541401 28.65,11.6305732 29.4136364,11.6585987 C30.3136364,11.6866242 30.7090909,11.3082803 30.7090909,10.3694268 C30.7090909,8.2955414 30.7227273,6.20764331 30.6954545,4.13375796 C30.6954545,3.6433121 30.8181818,3.50318471 31.2954545,3.51719745 C32.2909091,3.55923567 33.3,3.57324841 34.2954545,3.51719745 C34.8409091,3.48917197 34.9227273,3.69936306 34.9090909,4.18980892 C34.8681818,6.38980892 34.8818182,8.60382166 34.8818182,10.8178344 Z" id="Path" fill="#06306F"></path>
                    <path d="M0.136363636,13.9987261 C0.136363636,11.7146497 0.136363636,9.41656051 0.136363636,7.13248408 C0.136363636,4.89044586 1.47272727,3.48917197 3.66818182,3.51719745 C5.1,3.53121019 6.53181818,3.34904459 7.95,3.62929936 C9.76363636,3.99363057 10.9090909,5.43694268 10.9227273,7.3566879 C10.9363636,9.38853503 10.9227273,11.4203822 10.9227273,13.4522293 C10.9227273,16.0025478 9.46363636,17.5579618 6.98181818,17.6280255 C6.23181818,17.656051 5.48181818,17.6420382 4.73181818,17.6280255 C4.39090909,17.6140127 4.24090909,17.7261146 4.25454545,18.1044586 C4.28181818,18.6649682 4.26818182,19.2254777 4.25454545,19.7859873 C4.22727273,20.9910828 3.39545455,21.8598726 2.23636364,21.8738854 C1.55454545,21.8878981 0.695454545,22.1681529 0.259090909,21.7617834 C-0.15,21.3834395 0.15,20.4866242 0.136363636,19.8140127 C0.122727273,17.8802548 0.136363636,15.9324841 0.136363636,13.9987261 Z M4.25454545,10.5656051 C4.25454545,11.0140127 4.25454545,11.4484076 4.25454545,11.8968153 C4.25454545,13.4802548 4.25454545,13.4802548 5.79545455,13.3401274 C6.46363636,13.2840764 6.77727273,12.9477707 6.79090909,12.2611465 C6.80454545,11.4764331 6.76363636,10.677707 6.80454545,9.89299363 C6.88636364,7.62292994 6.47727273,7.84713376 4.67727273,7.83312102 C4.35,7.83312102 4.24090909,7.93121019 4.24090909,8.26751592 C4.26818182,9.02420382 4.25454545,9.79490446 4.25454545,10.5656051 Z" id="Shape" fill="#06306F"></path>
                    <path d="M38.7409091,14.0267516 C38.7409091,12.1630573 38.7272727,10.2853503 38.7545455,8.42165605 C38.7545455,7.98726115 38.6590909,7.80509554 38.1954545,7.81910828 C37.5818182,7.84713376 36.7636364,8.02929936 36.4227273,7.72101911 C36,7.31464968 36.3272727,6.44585987 36.2727273,5.77324841 C36.2727273,5.73121019 36.2727273,5.67515924 36.2727273,5.63312102 C36.2727273,4.97452229 36.0681818,4.20382166 36.3409091,3.7133758 C36.6136364,3.22292994 37.4454545,3.53121019 38.0318182,3.37707006 C39.1909091,3.06878981 40.0636364,2.38216561 40.7727273,1.42929936 C41.2636364,0.784713376 41.8772727,0.322292994 42.6681818,0.168152866 C43.0909091,0.0840764331 43.35,0.140127389 43.3227273,0.700636943 C43.2818182,1.48535032 43.3227273,2.28407643 43.3090909,3.08280255 C43.2954545,3.41910828 43.4181818,3.53121019 43.7454545,3.51719745 C44.2909091,3.50318471 44.8363636,3.53121019 45.3818182,3.50318471 C45.7090909,3.48917197 45.8181818,3.61528662 45.8045455,3.95159236 C45.7909091,5.10063694 45.7909091,6.23566879 45.8045455,7.38471338 C45.8045455,7.70700637 45.7227273,7.87515924 45.3818182,7.83312102 C45.3136364,7.81910828 45.2454545,7.83312102 45.1772727,7.83312102 C44.5772727,7.88917197 43.7454545,7.55286624 43.4318182,7.97324841 C43.1318182,8.3656051 43.3227273,9.17834395 43.3227273,9.8089172 C43.3227273,13.6203822 43.3090909,17.4178344 43.3363636,21.2292994 C43.3363636,21.7617834 43.2,21.9299363 42.6818182,21.8878981 C42.1909091,21.8458599 41.6863636,21.8878981 41.1818182,21.8738854 C39.7090909,21.8178344 38.7409091,20.7949045 38.7409091,19.2815287 C38.7409091,17.5299363 38.7409091,15.7783439 38.7409091,14.0267516 Z" id="Path" fill="#02B9EF"></path>
                </g>
            </g>
        </g>
    </g>
</svg>