<?xml version="1.0" encoding="UTF-8"?>
<svg width="32px" height="32px" viewBox="0 0 32 32" version="1.1" xmlns="http://www.w3.org/2000/svg" xmlns:xlink="http://www.w3.org/1999/xlink">
    <!-- Generator: Sketch 53.2 (72643) - https://sketchapp.com -->
    <title>9935</title>
    <desc>Created with Sketch.</desc>
    <g id="Page-1" stroke="none" stroke-width="1" fill="none" fill-rule="evenodd">
        <g id="Landing-page-v4" transform="translate(-1110.000000, -6229.000000)" fill="#CC1F30" fill-rule="nonzero">
            <g id="9935" transform="translate(1110.000000, 6229.000000)">
                <path d="M25.9754499,0 L5.99431041,0 C2.68347348,0 0,2.68347348 0,5.99431041 L0,25.9754499 C0,29.2863497 2.68347348,31.9697603 5.99431041,31.9697603 L25.9754499,31.9697603 C29.2863497,31.9697603 31.9697603,29.2862868 31.9697603,25.9754499 L31.9697603,5.99431041 C31.9698232,2.68347348 29.2863497,0 25.9754499,0 Z M17.2317171,20.3067976 C16.0628055,20.2168959 15.5733124,19.6374381 14.6581375,19.0799843 C14.1546248,21.7214617 13.5392063,24.2551198 11.7169037,25.5758585 C11.1534145,21.5856031 12.5421139,18.5884794 13.1875206,15.4054538 C12.0885815,13.5532259 13.3194185,9.83072692 15.6371866,10.7478507 C18.4885187,11.876778 13.1655167,17.6273477 16.7401493,18.3466876 C20.4706326,19.0959528 21.9951906,11.8708055 19.6813831,9.52103733 C16.3365344,6.12822004 9.95055403,9.44308055 10.7358428,14.3005422 C10.9276542,15.4874342 12.1525187,15.8471041 11.2253988,17.4875285 C9.0854224,17.0159528 8.44605108,15.3255481 8.52796857,13.0756778 C8.6598664,9.39316306 11.8368566,6.81555992 15.0238428,6.45790177 C19.0540196,6.00631827 22.8344833,7.93650295 23.3559764,11.7268998 C23.9453674,16.0049037 21.5376346,20.6405029 17.2317171,20.3067976 Z" id="Shape"></path>
            </g>
        </g>
    </g>
</svg>