<?xml version="1.0" encoding="UTF-8"?>
<svg width="32px" height="32px" viewBox="0 0 32 32" version="1.1" xmlns="http://www.w3.org/2000/svg" xmlns:xlink="http://www.w3.org/1999/xlink">
    <!-- Generator: Sketch 58 (84663) - https://sketch.com -->
    <title>149150</title>
    <desc>Created with Sketch.</desc>
    <g id="Page-1" stroke="none" stroke-width="1" fill="none" fill-rule="evenodd">
        <g id="Contact-us" transform="translate(-834.000000, -620.000000)" fill="#252931" fill-rule="nonzero">
            <g id="Group-4" transform="translate(834.000000, 620.000000)">
                <g id="149150">
                    <path d="M16,0 C7.17723077,0 0,7.17723077 0,16 C0,24.8227692 7.17723077,32 16,32 C24.8227692,32 32,24.8227692 32,16 C32,7.17723077 24.8227692,0 16,0 Z M16,30.7692308 C7.85661538,30.7692308 1.23076923,24.1433846 1.23076923,16 C1.23076923,7.85661538 7.85661538,1.23076923 16,1.23076923 C24.1433846,1.23076923 30.7692308,7.85661538 30.7692308,16 C30.7692308,24.1433846 24.1433846,30.7692308 16,30.7692308 Z" id="Shape"></path>
                    <path d="M16,22.7692308 C15.6596923,22.7692308 15.3846154,23.0443077 15.3846154,23.3846154 L15.3846154,24.6153846 C15.3846154,24.9556923 15.6596923,25.2307692 16,25.2307692 C16.3403077,25.2307692 16.6153846,24.9556923 16.6153846,24.6153846 L16.6153846,23.3846154 C16.6153846,23.0443077 16.3403077,22.7692308 16,22.7692308 Z" id="Path"></path>
                    <path d="M16.0695385,5.53907692 C16.0461538,5.53907692 16.0227692,5.53846154 15.9987692,5.53846154 C14.6966154,5.53846154 13.472,6.04 12.5433846,6.95630769 C11.5981538,7.88861538 11.0769231,9.13353846 11.0769231,10.4615385 C11.0769231,10.8018462 11.352,11.0769231 11.6923077,11.0769231 C12.0326154,11.0769231 12.3076923,10.8018462 12.3076923,10.4615385 C12.3076923,9.46584615 12.6984615,8.53169231 13.4073846,7.83261538 C14.1169231,7.13292308 15.0615385,6.74646154 16.0529231,6.76984615 C17.9981538,6.79692308 19.6646154,8.46338462 19.6916923,10.4086154 C19.7095385,11.6910769 19.0769231,12.8713846 17.9987692,13.5667692 C16.3618462,14.6227692 15.3846154,16.4886154 15.3846154,18.5587692 L15.3846154,20.3076923 C15.3846154,20.648 15.6596923,20.9230769 16,20.9230769 C16.3403077,20.9230769 16.6153846,20.648 16.6153846,20.3076923 L16.6153846,18.5587692 C16.6153846,16.9329231 17.4006154,15.4172308 18.6658462,14.6006154 C20.1027692,13.6738462 20.9464615,12.1003077 20.9224615,10.3913846 C20.8855385,7.75323077 18.7083077,5.576 16.0695385,5.53907692 Z" id="Path"></path>
                </g>
            </g>
        </g>
    </g>
</svg>