<?xml version="1.0" encoding="UTF-8"?>
<svg width="18px" height="18px" viewBox="0 0 18 18" version="1.1" xmlns="http://www.w3.org/2000/svg" xmlns:xlink="http://www.w3.org/1999/xlink">
    <!-- Generator: sketchtool 63.1 (101010) - https://sketch.com -->
    <title>6FF06624-983C-42D9-93D1-9983F4DC9651</title>
    <desc>Created with sketchtool.</desc>
    <g id="Page-1" stroke="none" stroke-width="1" fill="none" fill-rule="evenodd">
        <g id="Landing-Page" transform="translate(-198.000000, -17.000000)" fill="#252931" fill-rule="nonzero">
            <g id="search" transform="translate(198.000000, 17.000000)">
                <path d="M8.13999976,0.484000047 C12.3682916,0.484000047 15.7959995,3.91170787 15.7959995,8.13999976 C15.7959995,10.0326191 15.1092467,11.7648387 13.9713413,13.1010585 L17.3755772,16.5044217 C17.6161401,16.7449846 17.6161401,17.1350142 17.3755772,17.3755772 C17.1617434,17.5894109 16.8298126,17.6131702 16.5897351,17.4468551 L16.5044217,17.3755772 L13.1010585,13.9713413 C11.7648387,15.1092467 10.0326191,15.7959995 8.13999976,15.7959995 C3.91170787,15.7959995 0.484000047,12.3682916 0.484000047,8.13999976 C0.484000047,3.91170787 3.91170787,0.484000047 8.13999976,0.484000047 Z M8.13999976,1.716 C4.59212266,1.716 1.716,4.59212266 1.716,8.13999976 C1.716,11.6878769 4.59212266,14.5639995 8.13999976,14.5639995 C9.88651192,14.5639995 11.4702382,13.8670305 12.6282165,12.7360545 C12.6410328,12.7140921 12.6580238,12.6948198 12.6764218,12.6764218 L12.7360545,12.6282165 C13.8670305,11.4702382 14.5639995,9.88651192 14.5639995,8.13999976 C14.5639995,4.59212266 11.6878769,1.716 8.13999976,1.716 Z" id="Shape"></path>
            </g>
        </g>
    </g>
</svg>