<?xml version="1.0" encoding="UTF-8"?>
<svg width="27px" height="28px" viewBox="0 0 27 28" version="1.1" xmlns="http://www.w3.org/2000/svg" xmlns:xlink="http://www.w3.org/1999/xlink">
    <!-- Generator: Sketch 53.2 (72643) - https://sketchapp.com -->
    <title>Combined Shape</title>
    <desc>Created with Sketch.</desc>
    <g id="Page-1" stroke="none" stroke-width="1" fill="none" fill-rule="evenodd">
        <g id="Landing-page-v4" transform="translate(-929.000000, -669.000000)" fill="#252931" fill-rule="nonzero">
            <path d="M931.333152,692.333333 L935.02687,696.00425 L934.196913,696.829083 L929.085696,691.75 L934.196913,686.670917 L935.02687,687.49575 L931.333152,691.166667 L944.003196,691.166667 C949.828739,691.166667 954.568413,686.45625 954.568413,680.666667 C954.568413,674.877083 949.828739,670.166667 944.003196,670.166667 L929.916239,670.166667 C929.592239,670.166667 929.329283,669.905917 929.329283,669.583333 C929.329283,669.26075 929.592239,669 929.916239,669 L944.003196,669 C950.476152,669 955.742326,674.233667 955.742326,680.666667 C955.742326,687.099667 950.475565,692.333333 944.003196,692.333333 L931.333152,692.333333 Z M938.078125,675.272727 L938.078125,684 L936.53125,684 L936.53125,677.292614 L936.458807,677.292614 C936.373579,677.426137 936.174717,677.567471 935.862216,677.716619 C935.549714,677.865768 935.14773,677.940341 934.65625,677.940341 L934.65625,676.661932 C934.957388,676.661932 935.225851,676.608665 935.461648,676.502131 C935.697444,676.395596 935.898437,676.264916 936.064631,676.110085 C936.230825,675.955255 936.359375,675.801137 936.450284,675.647727 C936.541194,675.494317 936.590909,675.369319 936.599432,675.272727 L938.078125,675.272727 Z M943.524148,684.166193 C942.473006,684.166193 941.649861,683.76989 941.054688,682.977273 C940.459514,682.184655 940.161932,681.073871 940.161932,679.644886 C940.164773,678.218743 940.463775,677.11364 941.058949,676.329545 C941.654122,675.545451 942.475847,675.153409 943.524148,675.153409 C944.572448,675.153409 945.394883,675.546161 945.991477,676.331676 C946.588071,677.117191 946.886364,678.221584 946.886364,679.644886 C946.886364,681.076712 946.589492,682.188916 945.995739,682.981534 C945.401986,683.774152 944.57813,684.169034 943.524148,684.166193 Z M943.524148,682.832386 C944.069605,682.832386 944.500709,682.563213 944.817472,682.024858 C945.134235,681.486503 945.292614,680.693187 945.292614,679.644886 C945.289773,678.605108 945.129973,677.816054 944.81321,677.277699 C944.496447,676.739344 944.066764,676.47017 943.524148,676.47017 C942.984372,676.47017 942.55611,676.739344 942.239347,677.277699 C941.922584,677.816054 941.762784,678.605108 941.759943,679.644886 C941.757102,680.693187 941.914771,681.486503 942.232955,682.024858 C942.551138,682.563213 942.981531,682.832386 943.524148,682.832386 Z" id="Combined-Shape"></path>
        </g>
    </g>
</svg>