<svg xmlns="http://www.w3.org/2000/svg" width="20" height="20" viewBox="0 0 20 20">
  <path d="M8.25,0 C12.8063492,0 16.5,3.69365081 16.5,8.25 C16.5,10.3579908 15.7093955,12.281326 14.4085283,13.739664 L19.3352377,18.9092617 L18.2493263,19.9440546 L13.3132862,14.7639762 C11.9155649,15.8519814 10.1584589,16.5 8.25,16.5 C3.69365081,16.5 0,12.8063492 0,8.25 C0,3.69365081 3.69365081,0 8.25,0 Z M8.25,1.5 C4.52207794,1.5 1.5,4.52207794 1.5,8.25 C1.5,11.9779221 4.52207794,15 8.25,15 C11.9779221,15 15,11.9779221 15,8.25 C15,4.52207794 11.9779221,1.5 8.25,1.5 Z"/>
</svg>
