<?xml version="1.0" encoding="UTF-8"?>
<svg width="22px" height="28px" viewBox="0 0 22 28" version="1.1" xmlns="http://www.w3.org/2000/svg" xmlns:xlink="http://www.w3.org/1999/xlink">
    <!-- Generator: Sketch 53.2 (72643) - https://sketchapp.com -->
    <title>1332646</title>
    <desc>Created with Sketch.</desc>
    <g id="Page-1" stroke="none" stroke-width="1" fill="none" fill-rule="evenodd">
        <g id="Landing-page-v3" transform="translate(-540.000000, -657.000000)" fill="#252931" fill-rule="nonzero">
            <g id="1332646" transform="translate(540.000000, 657.000000)">
                <path d="M21.6733197,5.65570835 L11.0797571,0.0615416853 C10.9225974,-0.021583296 10.7342412,-0.020416704 10.5782588,0.0644583147 L0.277825342,5.65862498 C0.10889337,5.7505 0.0041202911,5.92608337 0.0041202911,6.11712498 L0.0041202911,13.4245417 C0.0103007466,19.4314167 3.60142871,24.86575 9.15499253,27.2722916 L10.5847335,27.88975 C10.7183487,27.9475 10.8705051,27.9477916 11.0044146,27.8903333 L12.6154484,27.2008333 C18.2720195,24.8465 21.952028,19.3596667 21.9526167,13.2795833 L21.9526167,6.11712498 C21.9526167,5.92404169 21.8451947,5.7464167 21.6733197,5.65570835 L21.6733197,5.65570835 Z M20.8978222,13.2795833 C20.8966449,18.9405417 17.4694457,24.0485 12.2025364,26.2392084 L12.1990047,26.2409583 L10.7960456,26.8412084 L9.57702802,26.3141667 C4.40753425,24.0741667 1.06450662,19.0160834 1.05862049,13.4245417 L1.05862049,6.4265833 L10.8351884,1.1165 L20.8978222,6.43037502 L20.8978222,13.2795833 Z" id="Shape"></path>
                <path d="M6.94416205,13.085625 C6.75492295,12.866 6.42206227,12.8400417 6.20044949,13.0275833 C5.97883671,13.2148333 5.95264337,13.545 6.14188247,13.7643333 L8.9277879,16.9974583 C9.11378962,17.2132916 9.43958686,17.24275 9.66149401,17.0636667 L16.1497752,11.8323333 C16.3758026,11.6503333 16.4099422,11.3210417 16.2260006,11.0970417 C16.0423534,10.8733333 15.7100813,10.8392084 15.4840539,11.0215 L9.39544092,15.93025 L6.94416205,13.085625 Z" id="Path"></path>
            </g>
        </g>
    </g>
</svg>