<?xml version="1.0" encoding="UTF-8"?>
<svg width="24px" height="27px" viewBox="0 0 24 27" version="1.1" xmlns="http://www.w3.org/2000/svg" xmlns:xlink="http://www.w3.org/1999/xlink">
    <!-- Generator: Sketch 53.2 (72643) - https://sketchapp.com -->
    <title>70382</title>
    <desc>Created with Sketch.</desc>
    <g id="Page-1" stroke="none" stroke-width="1" fill="none" fill-rule="evenodd">
        <g id="Artboard" transform="translate(-1453.000000, -2062.000000)" fill="#000000" fill-rule="nonzero">
            <g id="70382" transform="translate(1453.000000, 2062.000000)">
                <path d="M8.38947139,21.5270742 C9.00091553,21.5270742 9.50118801,21.0329354 9.50118801,20.428988 L9.50118801,1.10267225 C9.50118801,0.681717703 9.26033787,0.29738756 8.88974387,0.114394737 C8.51914986,-0.0685980861 8.0559564,-0.0320382775 7.72244142,0.224203349 L0.459204359,5.60482536 C-0.0410681205,5.9708756 -0.133732971,6.64800718 0.236861035,7.14214593 C0.60745504,7.63628469 1.29299182,7.7278134 1.7932643,7.36176316 L7.27775477,3.2988445 L7.27775477,20.428988 C7.27775477,21.0329354 7.77802725,21.5270742 8.38947139,21.5270742 Z" id="Path"></path>
                <path d="M15.6156294,5.60482536 C15.0041853,5.60482536 14.5039128,6.09896411 14.5039128,6.70291148 L14.5039128,25.8462344 C14.5039128,26.267189 14.7447629,26.6331746 15.1153569,26.834512 C15.2821144,26.9076962 15.4488719,26.9443206 15.6156294,26.9443206 C15.8564796,26.9443206 16.0788229,26.8711364 16.2826594,26.7247033 L23.5458965,21.43561 C24.0461689,21.0695598 24.1388338,20.3924282 23.7867466,19.8982895 C23.4161526,19.4041507 22.7306158,19.312622 22.2303433,19.6603923 L16.727346,23.6684067 L16.727346,6.70297608 C16.727346,6.09896411 16.2270736,5.60482536 15.6156294,5.60482536 Z" id="Path"></path>
            </g>
        </g>
    </g>
</svg>