<?xml version="1.0" encoding="UTF-8"?>
<svg width="32px" height="32px" viewBox="0 0 32 32" version="1.1" xmlns="http://www.w3.org/2000/svg" xmlns:xlink="http://www.w3.org/1999/xlink">
    <!-- Generator: Sketch 53.2 (72643) - https://sketchapp.com -->
    <title>8726</title>
    <desc>Created with Sketch.</desc>
    <g id="Page-1" stroke="none" stroke-width="1" fill="none" fill-rule="evenodd">
        <g id="Landing-page-v4" transform="translate(-1206.000000, -6229.000000)" fill="#F9403D" fill-rule="nonzero">
            <g id="8726" transform="translate(1206.000000, 6229.000000)">
                <path d="M25.9754499,0 L5.99431041,0 C2.68347348,0 0,2.68347348 0,5.99431041 L0,25.9754499 C0,29.2863497 2.68347348,31.9697603 5.99431041,31.9697603 L25.9754499,31.9697603 C29.2863497,31.9697603 31.9697603,29.2862868 31.9697603,25.9754499 L31.9697603,5.99431041 C31.9698232,2.68347348 29.2863497,0 25.9754499,0 Z M25.8056424,19.5635049 C25.6977603,20.8942397 24.6867112,22.5926287 23.2740589,22.8383811 C18.7483536,23.1900668 13.3853674,23.1461218 8.6978389,22.8383811 C7.23520629,22.654554 6.27413752,20.8922279 6.1662554,19.5635049 C5.9384833,16.7701375 5.9384833,15.1796306 6.1662554,12.3862633 C6.27413752,11.0575403 7.259222,9.30514735 8.6978389,9.14533595 C13.3314892,8.7556778 18.7244008,8.83960707 23.2740589,9.14533595 C24.9005265,9.20524951 25.6977603,10.8816974 25.8056424,12.2124322 C26.029391,15.0057996 26.029391,16.7701375 25.8056424,19.5635049 Z" id="Shape"></path>
                <polygon id="Path" points="13.9867662 19.9811395 19.9811395 15.9849116 13.9867662 11.9886837"></polygon>
            </g>
        </g>
    </g>
</svg>